DrDrape-tgt_Bold.ufo
<glyph name="exclam" format="2">
  <advance width="438"/>
  <unicode hex="0021"/>
  <outline>
    <contour>
      <point x="305" y="372" type="line"/>
      <point x="338" y="1089" type="line"/>
      <point x="338" y="1428" type="line"/>
      <point x="100" y="1428" type="line"/>
      <point x="100" y="1089" type="line"/>
      <point x="134" y="372" type="line"/>
    </contour>
    <contour>
      <point x="367" y="0" type="line"/>
      <point x="367" y="231" type="line"/>
      <point x="71" y="231" type="line"/>
      <point x="71" y="0" type="line"/>
    </contour>
  </outline>
</glyph>
<glyph name="quotedbl" format="2">
  <advance width="707"/>
  <unicode hex="0022"/>
  <outline>
    <contour>
      <point x="230" y="949" type="line"/>
      <point x="273" y="1190" type="line"/>
      <point x="273" y="1428" type="line"/>
      <point x="71" y="1428" type="line"/>
      <point x="71" y="1190" type="line"/>
      <point x="115" y="949" type="line"/>
    </contour>
    <contour>
      <point x="593" y="949" type="line"/>
      <point x="636" y="1190" type="line"/>
      <point x="636" y="1428" type="line"/>
      <point x="434" y="1428" type="line"/>
      <point x="434" y="1190" type="line"/>
      <point x="477" y="949" type="line"/>
    </contour>
  </outline>
</glyph>
<glyph name="numbersign" format="2">
  <advance width="1110"/>
  <unicode hex="0023"/>
  <outline>
    <contour>
      <point x="387" y="0" type="line"/>
      <point x="442" y="383" type="line"/>
      <point x="574" y="383" type="line"/>
      <point x="519" y="0" type="line"/>
      <point x="753" y="0" type="line"/>
      <point x="810" y="383" type="line"/>
      <point x="943" y="383" type="line"/>
      <point x="989" y="578" type="line"/>
      <point x="847" y="578" type="line"/>
      <point x="879" y="860" type="line"/>
      <point x="1016" y="860" type="line"/>
      <point x="1057" y="1055" type="line"/>
      <point x="915" y="1055" type="line"/>
      <point x="964" y="1428" type="line"/>
      <point x="729" y="1428" type="line"/>
      <point x="680" y="1055" type="line"/>
      <point x="548" y="1055" type="line"/>
      <point x="598" y="1428" type="line"/>
      <point x="363" y="1428" type="line"/>
      <point x="314" y="1055" type="line"/>
      <point x="168" y="1055" type="line"/>
      <point x="124" y="860" type="line"/>
      <point x="277" y="860" type="line"/>
      <point x="245" y="578" type="line"/>
      <point x="99" y="578" type="line"/>
      <point x="53" y="383" type="line"/>
      <point x="208" y="383" type="line"/>
      <point x="151" y="0" type="line"/>
    </contour>
    <contour>
      <point x="511" y="860" type="line"/>
      <point x="643" y="860" type="line"/>
      <point x="611" y="578" type="line"/>
      <point x="480" y="578" type="line"/>
    </contour>
  </outline>
</glyph>
<glyph name="dollar" format="2">
  <advance width="936"/>
  <unicode hex="0024"/>
  <anchor x="467" y="0" name="bottom"/>
  <anchor x="467" y="1428" name="top"/>
  <outline>
    <contour>
      <point x="571" y="-189" type="line"/>
      <point x="571" y="-10" type="line"/>
      <point x="786" y="16"/>
      <point x="877" y="116"/>
      <point x="887" y="318" type="curve"/>
      <point x="891" y="370"/>
      <point x="893" y="417"/>
      <point x="889" y="472" type="curve"/>
      <point x="880" y="651"/>
      <point x="823" y="761"/>
      <point x="580" y="806" type="curve" smooth="yes"/>
      <point x="427" y="835" type="line"/>
      <point x="314" y="850"/>
      <point x="289" y="894"/>
      <point x="283" y="954" type="curve" smooth="yes"/>
      <point x="275" y="1021"/>
      <point x="274" y="1089"/>
      <point x="283" y="1156" type="curve" smooth="yes"/>
      <point x="291" y="1217"/>
      <point x="341" y="1250"/>
      <point x="468" y="1250" type="curve" smooth="yes"/>
      <point x="588" y="1250"/>
      <point x="646" y="1217"/>
      <point x="651" y="1156" type="curve" smooth="yes"/>
      <point x="656" y="1070"/>
      <point x="655" y="986"/>
      <point x="649" y="901" type="curve"/>
      <point x="875" y="901" type="line"/>
      <point x="879" y="972"/>
      <point x="882" y="1057"/>
      <point x="878" y="1112" type="curve"/>
      <point x="870" y="1311"/>
      <point x="778" y="1411"/>
      <point x="571" y="1437" type="curve"/>
      <point x="571" y="1634" type="line"/>
      <point x="363" y="1634" type="line"/>
      <point x="363" y="1437" type="line"/>
      <point x="142" y="1411"/>
      <point x="55" y="1313"/>
      <point x="48" y="1112" type="curve" smooth="yes"/>
      <point x="46" y="1060"/>
      <point x="44" y="1011"/>
      <point x="47" y="954" type="curve" smooth="yes"/>
      <point x="55" y="778"/>
      <point x="112" y="672"/>
      <point x="348" y="627" type="curve"/>
      <point x="514" y="593" type="line"/>
      <point x="621" y="578"/>
      <point x="646" y="530"/>
      <point x="653" y="472" type="curve" smooth="yes"/>
      <point x="660" y="401"/>
      <point x="662" y="343"/>
      <point x="653" y="274" type="curve" smooth="yes"/>
      <point x="645" y="211"/>
      <point x="595" y="179"/>
      <point x="469" y="179" type="curve" smooth="yes"/>
      <point x="341" y="179"/>
      <point x="287" y="211"/>
      <point x="281" y="274" type="curve"/>
      <point x="272" y="350"/>
      <point x="273" y="441"/>
      <point x="281" y="532" type="curve"/>
      <point x="57" y="532" type="line"/>
      <point x="49" y="465"/>
      <point x="47" y="386"/>
      <point x="52" y="318" type="curve"/>
      <point x="61" y="117"/>
      <point x="150" y="18"/>
      <point x="363" y="-8" type="curve"/>
      <point x="363" y="-189" type="line"/>
    </contour>
  </outline>
</glyph>
<glyph name="percent" format="2">
  <advance width="1343"/>
  <unicode hex="0025"/>
  <outline>
    <contour>
      <point x="241" y="0" type="line"/>
      <point x="1272" y="1428" type="line"/>
      <point x="1105" y="1428" type="line"/>
      <point x="73" y="0" type="line"/>
    </contour>
    <contour>
      <point x="990" y="-10" type="curve" smooth="yes"/>
      <point x="1145" y="-10"/>
      <point x="1231" y="66"/>
      <point x="1240" y="198" type="curve" smooth="yes"/>
      <point x="1244" y="276"/>
      <point x="1244" y="363"/>
      <point x="1240" y="449" type="curve" smooth="yes"/>
      <point x="1231" y="579"/>
      <point x="1145" y="653"/>
      <point x="990" y="653" type="curve" smooth="yes"/>
      <point x="834" y="653"/>
      <point x="747" y="579"/>
      <point x="743" y="449" type="curve" smooth="yes"/>
      <point x="739" y="363"/>
      <point x="739" y="276"/>
      <point x="743" y="198" type="curve" smooth="yes"/>
      <point x="747" y="64"/>
      <point x="835" y="-10"/>
    </contour>
    <contour>
      <point x="990" y="128" type="curve" smooth="yes"/>
      <point x="941" y="128"/>
      <point x="916" y="149"/>
      <point x="914" y="169" type="curve"/>
      <point x="906" y="234"/>
      <point x="906" y="400"/>
      <point x="914" y="477" type="curve"/>
      <point x="915" y="498"/>
      <point x="941" y="515"/>
      <point x="990" y="515" type="curve" smooth="yes"/>
      <point x="1040" y="515"/>
      <point x="1065" y="498"/>
      <point x="1068" y="477" type="curve"/>
      <point x="1076" y="401"/>
      <point x="1076" y="233"/>
      <point x="1068" y="169" type="curve"/>
      <point x="1063" y="145"/>
      <point x="1039" y="128"/>
    </contour>
    <contour>
      <point x="306" y="773" type="curve" smooth="yes"/>
      <point x="460" y="773"/>
      <point x="546" y="850"/>
      <point x="555" y="981" type="curve" smooth="yes"/>
      <point x="560" y="1060"/>
      <point x="560" y="1146"/>
      <point x="555" y="1232" type="curve" smooth="yes"/>
      <point x="546" y="1362"/>
      <point x="460" y="1436"/>
      <point x="306" y="1436" type="curve" smooth="yes"/>
      <point x="149" y="1436"/>
      <point x="63" y="1362"/>
      <point x="59" y="1232" type="curve" smooth="yes"/>
      <point x="55" y="1146"/>
      <point x="55" y="1060"/>
      <point x="59" y="981" type="curve" smooth="yes"/>
      <point x="63" y="848"/>
      <point x="150" y="773"/>
    </contour>
    <contour>
      <point x="306" y="912" type="curve" smooth="yes"/>
      <point x="257" y="912"/>
      <point x="231" y="932"/>
      <point x="230" y="952" type="curve"/>
      <point x="221" y="1017"/>
      <point x="221" y="1183"/>
      <point x="230" y="1260" type="curve"/>
      <point x="230" y="1282"/>
      <point x="257" y="1298"/>
      <point x="306" y="1298" type="curve" smooth="yes"/>
      <point x="355" y="1298"/>
      <point x="380" y="1282"/>
      <point x="383" y="1261" type="curve"/>
      <point x="391" y="1184"/>
      <point x="391" y="1016"/>
      <point x="383" y="952" type="curve"/>
      <point x="378" y="928"/>
      <point x="354" y="912"/>
    </contour>
  </outline>
</glyph>
<glyph name="ampersand" format="2">
  <advance width="999"/>
  <unicode hex="0026"/>
  <outline>
    <contour>
      <point x="422" y="-16" type="curve" smooth="yes"/>
      <point x="549" y="-16"/>
      <point x="634" y="20"/>
      <point x="689" y="102" type="curve"/>
      <point x="720" y="65"/>
      <point x="749" y="29"/>
      <point x="778" y="-5" type="curve"/>
      <point x="928" y="141" type="line"/>
      <point x="891" y="186"/>
      <point x="838" y="249"/>
      <point x="778" y="325" type="curve"/>
      <point x="788" y="448"/>
      <point x="782" y="611"/>
      <point x="770" y="725" type="curve"/>
      <point x="583" y="724" type="line"/>
      <point x="589" y="661"/>
      <point x="594" y="603"/>
      <point x="596" y="556" type="curve"/>
      <point x="560" y="613"/>
      <point x="527" y="671"/>
      <point x="497" y="732" type="curve"/>
      <point x="511" y="745"/>
      <point x="526" y="758"/>
      <point x="539" y="771" type="curve" smooth="yes"/>
      <point x="644" y="873"/>
      <point x="697" y="986"/>
      <point x="709" y="1110" type="curve" smooth="yes"/>
      <point x="730" y="1324"/>
      <point x="639" y="1445"/>
      <point x="428" y="1445" type="curve" smooth="yes"/>
      <point x="205" y="1445"/>
      <point x="109" y="1304"/>
      <point x="137" y="1096" type="curve"/>
      <point x="147" y="1001"/>
      <point x="177" y="897"/>
      <point x="220" y="793" type="curve"/>
      <point x="144" y="728"/>
      <point x="80" y="649"/>
      <point x="76" y="508" type="curve"/>
      <point x="73" y="439"/>
      <point x="72" y="397"/>
      <point x="75" y="317" type="curve" smooth="yes"/>
      <point x="84" y="79"/>
      <point x="183" y="-16"/>
    </contour>
    <contour>
      <point x="429" y="173" type="curve" smooth="yes"/>
      <point x="346" y="173"/>
      <point x="306" y="222"/>
      <point x="302" y="311" type="curve" smooth="yes"/>
      <point x="298" y="405"/>
      <point x="298" y="428"/>
      <point x="302" y="497" type="curve" smooth="yes"/>
      <point x="305" y="536"/>
      <point x="316" y="566"/>
      <point x="332" y="591" type="curve"/>
      <point x="397" y="481"/>
      <point x="470" y="374"/>
      <point x="546" y="273" type="curve"/>
      <point x="529" y="204"/>
      <point x="490" y="173"/>
    </contour>
    <contour>
      <point x="398" y="910" type="curve"/>
      <point x="368" y="991"/>
      <point x="347" y="1069"/>
      <point x="343" y="1135" type="curve" smooth="yes"/>
      <point x="339" y="1218"/>
      <point x="361" y="1286"/>
      <point x="428" y="1286" type="curve" smooth="yes"/>
      <point x="507" y="1286"/>
      <point x="526" y="1218"/>
      <point x="507" y="1110" type="curve"/>
      <point x="500" y="1052"/>
      <point x="476" y="984"/>
    </contour>
  </outline>
</glyph>
<glyph name="quotesingle" format="2">
  <advance width="377"/>
  <unicode hex="0027"/>
  <outline>
    <contour>
      <point x="252" y="949" type="line"/>
      <point x="306" y="1190" type="line"/>
      <point x="306" y="1428" type="line"/>
      <point x="71" y="1428" type="line"/>
      <point x="71" y="1190" type="line"/>
      <point x="125" y="949" type="line"/>
    </contour>
  </outline>
</glyph>
<glyph name="parenleft" format="2">
  <advance width="623"/>
  <unicode hex="0028"/>
  <outline>
    <contour>
      <point x="570" y="-356" type="line"/>
      <point x="387" y="-90"/>
      <point x="292" y="231"/>
      <point x="292" y="536" type="curve" smooth="yes"/>
      <point x="292" y="840"/>
      <point x="387" y="1159"/>
      <point x="570" y="1428" type="curve"/>
      <point x="397" y="1428" type="line"/>
      <point x="165" y="1221"/>
      <point x="53" y="862"/>
      <point x="53" y="544" type="curve" smooth="yes"/>
      <point x="53" y="185"/>
      <point x="180" y="-154"/>
      <point x="397" y="-356" type="curve"/>
    </contour>
  </outline>
</glyph>
<glyph name="parenright" format="2">
  <advance width="623"/>
  <unicode hex="0029"/>
  <outline>
    <contour>
      <point x="228" y="-356" type="line"/>
      <point x="445" y="-154"/>
      <point x="570" y="185"/>
      <point x="570" y="544" type="curve" smooth="yes"/>
      <point x="570" y="862"/>
      <point x="460" y="1221"/>
      <point x="228" y="1428" type="curve"/>
      <point x="53" y="1428" type="line"/>
      <point x="237" y="1159"/>
      <point x="332" y="840"/>
      <point x="332" y="536" type="curve" smooth="yes"/>
      <point x="332" y="231"/>
      <point x="237" y="-90"/>
      <point x="53" y="-356" type="curve"/>
    </contour>
  </outline>
</glyph>
<glyph name="asterisk" format="2">
  <advance width="938"/>
  <unicode hex="002A"/>
  <outline>
    <contour>
      <point x="96" y="1103" type="line"/>
      <point x="419" y="1174" type="line"/>
      <point x="403" y="1050" type="line"/>
      <point x="536" y="1050" type="line"/>
      <point x="517" y="1175" type="line"/>
      <point x="843" y="1103" type="line"/>
      <point x="907" y="1188" type="line"/>
      <point x="571" y="1242" type="line"/>
      <point x="907" y="1296" type="line"/>
      <point x="843" y="1382" type="line"/>
      <point x="517" y="1311" type="line"/>
      <point x="536" y="1435" type="line"/>
      <point x="403" y="1435" type="line"/>
      <point x="419" y="1309" type="line"/>
      <point x="96" y="1382" type="line"/>
      <point x="30" y="1296" type="line"/>
      <point x="370" y="1242" type="line"/>
      <point x="30" y="1188" type="line"/>
    </contour>
  </outline>
</glyph>
<glyph name="plus" format="2">
  <advance width="971"/>
  <unicode hex="002B"/>
  <outline>
    <contour>
      <point x="576" y="263" type="line"/>
      <point x="576" y="559" type="line"/>
      <point x="901" y="559" type="line"/>
      <point x="901" y="738" type="line"/>
      <point x="576" y="738" type="line"/>
      <point x="576" y="1034" type="line"/>
      <point x="398" y="1034" type="line"/>
      <point x="398" y="738" type="line"/>
      <point x="71" y="738" type="line"/>
      <point x="71" y="559" type="line"/>
      <point x="398" y="559" type="line"/>
      <point x="398" y="263" type="line"/>
    </contour>
  </outline>
</glyph>
<glyph name="comma" format="2">
  <advance width="377"/>
  <unicode hex="002C"/>
  <outline>
    <contour>
      <point x="189" y="-239" type="line"/>
      <point x="306" y="22" type="line"/>
      <point x="306" y="236" type="line"/>
      <point x="71" y="236" type="line"/>
      <point x="71" y="0" type="line"/>
      <point x="167" y="0" type="line"/>
      <point x="78" y="-239" type="line"/>
    </contour>
  </outline>
</glyph>
<glyph name="hyphen" format="2">
  <advance width="631"/>
  <unicode hex="002D"/>
  <outline>
    <contour>
      <point x="579" y="537" type="line"/>
      <point x="579" y="747" type="line"/>
      <point x="53" y="747" type="line"/>
      <point x="53" y="537" type="line"/>
    </contour>
  </outline>
</glyph>
<glyph name="period" format="2">
  <advance width="377"/>
  <unicode hex="002E"/>
  <outline>
    <contour>
      <point x="306" y="0" type="line"/>
      <point x="306" y="231" type="line"/>
      <point x="71" y="231" type="line"/>
      <point x="71" y="0" type="line"/>
    </contour>
  </outline>
</glyph>
<glyph name="slash" format="2">
  <advance width="909"/>
  <unicode hex="002F"/>
  <outline>
    <contour>
      <point x="287" y="-356" type="line"/>
      <point x="856" y="1428" type="line"/>
      <point x="622" y="1428" type="line"/>
      <point x="53" y="-356" type="line"/>
    </contour>
  </outline>
</glyph>
<glyph name="zero" format="2">
  <advance width="956"/>
  <unicode hex="0030"/>
  <outline>
    <contour>
      <point x="477" y="-16" type="curve" smooth="yes"/>
      <point x="729" y="-16"/>
      <point x="871" y="104"/>
      <point x="878" y="318" type="curve" smooth="yes"/>
      <point x="888" y="572"/>
      <point x="888" y="855"/>
      <point x="878" y="1112" type="curve" smooth="yes"/>
      <point x="871" y="1327"/>
      <point x="729" y="1445"/>
      <point x="477" y="1445" type="curve" smooth="yes"/>
      <point x="223" y="1445"/>
      <point x="80" y="1327"/>
      <point x="76" y="1112" type="curve" smooth="yes"/>
      <point x="69" y="856"/>
      <point x="69" y="574"/>
      <point x="76" y="318" type="curve" smooth="yes"/>
      <point x="80" y="104"/>
      <point x="223" y="-16"/>
    </contour>
    <contour>
      <point x="477" y="179" type="curve" smooth="yes"/>
      <point x="373" y="179"/>
      <point x="312" y="212"/>
      <point x="310" y="273" type="curve" smooth="yes"/>
      <point x="299" y="551"/>
      <point x="299" y="865"/>
      <point x="310" y="1156" type="curve" smooth="yes"/>
      <point x="312" y="1216"/>
      <point x="373" y="1250"/>
      <point x="477" y="1250" type="curve" smooth="yes"/>
      <point x="583" y="1250"/>
      <point x="641" y="1216"/>
      <point x="644" y="1156" type="curve" smooth="yes"/>
      <point x="657" y="881"/>
      <point x="658" y="567"/>
      <point x="644" y="273" type="curve"/>
      <point x="640" y="212"/>
      <point x="583" y="179"/>
    </contour>
  </outline>
</glyph>
<glyph name="one" format="2">
  <advance width="481"/>
  <unicode hex="0031"/>
  <outline>
    <contour>
      <point x="411" y="0" type="line"/>
      <point x="411" y="1428" type="line"/>
      <point x="222" y="1428" type="line"/>
      <point x="53" y="1298" type="line"/>
      <point x="63" y="1213" type="line"/>
      <point x="177" y="1213" type="line"/>
      <point x="177" y="0" type="line"/>
    </contour>
  </outline>
</glyph>
<glyph name="two" format="2">
  <advance width="903"/>
  <unicode hex="0032"/>
  <outline>
    <contour>
      <point x="833" y="0" type="line"/>
      <point x="833" y="211" type="line"/>
      <point x="312" y="211" type="line"/>
      <point x="312" y="289" type="line" smooth="yes"/>
      <point x="312" y="355"/>
      <point x="347" y="453"/>
      <point x="438" y="494" type="curve"/>
      <point x="576" y="568" type="line"/>
      <point x="751" y="656"/>
      <point x="837" y="771"/>
      <point x="847" y="947" type="curve" smooth="yes"/>
      <point x="851" y="1000"/>
      <point x="851" y="1062"/>
      <point x="847" y="1112" type="curve"/>
      <point x="835" y="1350"/>
      <point x="733" y="1445"/>
      <point x="456" y="1445" type="curve" smooth="yes"/>
      <point x="193" y="1445"/>
      <point x="84" y="1349"/>
      <point x="74" y="1112" type="curve"/>
      <point x="70" y="1055"/>
      <point x="74" y="970"/>
      <point x="78" y="901" type="curve"/>
      <point x="310" y="901" type="line"/>
      <point x="304" y="986"/>
      <point x="305" y="1070"/>
      <point x="308" y="1156" type="curve" smooth="yes"/>
      <point x="311" y="1217"/>
      <point x="355" y="1250"/>
      <point x="454" y="1250" type="curve" smooth="yes"/>
      <point x="561" y="1250"/>
      <point x="606" y="1217"/>
      <point x="611" y="1156" type="curve" smooth="yes"/>
      <point x="617" y="1086"/>
      <point x="617" y="1015"/>
      <point x="611" y="946" type="curve"/>
      <point x="607" y="893"/>
      <point x="591" y="820"/>
      <point x="491" y="774" type="curve"/>
      <point x="366" y="710" type="line"/>
      <point x="189" y="614"/>
      <point x="81" y="486"/>
      <point x="76" y="289" type="curve" smooth="yes"/>
      <point x="72" y="170"/>
      <point x="74" y="131"/>
      <point x="78" y="0" type="curve"/>
    </contour>
  </outline>
</glyph>
<glyph name="three" format="2">
  <advance width="942"/>
  <unicode hex="0033"/>
  <outline>
    <contour>
      <point x="467" y="-16" type="curve" smooth="yes"/>
      <point x="736" y="-16"/>
      <point x="848" y="79"/>
      <point x="860" y="318" type="curve"/>
      <point x="865" y="378"/>
      <point x="865" y="434"/>
      <point x="860" y="505" type="curve"/>
      <point x="850" y="722"/>
      <point x="752" y="823"/>
      <point x="517" y="840" type="curve"/>
      <point x="858" y="1225" type="line"/>
      <point x="861" y="1428" type="line"/>
      <point x="70" y="1428" type="line"/>
      <point x="70" y="1217" type="line"/>
      <point x="592" y="1217" type="line"/>
      <point x="261" y="833" type="line"/>
      <point x="268" y="633" type="line"/>
      <point x="437" y="635" type="line" smooth="yes"/>
      <point x="580" y="636"/>
      <point x="621" y="580"/>
      <point x="626" y="503" type="curve"/>
      <point x="630" y="443"/>
      <point x="630" y="353"/>
      <point x="626" y="287" type="curve"/>
      <point x="624" y="216"/>
      <point x="571" y="179"/>
      <point x="462" y="179" type="curve" smooth="yes"/>
      <point x="350" y="179"/>
      <point x="295" y="216"/>
      <point x="295" y="287" type="curve" smooth="yes"/>
      <point x="295" y="478" type="line"/>
      <point x="60" y="478" type="line"/>
      <point x="57" y="409"/>
      <point x="57" y="381"/>
      <point x="60" y="318" type="curve"/>
      <point x="68" y="79"/>
      <point x="185" y="-16"/>
    </contour>
  </outline>
</glyph>
<glyph name="four" format="2">
  <advance width="932"/>
  <unicode hex="0034"/>
  <outline>
    <contour>
      <point x="740" y="0" type="line"/>
      <point x="740" y="374" type="line"/>
      <point x="915" y="374" type="line"/>
      <point x="915" y="584" type="line"/>
      <point x="740" y="584" type="line"/>
      <point x="740" y="1428" type="line"/>
      <point x="418" y="1428" type="line"/>
      <point x="53" y="573" type="line"/>
      <point x="53" y="374" type="line"/>
      <point x="519" y="374" type="line"/>
      <point x="519" y="0" type="line"/>
    </contour>
    <contour>
      <point x="411" y="923" type="line"/>
      <point x="524" y="1217" type="line"/>
      <point x="575" y="1217" type="line"/>
      <point x="548" y="923" type="line"/>
      <point x="519" y="584" type="line"/>
      <point x="280" y="584" type="line"/>
    </contour>
  </outline>
</glyph>
<glyph name="five" format="2">
  <advance width="930"/>
  <unicode hex="0035"/>
  <outline>
    <contour>
      <point x="471" y="-16" type="curve" smooth="yes"/>
      <point x="733" y="-16"/>
      <point x="832" y="79"/>
      <point x="853" y="318" type="curve"/>
      <point x="862" y="406"/>
      <point x="863" y="513"/>
      <point x="855" y="619" type="curve"/>
      <point x="845" y="797"/>
      <point x="761" y="908"/>
      <point x="583" y="908" type="curve" smooth="yes"/>
      <point x="481" y="908"/>
      <point x="405" y="864"/>
      <point x="372" y="810" type="curve"/>
      <point x="331" y="810" type="line"/>
      <point x="331" y="1217" type="line"/>
      <point x="834" y="1217" type="line"/>
      <point x="834" y="1428" type="line"/>
      <point x="96" y="1428" type="line"/>
      <point x="96" y="613" type="line"/>
      <point x="319" y="613" type="line"/>
      <point x="320" y="674"/>
      <point x="381" y="710"/>
      <point x="478" y="710" type="curve" smooth="yes"/>
      <point x="570" y="710"/>
      <point x="615" y="677"/>
      <point x="621" y="614" type="curve" smooth="yes"/>
      <point x="630" y="512"/>
      <point x="628" y="401"/>
      <point x="618" y="287" type="curve" smooth="yes"/>
      <point x="612" y="216"/>
      <point x="567" y="179"/>
      <point x="463" y="179" type="curve" smooth="yes"/>
      <point x="360" y="179"/>
      <point x="313" y="216"/>
      <point x="307" y="287" type="curve"/>
      <point x="301" y="333"/>
      <point x="302" y="423"/>
      <point x="308" y="478" type="curve"/>
      <point x="74" y="478" type="line"/>
      <point x="69" y="424"/>
      <point x="70" y="383"/>
      <point x="73" y="318" type="curve"/>
      <point x="81" y="79"/>
      <point x="194" y="-16"/>
    </contour>
  </outline>
</glyph>
<glyph name="six" format="2">
  <advance width="944"/>
  <unicode hex="0036"/>
  <outline>
    <contour>
      <point x="472" y="-16" type="curve" smooth="yes"/>
      <point x="756" y="-16"/>
      <point x="868" y="78"/>
      <point x="881" y="318" type="curve"/>
      <point x="888" y="404"/>
      <point x="887" y="495"/>
      <point x="882" y="603" type="curve"/>
      <point x="876" y="809"/>
      <point x="805" y="891"/>
      <point x="589" y="891" type="curve" smooth="yes"/>
      <point x="481" y="891"/>
      <point x="389" y="849"/>
      <point x="353" y="793" type="curve"/>
      <point x="304" y="793" type="line"/>
      <point x="304" y="930"/>
      <point x="308" y="1053"/>
      <point x="312" y="1155" type="curve" smooth="yes"/>
      <point x="315" y="1217"/>
      <point x="366" y="1250"/>
      <point x="472" y="1250" type="curve" smooth="yes"/>
      <point x="587" y="1250"/>
      <point x="633" y="1213"/>
      <point x="637" y="1155" type="curve" smooth="yes"/>
      <point x="642" y="1073"/>
      <point x="642" y="1039"/>
      <point x="637" y="986" type="curve"/>
      <point x="868" y="986" type="line"/>
      <point x="872" y="1027"/>
      <point x="873" y="1077"/>
      <point x="871" y="1111" type="curve"/>
      <point x="862" y="1331"/>
      <point x="728" y="1445"/>
      <point x="469" y="1445" type="curve" smooth="yes"/>
      <point x="223" y="1445"/>
      <point x="86" y="1339"/>
      <point x="77" y="1111" type="curve"/>
      <point x="68" y="983"/>
      <point x="72" y="647"/>
      <point x="77" y="318" type="curve" smooth="yes"/>
      <point x="79" y="78"/>
      <point x="193" y="-16"/>
    </contour>
    <contour>
      <point x="474" y="178" type="curve" smooth="yes"/>
      <point x="366" y="178"/>
      <point x="314" y="211"/>
      <point x="312" y="274" type="curve" smooth="yes"/>
      <point x="307" y="388"/>
      <point x="306" y="497"/>
      <point x="304" y="599" type="curve"/>
      <point x="308" y="660"/>
      <point x="382" y="693"/>
      <point x="491" y="693" type="curve" smooth="yes"/>
      <point x="593" y="693"/>
      <point x="644" y="660"/>
      <point x="648" y="598" type="curve" smooth="yes"/>
      <point x="652" y="505"/>
      <point x="651" y="396"/>
      <point x="646" y="274" type="curve" smooth="yes"/>
      <point x="643" y="211"/>
      <point x="588" y="178"/>
    </contour>
  </outline>
</glyph>
<glyph name="seven" format="2">
  <advance width="883"/>
  <unicode hex="0037"/>
  <outline>
    <contour>
      <point x="384" y="0" type="line"/>
      <point x="830" y="1213" type="line"/>
      <point x="830" y="1428" type="line"/>
      <point x="35" y="1428" type="line"/>
      <point x="35" y="1217" type="line"/>
      <point x="595" y="1217" type="line"/>
      <point x="142" y="0" type="line"/>
    </contour>
  </outline>
</glyph>
<glyph name="eight" format="2">
  <advance width="961"/>
  <unicode hex="0038"/>
  <outline>
    <contour>
      <point x="480" y="-16" type="curve" smooth="yes"/>
      <point x="759" y="-16"/>
      <point x="878" y="79"/>
      <point x="889" y="318" type="curve"/>
      <point x="895" y="367"/>
      <point x="895" y="417"/>
      <point x="887" y="477" type="curve"/>
      <point x="871" y="600"/>
      <point x="812" y="668"/>
      <point x="705" y="708" type="curve"/>
      <point x="705" y="746" type="line"/>
      <point x="795" y="771"/>
      <point x="858" y="826"/>
      <point x="873" y="912" type="curve"/>
      <point x="885" y="968"/>
      <point x="888" y="1062"/>
      <point x="883" y="1111" type="curve"/>
      <point x="869" y="1349"/>
      <point x="755" y="1445"/>
      <point x="480" y="1445" type="curve" smooth="yes"/>
      <point x="205" y="1445"/>
      <point x="90" y="1349"/>
      <point x="78" y="1111" type="curve"/>
      <point x="72" y="1062"/>
      <point x="75" y="968"/>
      <point x="87" y="912" type="curve"/>
      <point x="102" y="826"/>
      <point x="165" y="771"/>
      <point x="256" y="746" type="curve"/>
      <point x="256" y="710" type="line"/>
      <point x="139" y="670"/>
      <point x="85" y="602"/>
      <point x="74" y="477" type="curve"/>
      <point x="68" y="417"/>
      <point x="66" y="367"/>
      <point x="71" y="318" type="curve"/>
      <point x="83" y="79"/>
      <point x="201" y="-16"/>
    </contour>
    <contour>
      <point x="480" y="179" type="curve" smooth="yes"/>
      <point x="361" y="179"/>
      <point x="307" y="216"/>
      <point x="305" y="287" type="curve" smooth="yes"/>
      <point x="302" y="360"/>
      <point x="302" y="430"/>
      <point x="305" y="502" type="curve" smooth="yes"/>
      <point x="307" y="574"/>
      <point x="361" y="612"/>
      <point x="480" y="612" type="curve" smooth="yes"/>
      <point x="600" y="612"/>
      <point x="652" y="574"/>
      <point x="655" y="502" type="curve"/>
      <point x="660" y="430"/>
      <point x="660" y="360"/>
      <point x="655" y="287" type="curve"/>
      <point x="655" y="216"/>
      <point x="603" y="179"/>
    </contour>
    <contour>
      <point x="480" y="839" type="curve" smooth="yes"/>
      <point x="361" y="839"/>
      <point x="307" y="877"/>
      <point x="305" y="949" type="curve" smooth="yes"/>
      <point x="302" y="1014"/>
      <point x="302" y="1077"/>
      <point x="305" y="1141" type="curve" smooth="yes"/>
      <point x="307" y="1213"/>
      <point x="361" y="1250"/>
      <point x="480" y="1250" type="curve" smooth="yes"/>
      <point x="603" y="1250"/>
      <point x="652" y="1213"/>
      <point x="655" y="1141" type="curve"/>
      <point x="660" y="1077"/>
      <point x="657" y="1014"/>
      <point x="655" y="949" type="curve" smooth="yes"/>
      <point x="654" y="877"/>
      <point x="600" y="839"/>
    </contour>
  </outline>
</glyph>
<glyph name="nine" format="2">
  <advance width="944"/>
  <unicode hex="0039"/>
  <outline>
    <contour>
      <point x="480" y="-16" type="curve" smooth="yes"/>
      <point x="745" y="-16"/>
      <point x="860" y="78"/>
      <point x="866" y="316" type="curve" smooth="yes"/>
      <point x="873" y="577"/>
      <point x="875" y="814"/>
      <point x="866" y="1110" type="curve" smooth="yes"/>
      <point x="860" y="1349"/>
      <point x="751" y="1445"/>
      <point x="471" y="1445" type="curve" smooth="yes"/>
      <point x="189" y="1445"/>
      <point x="68" y="1349"/>
      <point x="62" y="1110" type="curve" smooth="yes"/>
      <point x="58" y="1019"/>
      <point x="59" y="925"/>
      <point x="61" y="838" type="curve" smooth="yes"/>
      <point x="64" y="621"/>
      <point x="198" y="534"/>
      <point x="375" y="534" type="curve" smooth="yes"/>
      <point x="484" y="534"/>
      <point x="565" y="577"/>
      <point x="599" y="632" type="curve"/>
      <point x="642" y="632" type="line"/>
      <point x="641" y="492"/>
      <point x="638" y="367"/>
      <point x="632" y="273" type="curve" smooth="yes"/>
      <point x="628" y="211"/>
      <point x="583" y="178"/>
      <point x="477" y="178" type="curve" smooth="yes"/>
      <point x="364" y="178"/>
      <point x="325" y="214"/>
      <point x="321" y="273" type="curve"/>
      <point x="317" y="339"/>
      <point x="318" y="388"/>
      <point x="321" y="442" type="curve"/>
      <point x="88" y="442" type="line"/>
      <point x="86" y="402"/>
      <point x="85" y="350"/>
      <point x="86" y="316" type="curve" smooth="yes"/>
      <point x="88" y="78"/>
      <point x="203" y="-16"/>
    </contour>
    <contour>
      <point x="460" y="732" type="curve" smooth="yes"/>
      <point x="359" y="732"/>
      <point x="298" y="765"/>
      <point x="295" y="828" type="curve" smooth="yes"/>
      <point x="291" y="946"/>
      <point x="295" y="1047"/>
      <point x="297" y="1153" type="curve" smooth="yes"/>
      <point x="298" y="1217"/>
      <point x="356" y="1250"/>
      <point x="470" y="1250" type="curve" smooth="yes"/>
      <point x="576" y="1250"/>
      <point x="630" y="1217"/>
      <point x="632" y="1153" type="curve" smooth="yes"/>
      <point x="636" y="1039"/>
      <point x="640" y="925"/>
      <point x="642" y="816" type="curve"/>
      <point x="632" y="762"/>
      <point x="564" y="732"/>
    </contour>
  </outline>
</glyph>
<glyph name="colon" format="2">
  <advance width="377"/>
  <unicode hex="003A"/>
  <outline>
    <contour>
      <point x="306" y="536" type="line"/>
      <point x="306" y="766" type="line"/>
      <point x="71" y="766" type="line"/>
      <point x="71" y="536" type="line"/>
    </contour>
    <contour>
      <point x="306" y="0" type="line"/>
      <point x="306" y="231" type="line"/>
      <point x="71" y="231" type="line"/>
      <point x="71" y="0" type="line"/>
    </contour>
  </outline>
</glyph>
<glyph name="semicolon" format="2">
  <advance width="377"/>
  <unicode hex="003B"/>
  <outline>
    <contour>
      <point x="189" y="-239" type="line"/>
      <point x="306" y="22" type="line"/>
      <point x="306" y="236" type="line"/>
      <point x="71" y="236" type="line"/>
      <point x="71" y="0" type="line"/>
      <point x="167" y="0" type="line"/>
      <point x="78" y="-239" type="line"/>
    </contour>
    <contour>
      <point x="306" y="537" type="line"/>
      <point x="306" y="767" type="line"/>
      <point x="71" y="767" type="line"/>
      <point x="71" y="537" type="line"/>
    </contour>
  </outline>
</glyph>
<glyph name="less" format="2">
  <advance width="745"/>
  <unicode hex="003C"/>
  <outline>
    <contour>
      <point x="674" y="389" type="line"/>
      <point x="674" y="584" type="line"/>
      <point x="424" y="623" type="line"/>
      <point x="240" y="630" type="line"/>
      <point x="240" y="678" type="line"/>
      <point x="425" y="684" type="line"/>
      <point x="674" y="726" type="line"/>
      <point x="674" y="920" type="line"/>
      <point x="71" y="796" type="line"/>
      <point x="71" y="510" type="line"/>
    </contour>
  </outline>
</glyph>
<glyph name="equal" format="2">
  <advance width="956"/>
  <unicode hex="003D"/>
  <outline>
    <contour>
      <point x="885" y="719" type="line"/>
      <point x="885" y="898" type="line"/>
      <point x="71" y="898" type="line"/>
      <point x="71" y="719" type="line"/>
    </contour>
    <contour>
      <point x="885" y="402" type="line"/>
      <point x="885" y="581" type="line"/>
      <point x="71" y="581" type="line"/>
      <point x="71" y="402" type="line"/>
    </contour>
  </outline>
</glyph>
<glyph name="greater" format="2">
  <advance width="745"/>
  <unicode hex="003E"/>
  <outline>
    <contour>
      <point x="674" y="510" type="line"/>
      <point x="674" y="796" type="line"/>
      <point x="71" y="920" type="line"/>
      <point x="71" y="726" type="line"/>
      <point x="320" y="684" type="line"/>
      <point x="506" y="678" type="line"/>
      <point x="506" y="630" type="line"/>
      <point x="321" y="623" type="line"/>
      <point x="71" y="584" type="line"/>
      <point x="71" y="389" type="line"/>
    </contour>
  </outline>
</glyph>
<glyph name="question" format="2">
  <advance width="868"/>
  <unicode hex="003F"/>
  <outline>
    <contour>
      <point x="490" y="373" type="line"/>
      <point x="499" y="486" type="line"/>
      <point x="503" y="532"/>
      <point x="506" y="581"/>
      <point x="570" y="608" type="curve"/>
      <point x="620" y="629" type="line"/>
      <point x="725" y="663"/>
      <point x="811" y="698"/>
      <point x="815" y="950" type="curve" smooth="yes"/>
      <point x="816" y="1000"/>
      <point x="814" y="1039"/>
      <point x="814" y="1114" type="curve" smooth="yes"/>
      <point x="814" y="1352"/>
      <point x="703" y="1446"/>
      <point x="428" y="1446" type="curve" smooth="yes"/>
      <point x="172" y="1446"/>
      <point x="66" y="1351"/>
      <point x="56" y="1113" type="curve" smooth="yes"/>
      <point x="52" y="1034"/>
      <point x="55" y="961"/>
      <point x="57" y="902" type="curve"/>
      <point x="284" y="902" type="line"/>
      <point x="280" y="983"/>
      <point x="280" y="1067"/>
      <point x="286" y="1157" type="curve" smooth="yes"/>
      <point x="291" y="1218"/>
      <point x="336" y="1252"/>
      <point x="430" y="1252" type="curve" smooth="yes"/>
      <point x="531" y="1252"/>
      <point x="580" y="1218"/>
      <point x="580" y="1157" type="curve" smooth="yes"/>
      <point x="580" y="950" type="line" smooth="yes"/>
      <point x="580" y="879"/>
      <point x="574" y="820"/>
      <point x="509" y="795" type="curve"/>
      <point x="463" y="777" type="line"/>
      <point x="332" y="706"/>
      <point x="300" y="634"/>
      <point x="307" y="486" type="curve"/>
      <point x="314" y="373" type="line"/>
    </contour>
    <contour>
      <point x="562" y="0" type="line"/>
      <point x="562" y="231" type="line"/>
      <point x="241" y="231" type="line"/>
      <point x="241" y="0" type="line"/>
    </contour>
  </outline>
</glyph>
<glyph name="at" format="2">
  <advance width="1194"/>
  <unicode hex="0040"/>
  <outline>
    <contour>
      <point x="597" y="-272" type="curve" smooth="yes"/>
      <point x="961" y="-272"/>
      <point x="1107" y="-170"/>
      <point x="1109" y="102" type="curve"/>
      <point x="1109" y="109"/>
      <point x="1109" y="115"/>
      <point x="1107" y="126" type="curve"/>
      <point x="928" y="126" type="line"/>
      <point x="929" y="116"/>
      <point x="929" y="110"/>
      <point x="929" y="102" type="curve"/>
      <point x="928" y="-55"/>
      <point x="832" y="-114"/>
      <point x="597" y="-114" type="curve" smooth="yes"/>
      <point x="359" y="-114"/>
      <point x="264" y="-54"/>
      <point x="259" y="102" type="curve" smooth="yes"/>
      <point x="250" y="377"/>
      <point x="250" y="663"/>
      <point x="259" y="948" type="curve" smooth="yes"/>
      <point x="264" y="1117"/>
      <point x="357" y="1184"/>
      <point x="597" y="1184" type="curve" smooth="yes"/>
      <point x="839" y="1184"/>
      <point x="930" y="1114"/>
      <point x="938" y="948" type="curve" smooth="yes"/>
      <point x="947" y="729"/>
      <point x="944" y="500"/>
      <point x="936" y="365" type="curve" smooth="yes"/>
      <point x="933" y="321"/>
      <point x="914" y="298"/>
      <point x="885" y="298" type="curve" smooth="yes"/>
      <point x="851" y="298"/>
      <point x="831" y="321"/>
      <point x="831" y="363" type="curve" smooth="yes"/>
      <point x="831" y="902" type="line"/>
      <point x="650" y="902" type="line"/>
      <point x="650" y="824" type="line"/>
      <point x="625" y="824" type="line"/>
      <point x="594" y="885"/>
      <point x="568" y="914"/>
      <point x="503" y="914" type="curve" smooth="yes"/>
      <point x="410" y="914"/>
      <point x="360" y="856"/>
      <point x="352" y="712" type="curve" smooth="yes"/>
      <point x="347" y="629"/>
      <point x="344" y="482"/>
      <point x="352" y="379" type="curve" smooth="yes"/>
      <point x="362" y="232"/>
      <point x="407" y="176"/>
      <point x="500" y="176" type="curve" smooth="yes"/>
      <point x="570" y="176"/>
      <point x="596" y="211"/>
      <point x="626" y="265" type="curve"/>
      <point x="664" y="265" type="line"/>
      <point x="688" y="213"/>
      <point x="747" y="178"/>
      <point x="885" y="178" type="curve" smooth="yes"/>
      <point x="1027" y="178"/>
      <point x="1114" y="238"/>
      <point x="1119" y="358" type="curve" smooth="yes"/>
      <point x="1125" y="545"/>
      <point x="1126" y="714"/>
      <point x="1119" y="937" type="curve" smooth="yes"/>
      <point x="1110" y="1226"/>
      <point x="956" y="1341"/>
      <point x="597" y="1341" type="curve" smooth="yes"/>
      <point x="231" y="1341"/>
      <point x="80" y="1226"/>
      <point x="75" y="938" type="curve" smooth="yes"/>
      <point x="69" y="625"/>
      <point x="69" y="395"/>
      <point x="75" y="113" type="curve" smooth="yes"/>
      <point x="80" y="-161"/>
      <point x="231" y="-272"/>
    </contour>
    <contour>
      <point x="577" y="308" type="curve" smooth="yes"/>
      <point x="548" y="308"/>
      <point x="537" y="322"/>
      <point x="535" y="361" type="curve" smooth="yes"/>
      <point x="528" y="503"/>
      <point x="526" y="600"/>
      <point x="533" y="729" type="curve" smooth="yes"/>
      <point x="535" y="761"/>
      <point x="547" y="781"/>
      <point x="577" y="781" type="curve"/>
      <point x="597" y="781"/>
      <point x="637" y="761"/>
      <point x="650" y="730" type="curve"/>
      <point x="650" y="359" type="line"/>
      <point x="639" y="331"/>
      <point x="601" y="308"/>
    </contour>
  </outline>
</glyph>
<glyph name="A" format="2">
  <advance width="924"/>
  <unicode hex="0041"/>
  <anchor x="464" y="0" name="bottom"/>
  <anchor x="734" y="1" name="ogonek"/>
  <anchor x="464" y="1428" name="top"/>
  <outline>
    <contour>
      <point x="258" y="0" type="line"/>
      <point x="310" y="320" type="line"/>
      <point x="616" y="320" type="line"/>
      <point x="667" y="0" type="line"/>
      <point x="907" y="0" type="line"/>
      <point x="665" y="1428" type="line"/>
      <point x="259" y="1428" type="line"/>
      <point x="17" y="0" type="line"/>
    </contour>
    <contour>
      <point x="375" y="847" type="line"/>
      <point x="427" y="1216" type="line"/>
      <point x="499" y="1216" type="line"/>
      <point x="551" y="847" type="line"/>
      <point x="594" y="532" type="line"/>
      <point x="331" y="532" type="line"/>
    </contour>
  </outline>
</glyph>
<glyph name="B" format="2">
  <advance width="952"/>
  <unicode hex="0042"/>
  <outline>
    <contour>
      <point x="459" y="0" type="line" smooth="yes"/>
      <point x="759" y="0"/>
      <point x="883" y="95"/>
      <point x="893" y="327" type="curve"/>
      <point x="898" y="380"/>
      <point x="898" y="419"/>
      <point x="893" y="471" type="curve"/>
      <point x="888" y="599"/>
      <point x="829" y="670"/>
      <point x="697" y="703" type="curve"/>
      <point x="697" y="744" type="line"/>
      <point x="825" y="777"/>
      <point x="883" y="847"/>
      <point x="891" y="971" type="curve"/>
      <point x="895" y="1012"/>
      <point x="895" y="1052"/>
      <point x="892" y="1101" type="curve"/>
      <point x="888" y="1334"/>
      <point x="759" y="1428"/>
      <point x="458" y="1428" type="curve" smooth="yes"/>
      <point x="71" y="1428" type="line"/>
      <point x="71" y="0" type="line"/>
    </contour>
    <contour>
      <point x="305" y="619" type="line"/>
      <point x="449" y="619" type="line" smooth="yes"/>
      <point x="596" y="619"/>
      <point x="656" y="576"/>
      <point x="659" y="460" type="curve"/>
      <point x="663" y="415"/>
      <point x="663" y="375"/>
      <point x="659" y="330" type="curve"/>
      <point x="656" y="253"/>
      <point x="592" y="212"/>
      <point x="459" y="212" type="curve" smooth="yes"/>
      <point x="305" y="212" type="line"/>
    </contour>
    <contour>
      <point x="305" y="1216" type="line"/>
      <point x="458" y="1216" type="line" smooth="yes"/>
      <point x="591" y="1216"/>
      <point x="653" y="1180"/>
      <point x="657" y="1114" type="curve"/>
      <point x="663" y="1067"/>
      <point x="663" y="1025"/>
      <point x="657" y="978" type="curve"/>
      <point x="653" y="883"/>
      <point x="591" y="831"/>
      <point x="457" y="831" type="curve" smooth="yes"/>
      <point x="305" y="831" type="line"/>
    </contour>
  </outline>
</glyph>
<glyph name="C" format="2">
  <advance width="954"/>
  <unicode hex="0043"/>
  <anchor x="469" y="0" name="bottom"/>
  <anchor x="469" y="1428" name="top"/>
  <outline>
    <contour>
      <point x="477" y="-16" type="curve" smooth="yes"/>
      <point x="769" y="-16"/>
      <point x="889" y="79"/>
      <point x="898" y="319" type="curve"/>
      <point x="902" y="385"/>
      <point x="901" y="467"/>
      <point x="897" y="532" type="curve"/>
      <point x="662" y="532" type="line"/>
      <point x="665" y="461"/>
      <point x="667" y="346"/>
      <point x="664" y="275" type="curve" smooth="yes"/>
      <point x="661" y="212"/>
      <point x="606" y="180"/>
      <point x="477" y="180" type="curve" smooth="yes"/>
      <point x="359" y="180"/>
      <point x="308" y="212"/>
      <point x="304" y="275" type="curve" smooth="yes"/>
      <point x="293" y="543"/>
      <point x="293" y="886"/>
      <point x="304" y="1154" type="curve" smooth="yes"/>
      <point x="308" y="1216"/>
      <point x="359" y="1248"/>
      <point x="476" y="1248" type="curve" smooth="yes"/>
      <point x="598" y="1248"/>
      <point x="651" y="1216"/>
      <point x="653" y="1154" type="curve" smooth="yes"/>
      <point x="656" y="1084"/>
      <point x="654" y="970"/>
      <point x="652" y="900" type="curve"/>
      <point x="886" y="900" type="line"/>
      <point x="888" y="961"/>
      <point x="891" y="1050"/>
      <point x="888" y="1110" type="curve" smooth="yes"/>
      <point x="880" y="1349"/>
      <point x="760" y="1445"/>
      <point x="476" y="1445" type="curve" smooth="yes"/>
      <point x="193" y="1445"/>
      <point x="75" y="1318"/>
      <point x="70" y="1112" type="curve" smooth="yes"/>
      <point x="61" y="886"/>
      <point x="61" y="543"/>
      <point x="70" y="319" type="curve" smooth="yes"/>
      <point x="76" y="79"/>
      <point x="187" y="-16"/>
    </contour>
  </outline>
</glyph>
<glyph name="D" format="2">
  <advance width="961"/>
  <unicode hex="0044"/>
  <anchor x="456" y="0" name="bottom"/>
  <anchor x="486" y="714" name="center"/>
  <anchor x="471" y="1428" name="top"/>
  <outline>
    <contour>
      <point x="473" y="0" type="line" smooth="yes"/>
      <point x="767" y="0"/>
      <point x="889" y="99"/>
      <point x="894" y="344" type="curve" smooth="yes"/>
      <point x="902" y="610"/>
      <point x="902" y="821"/>
      <point x="894" y="1086" type="curve" smooth="yes"/>
      <point x="889" y="1329"/>
      <point x="767" y="1428"/>
      <point x="475" y="1428" type="curve" smooth="yes"/>
      <point x="71" y="1428" type="line"/>
      <point x="71" y="0" type="line"/>
    </contour>
    <contour>
      <point x="305" y="1216" type="line"/>
      <point x="475" y="1216" type="line" smooth="yes"/>
      <point x="599" y="1216"/>
      <point x="658" y="1180"/>
      <point x="660" y="1114" type="curve" smooth="yes"/>
      <point x="669" y="847"/>
      <point x="669" y="582"/>
      <point x="660" y="316" type="curve" smooth="yes"/>
      <point x="658" y="249"/>
      <point x="599" y="212"/>
      <point x="473" y="212" type="curve" smooth="yes"/>
      <point x="305" y="212" type="line"/>
    </contour>
  </outline>
</glyph>
<glyph name="E" format="2">
  <advance width="809"/>
  <unicode hex="0045"/>
  <anchor x="408" y="0" name="bottom"/>
  <anchor x="541" y="8" name="ogonek"/>
  <anchor x="406" y="1428" name="top"/>
  <anchor x="7" y="1428" name="topleft"/>
  <outline>
    <contour>
      <point x="770" y="0" type="line"/>
      <point x="770" y="212" type="line"/>
      <point x="305" y="212" type="line"/>
      <point x="305" y="619" type="line"/>
      <point x="743" y="619" type="line"/>
      <point x="743" y="831" type="line"/>
      <point x="305" y="831" type="line"/>
      <point x="305" y="1216" type="line"/>
      <point x="770" y="1216" type="line"/>
      <point x="770" y="1428" type="line"/>
      <point x="71" y="1428" type="line"/>
      <point x="71" y="0" type="line"/>
    </contour>
  </outline>
</glyph>
<glyph name="F" format="2">
  <advance width="772"/>
  <unicode hex="0046"/>
  <outline>
    <contour>
      <point x="305" y="0" type="line"/>
      <point x="305" y="619" type="line"/>
      <point x="712" y="619" type="line"/>
      <point x="712" y="831" type="line"/>
      <point x="305" y="831" type="line"/>
      <point x="305" y="1216" type="line"/>
      <point x="736" y="1216" type="line"/>
      <point x="736" y="1428" type="line"/>
      <point x="71" y="1428" type="line"/>
      <point x="71" y="0" type="line"/>
    </contour>
  </outline>
</glyph>
<glyph name="G" format="2">
  <advance width="961"/>
  <unicode hex="0047"/>
  <anchor x="473" y="0" name="bottom"/>
  <anchor x="473" y="1428" name="top"/>
  <outline>
    <contour>
      <point x="484" y="-16" type="curve" smooth="yes"/>
      <point x="769" y="-16"/>
      <point x="889" y="79"/>
      <point x="899" y="320" type="curve" smooth="yes"/>
      <point x="907" y="439"/>
      <point x="906" y="575"/>
      <point x="901" y="680" type="curve"/>
      <point x="493" y="680" type="line"/>
      <point x="493" y="471" type="line"/>
      <point x="672" y="471" type="line"/>
      <point x="675" y="420"/>
      <point x="675" y="327"/>
      <point x="672" y="275" type="curve"/>
      <point x="665" y="213"/>
      <point x="605" y="180"/>
      <point x="484" y="180" type="curve" smooth="yes"/>
      <point x="362" y="180"/>
      <point x="308" y="213"/>
      <point x="305" y="275" type="curve" smooth="yes"/>
      <point x="292" y="542"/>
      <point x="291" y="887"/>
      <point x="305" y="1155" type="curve" smooth="yes"/>
      <point x="308" y="1216"/>
      <point x="364" y="1249"/>
      <point x="483" y="1249" type="curve" smooth="yes"/>
      <point x="595" y="1249"/>
      <point x="651" y="1216"/>
      <point x="656" y="1155" type="curve" smooth="yes"/>
      <point x="663" y="1083"/>
      <point x="661" y="972"/>
      <point x="656" y="900" type="curve"/>
      <point x="890" y="900" type="line"/>
      <point x="895" y="962"/>
      <point x="897" y="1048"/>
      <point x="890" y="1110" type="curve"/>
      <point x="877" y="1349"/>
      <point x="759" y="1445"/>
      <point x="483" y="1445" type="curve" smooth="yes"/>
      <point x="194" y="1445"/>
      <point x="79" y="1349"/>
      <point x="71" y="1096" type="curve" smooth="yes"/>
      <point x="61" y="880"/>
      <point x="61" y="542"/>
      <point x="71" y="320" type="curve" smooth="yes"/>
      <point x="79" y="79"/>
      <point x="190" y="-16"/>
    </contour>
  </outline>
</glyph>
<glyph name="H" format="2">
  <advance width="973"/>
  <unicode hex="0048"/>
  <anchor x="487" y="0" name="bottom"/>
  <anchor x="487" y="714" name="center"/>
  <anchor x="487" y="1428" name="top"/>
  <anchor x="13" y="1428" name="topleft"/>
  <outline>
    <contour>
      <point x="305" y="0" type="line"/>
      <point x="305" y="619" type="line"/>
      <point x="668" y="619" type="line"/>
      <point x="668" y="0" type="line"/>
      <point x="902" y="0" type="line"/>
      <point x="902" y="1428" type="line"/>
      <point x="668" y="1428" type="line"/>
      <point x="668" y="831" type="line"/>
      <point x="305" y="831" type="line"/>
      <point x="305" y="1428" type="line"/>
      <point x="71" y="1428" type="line"/>
      <point x="71" y="0" type="line"/>
    </contour>
  </outline>
</glyph>
<glyph name="I" format="2">
  <advance width="430"/>
  <unicode hex="0049"/>
  <anchor x="217" y="0" name="bottom"/>
  <anchor x="191" y="0" name="ogonek"/>
  <anchor x="217" y="1428" name="top"/>
  <anchor x="-30" y="1428" name="topleft"/>
  <outline>
    <contour>
      <point x="332" y="0" type="line"/>
      <point x="332" y="1428" type="line"/>
      <point x="98" y="1428" type="line"/>
      <point x="98" y="0" type="line"/>
    </contour>
  </outline>
</glyph>
<glyph name="J" format="2">
  <advance width="889"/>
  <unicode hex="004A"/>
  <anchor x="436" y="-15" name="bottom"/>
  <anchor x="504" y="1428" name="top"/>
  <outline>
    <contour>
      <point x="430" y="-16" type="curve" smooth="yes"/>
      <point x="725" y="-16"/>
      <point x="834" y="79"/>
      <point x="834" y="320" type="curve" smooth="yes"/>
      <point x="834" y="1428" type="line"/>
      <point x="600" y="1428" type="line"/>
      <point x="600" y="275" type="line" smooth="yes"/>
      <point x="600" y="213"/>
      <point x="551" y="180"/>
      <point x="430" y="180" type="curve" smooth="yes"/>
      <point x="308" y="180"/>
      <point x="259" y="213"/>
      <point x="254" y="275" type="curve" smooth="yes"/>
      <point x="249" y="346"/>
      <point x="249" y="462"/>
      <point x="254" y="533" type="curve"/>
      <point x="32" y="533" type="line"/>
      <point x="29" y="467"/>
      <point x="29" y="385"/>
      <point x="32" y="320" type="curve" smooth="yes"/>
      <point x="40" y="79"/>
      <point x="141" y="-16"/>
    </contour>
  </outline>
</glyph>
<glyph name="K" format="2">
  <advance width="883"/>
  <unicode hex="004B"/>
  <anchor x="468" y="0" name="bottom"/>
  <anchor x="461" y="1428" name="top"/>
  <outline>
    <contour>
      <point x="311" y="0" type="line"/>
      <point x="311" y="353" type="line"/>
      <point x="415" y="564" type="line"/>
      <point x="629" y="0" type="line"/>
      <point x="869" y="0" type="line"/>
      <point x="570" y="832" type="line"/>
      <point x="848" y="1428" type="line"/>
      <point x="591" y="1428" type="line"/>
      <point x="451" y="1089" type="line"/>
      <point x="326" y="756" type="line"/>
      <point x="278" y="756" type="line"/>
      <point x="317" y="1083" type="line"/>
      <point x="320" y="1428" type="line"/>
      <point x="71" y="1428" type="line"/>
      <point x="71" y="0" type="line"/>
    </contour>
  </outline>
</glyph>
<glyph name="L" format="2">
  <advance width="754"/>
  <unicode hex="004C"/>
  <anchor x="402" y="0" name="bottom"/>
  <anchor x="635" y="748" name="center"/>
  <anchor x="393" y="1428" name="top"/>
  <anchor x="434" y="1115" name="topright"/>
  <outline>
    <contour>
      <point x="728" y="0" type="line"/>
      <point x="728" y="212" type="line"/>
      <point x="305" y="212" type="line"/>
      <point x="305" y="1428" type="line"/>
      <point x="71" y="1428" type="line"/>
      <point x="71" y="0" type="line"/>
    </contour>
  </outline>
</glyph>
<glyph name="M" format="2">
  <advance width="1133"/>
  <unicode hex="004D"/>
  <anchor x="568" y="0" name="bottom"/>
  <anchor x="568" y="1428" name="top"/>
  <outline>
    <contour>
      <point x="305" y="0" type="line"/>
      <point x="305" y="435" type="line"/>
      <point x="262" y="1216" type="line"/>
      <point x="298" y="1216" type="line"/>
      <point x="353" y="420" type="line"/>
      <point x="445" y="2" type="line"/>
      <point x="690" y="2" type="line"/>
      <point x="783" y="420" type="line"/>
      <point x="835" y="1216" type="line"/>
      <point x="874" y="1216" type="line"/>
      <point x="828" y="435" type="line"/>
      <point x="828" y="0" type="line"/>
      <point x="1063" y="0" type="line"/>
      <point x="1063" y="1428" type="line"/>
      <point x="693" y="1428" type="line"/>
      <point x="596" y="879" type="line"/>
      <point x="586" y="213" type="line"/>
      <point x="549" y="213" type="line"/>
      <point x="538" y="879" type="line"/>
      <point x="442" y="1428" type="line"/>
      <point x="71" y="1428" type="line"/>
      <point x="71" y="0" type="line"/>
    </contour>
  </outline>
</glyph>
<glyph name="N" format="2">
  <advance width="981"/>
  <unicode hex="004E"/>
  <anchor x="491" y="0" name="bottom"/>
  <anchor x="496" y="1428" name="top"/>
  <outline>
    <contour>
      <point x="298" y="0" type="line"/>
      <point x="279" y="546" type="line"/>
      <point x="240" y="1217" type="line"/>
      <point x="297" y="1217" type="line"/>
      <point x="411" y="476" type="line"/>
      <point x="534" y="0" type="line"/>
      <point x="910" y="0" type="line"/>
      <point x="910" y="1428" type="line"/>
      <point x="683" y="1428" type="line"/>
      <point x="700" y="835" type="line"/>
      <point x="743" y="212" type="line"/>
      <point x="688" y="212" type="line"/>
      <point x="548" y="973" type="line"/>
      <point x="432" y="1428" type="line"/>
      <point x="71" y="1428" type="line"/>
      <point x="71" y="0" type="line"/>
    </contour>
  </outline>
</glyph>
<glyph name="O" format="2">
  <advance width="977"/>
  <unicode hex="004F"/>
  <anchor x="492" y="0" name="bottom"/>
  <anchor x="492" y="714" name="center"/>
  <anchor x="644" y="8" name="ogonek"/>
  <anchor x="492" y="1428" name="top"/>
  <anchor x="6" y="1428" name="topleft"/>
  <anchor x="770" y="1735" name="topright"/>
  <outline>
    <contour>
      <point x="489" y="-16" type="curve" smooth="yes"/>
      <point x="785" y="-16"/>
      <point x="902" y="79"/>
      <point x="909" y="319" type="curve" smooth="yes"/>
      <point x="918" y="572"/>
      <point x="918" y="854"/>
      <point x="909" y="1110" type="curve" smooth="yes"/>
      <point x="902" y="1349"/>
      <point x="785" y="1445"/>
      <point x="489" y="1445" type="curve" smooth="yes"/>
      <point x="194" y="1445"/>
      <point x="76" y="1349"/>
      <point x="69" y="1110" type="curve" smooth="yes"/>
      <point x="59" y="857"/>
      <point x="59" y="572"/>
      <point x="69" y="319" type="curve" smooth="yes"/>
      <point x="76" y="79"/>
      <point x="194" y="-16"/>
    </contour>
    <contour>
      <point x="489" y="180" type="curve" smooth="yes"/>
      <point x="362" y="180"/>
      <point x="307" y="212"/>
      <point x="303" y="274" type="curve" smooth="yes"/>
      <point x="290" y="537"/>
      <point x="287" y="894"/>
      <point x="303" y="1155" type="curve" smooth="yes"/>
      <point x="307" y="1217"/>
      <point x="362" y="1249"/>
      <point x="489" y="1249" type="curve" smooth="yes"/>
      <point x="617" y="1249"/>
      <point x="672" y="1217"/>
      <point x="675" y="1155" type="curve" smooth="yes"/>
      <point x="688" y="894"/>
      <point x="690" y="537"/>
      <point x="675" y="274" type="curve" smooth="yes"/>
      <point x="672" y="212"/>
      <point x="620" y="180"/>
    </contour>
  </outline>
</glyph>
<glyph name="P" format="2">
  <advance width="922"/>
  <unicode hex="0050"/>
  <outline>
    <contour>
      <point x="305" y="0" type="line"/>
      <point x="305" y="473" type="line"/>
      <point x="455" y="473" type="line" smooth="yes"/>
      <point x="747" y="473"/>
      <point x="866" y="567"/>
      <point x="878" y="799" type="curve"/>
      <point x="887" y="905"/>
      <point x="887" y="990"/>
      <point x="878" y="1101" type="curve"/>
      <point x="866" y="1334"/>
      <point x="747" y="1428"/>
      <point x="458" y="1428" type="curve" smooth="yes"/>
      <point x="71" y="1428" type="line"/>
      <point x="71" y="0" type="line"/>
    </contour>
    <contour>
      <point x="305" y="1216" type="line"/>
      <point x="458" y="1216" type="line" smooth="yes"/>
      <point x="584" y="1216"/>
      <point x="638" y="1180"/>
      <point x="643" y="1114" type="curve" smooth="yes"/>
      <point x="652" y="1017"/>
      <point x="652" y="884"/>
      <point x="643" y="786" type="curve" smooth="yes"/>
      <point x="638" y="721"/>
      <point x="584" y="685"/>
      <point x="455" y="685" type="curve" smooth="yes"/>
      <point x="305" y="685" type="line"/>
    </contour>
  </outline>
</glyph>
<glyph name="Q" format="2">
  <advance width="1008"/>
  <unicode hex="0051"/>
  <outline>
    <contour>
      <point x="899" y="-18" type="line"/>
      <point x="795" y="-25"/>
      <point x="741" y="-9"/>
      <point x="723" y="31" type="curve"/>
      <point x="872" y="82"/>
      <point x="936" y="173"/>
      <point x="940" y="319" type="curve" smooth="yes"/>
      <point x="949" y="572"/>
      <point x="949" y="854"/>
      <point x="940" y="1110" type="curve" smooth="yes"/>
      <point x="933" y="1349"/>
      <point x="812" y="1445"/>
      <point x="505" y="1445" type="curve" smooth="yes"/>
      <point x="199" y="1445"/>
      <point x="77" y="1349"/>
      <point x="70" y="1110" type="curve" smooth="yes"/>
      <point x="59" y="857"/>
      <point x="59" y="572"/>
      <point x="70" y="319" type="curve" smooth="yes"/>
      <point x="77" y="79"/>
      <point x="199" y="-16"/>
      <point x="504" y="-16" type="curve"/>
      <point x="542" y="-168"/>
      <point x="662" y="-226"/>
      <point x="899" y="-211" type="curve"/>
    </contour>
    <contour>
      <point x="505" y="180" type="curve" smooth="yes"/>
      <point x="366" y="180"/>
      <point x="308" y="212"/>
      <point x="304" y="274" type="curve" smooth="yes"/>
      <point x="290" y="537"/>
      <point x="287" y="894"/>
      <point x="304" y="1155" type="curve" smooth="yes"/>
      <point x="308" y="1217"/>
      <point x="366" y="1249"/>
      <point x="505" y="1249" type="curve" smooth="yes"/>
      <point x="647" y="1249"/>
      <point x="702" y="1217"/>
      <point x="706" y="1155" type="curve" smooth="yes"/>
      <point x="719" y="894"/>
      <point x="722" y="537"/>
      <point x="706" y="274" type="curve" smooth="yes"/>
      <point x="702" y="212"/>
      <point x="647" y="180"/>
    </contour>
  </outline>
</glyph>
<glyph name="R" format="2">
  <advance width="944"/>
  <unicode hex="0052"/>
  <anchor x="484" y="0" name="bottom"/>
  <anchor x="442" y="1428" name="top"/>
  <outline>
    <contour>
      <point x="305" y="0" type="line"/>
      <point x="305" y="494" type="line"/>
      <point x="455" y="494" type="line"/>
      <point x="661" y="0" type="line"/>
      <point x="911" y="0" type="line"/>
      <point x="678" y="534" type="line"/>
      <point x="805" y="582"/>
      <point x="863" y="672"/>
      <point x="870" y="820" type="curve"/>
      <point x="878" y="926"/>
      <point x="879" y="990"/>
      <point x="870" y="1101" type="curve"/>
      <point x="859" y="1334"/>
      <point x="740" y="1428"/>
      <point x="454" y="1428" type="curve" smooth="yes"/>
      <point x="71" y="1428" type="line"/>
      <point x="71" y="0" type="line"/>
    </contour>
    <contour>
      <point x="305" y="1216" type="line"/>
      <point x="454" y="1216" type="line" smooth="yes"/>
      <point x="577" y="1216"/>
      <point x="630" y="1180"/>
      <point x="636" y="1114" type="curve" smooth="yes"/>
      <point x="644" y="1017"/>
      <point x="644" y="905"/>
      <point x="636" y="807" type="curve" smooth="yes"/>
      <point x="630" y="741"/>
      <point x="577" y="706"/>
      <point x="451" y="706" type="curve" smooth="yes"/>
      <point x="305" y="706" type="line"/>
    </contour>
  </outline>
</glyph>
<glyph name="S" format="2">
  <advance width="936"/>
  <unicode hex="0053"/>
  <anchor x="467" y="0" name="bottom"/>
  <anchor x="467" y="1428" name="top"/>
  <outline>
    <contour>
      <point x="470" y="-16" type="curve" smooth="yes"/>
      <point x="760" y="-16"/>
      <point x="876" y="79"/>
      <point x="887" y="320" type="curve"/>
      <point x="891" y="371"/>
      <point x="893" y="418"/>
      <point x="889" y="472" type="curve"/>
      <point x="880" y="651"/>
      <point x="823" y="762"/>
      <point x="580" y="807" type="curve" smooth="yes"/>
      <point x="427" y="836" type="line"/>
      <point x="314" y="851"/>
      <point x="289" y="895"/>
      <point x="283" y="954" type="curve" smooth="yes"/>
      <point x="275" y="1020"/>
      <point x="274" y="1088"/>
      <point x="283" y="1155" type="curve" smooth="yes"/>
      <point x="291" y="1216"/>
      <point x="341" y="1249"/>
      <point x="468" y="1249" type="curve" smooth="yes"/>
      <point x="588" y="1249"/>
      <point x="646" y="1216"/>
      <point x="651" y="1155" type="curve" smooth="yes"/>
      <point x="656" y="1069"/>
      <point x="655" y="985"/>
      <point x="649" y="900" type="curve"/>
      <point x="875" y="900" type="line"/>
      <point x="879" y="971"/>
      <point x="882" y="1056"/>
      <point x="878" y="1110" type="curve"/>
      <point x="868" y="1349"/>
      <point x="751" y="1445"/>
      <point x="469" y="1445" type="curve" smooth="yes"/>
      <point x="169" y="1445"/>
      <point x="56" y="1349"/>
      <point x="48" y="1110" type="curve" smooth="yes"/>
      <point x="45" y="1059"/>
      <point x="44" y="1010"/>
      <point x="47" y="954" type="curve" smooth="yes"/>
      <point x="55" y="778"/>
      <point x="112" y="672"/>
      <point x="348" y="627" type="curve"/>
      <point x="514" y="592" type="line"/>
      <point x="621" y="577"/>
      <point x="646" y="529"/>
      <point x="653" y="472" type="curve" smooth="yes"/>
      <point x="660" y="402"/>
      <point x="662" y="344"/>
      <point x="653" y="275" type="curve" smooth="yes"/>
      <point x="645" y="213"/>
      <point x="595" y="180"/>
      <point x="469" y="180" type="curve" smooth="yes"/>
      <point x="341" y="180"/>
      <point x="287" y="213"/>
      <point x="281" y="275" type="curve"/>
      <point x="272" y="351"/>
      <point x="273" y="441"/>
      <point x="281" y="533" type="curve"/>
      <point x="57" y="533" type="line"/>
      <point x="49" y="465"/>
      <point x="47" y="387"/>
      <point x="52" y="320" type="curve"/>
      <point x="62" y="79"/>
      <point x="177" y="-16"/>
    </contour>
  </outline>
</glyph>
<glyph name="T" format="2">
  <advance width="799"/>
  <unicode hex="0054"/>
  <anchor x="400" y="0" name="bottom"/>
  <anchor x="401" y="641" name="center"/>
  <anchor x="401" y="1428" name="top"/>
  <outline>
    <contour>
      <point x="517" y="0" type="line"/>
      <point x="517" y="1216" type="line"/>
      <point x="788" y="1216" type="line"/>
      <point x="788" y="1428" type="line"/>
      <point x="11" y="1428" type="line"/>
      <point x="11" y="1216" type="line"/>
      <point x="283" y="1216" type="line"/>
      <point x="283" y="0" type="line"/>
    </contour>
  </outline>
</glyph>
<glyph name="U" format="2">
  <advance width="971"/>
  <unicode hex="0055"/>
  <anchor x="487" y="0" name="bottom"/>
  <anchor x="645" y="8" name="ogonek"/>
  <anchor x="487" y="1428" name="top"/>
  <anchor x="871" y="1735" name="topright"/>
  <outline>
    <contour>
      <point x="487" y="-16" type="curve" smooth="yes"/>
      <point x="785" y="-16"/>
      <point x="908" y="79"/>
      <point x="910" y="319" type="curve" smooth="yes"/>
      <point x="918" y="686"/>
      <point x="918" y="1062"/>
      <point x="910" y="1428" type="curve"/>
      <point x="676" y="1428" type="line"/>
      <point x="684" y="1062"/>
      <point x="682" y="641"/>
      <point x="676" y="274" type="curve" smooth="yes"/>
      <point x="676" y="213"/>
      <point x="617" y="180"/>
      <point x="487" y="180" type="curve" smooth="yes"/>
      <point x="357" y="180"/>
      <point x="293" y="213"/>
      <point x="293" y="274" type="curve" smooth="yes"/>
      <point x="287" y="641"/>
      <point x="287" y="1062"/>
      <point x="296" y="1428" type="curve"/>
      <point x="62" y="1428" type="line"/>
      <point x="54" y="1062"/>
      <point x="54" y="686"/>
      <point x="62" y="319" type="curve" smooth="yes"/>
      <point x="64" y="79"/>
      <point x="185" y="-16"/>
    </contour>
  </outline>
</glyph>
<glyph name="V" format="2">
  <advance width="911"/>
  <unicode hex="0056"/>
  <outline>
    <contour>
      <point x="659" y="0" type="line"/>
      <point x="894" y="1428" type="line"/>
      <point x="650" y="1428" type="line"/>
      <point x="529" y="698" type="line"/>
      <point x="489" y="212" type="line"/>
      <point x="421" y="212" type="line"/>
      <point x="381" y="698" type="line"/>
      <point x="262" y="1428" type="line"/>
      <point x="17" y="1428" type="line"/>
      <point x="253" y="0" type="line"/>
    </contour>
  </outline>
</glyph>
<glyph name="W" format="2">
  <advance width="1286"/>
  <unicode hex="0057"/>
  <anchor x="644" y="0" name="bottom"/>
  <anchor x="644" y="1428" name="top"/>
  <outline>
    <contour>
      <point x="539" y="0" type="line"/>
      <point x="598" y="412" type="line"/>
      <point x="622" y="1214" type="line"/>
      <point x="665" y="1214" type="line"/>
      <point x="687" y="412" type="line"/>
      <point x="747" y="0" type="line"/>
      <point x="1133" y="0" type="line"/>
      <point x="1256" y="1428" type="line"/>
      <point x="1021" y="1428" type="line"/>
      <point x="979" y="796" type="line"/>
      <point x="952" y="212" type="line"/>
      <point x="907" y="212" type="line"/>
      <point x="905" y="796" type="line"/>
      <point x="797" y="1418" type="line"/>
      <point x="490" y="1418" type="line"/>
      <point x="382" y="796" type="line" name=".hr01"/>
      <point x="379" y="212" type="line"/>
      <point x="335" y="212" type="line"/>
      <point x="308" y="796" type="line"/>
      <point x="266" y="1428" type="line"/>
      <point x="30" y="1428" type="line"/>
      <point x="154" y="0" type="line"/>
    </contour>
  </outline>
</glyph>
<glyph name="X" format="2">
  <advance width="901"/>
  <unicode hex="0058"/>
  <outline>
    <contour>
      <point x="248" y="0" type="line"/>
      <point x="362" y="353" type="line"/>
      <point x="426" y="624" type="line"/>
      <point x="478" y="624" type="line"/>
      <point x="541" y="353" type="line"/>
      <point x="653" y="0" type="line"/>
      <point x="881" y="0" type="line"/>
      <point x="628" y="732" type="line"/>
      <point x="871" y="1428" type="line"/>
      <point x="643" y="1428" type="line"/>
      <point x="538" y="1093" type="line"/>
      <point x="478" y="836" type="line"/>
      <point x="426" y="836" type="line"/>
      <point x="365" y="1093" type="line"/>
      <point x="259" y="1428" type="line"/>
      <point x="31" y="1428" type="line"/>
      <point x="281" y="740" type="line"/>
      <point x="20" y="0" type="line"/>
    </contour>
  </outline>
</glyph>
<glyph name="Y" format="2">
  <advance width="907"/>
  <unicode hex="0059"/>
  <anchor x="456" y="0" name="bottom"/>
  <anchor x="445" y="1428" name="top"/>
  <anchor x="13" y="1428" name="topleft"/>
  <outline>
    <contour>
      <point x="571" y="0" type="line"/>
      <point x="571" y="346" type="line"/>
      <point x="571" y="348" type="line"/>
      <point x="894" y="1428" type="line"/>
      <point x="653" y="1428" type="line"/>
      <point x="545" y="1071" type="line"/>
      <point x="482" y="654" type="line"/>
      <point x="427" y="654" type="line"/>
      <point x="362" y="1071" type="line"/>
      <point x="254" y="1428" type="line"/>
      <point x="13" y="1428" type="line"/>
      <point x="335" y="348" type="line"/>
      <point x="335" y="346" type="line"/>
      <point x="335" y="0" type="line"/>
    </contour>
  </outline>
</glyph>
<glyph name="Z" format="2">
  <advance width="799"/>
  <unicode hex="005A"/>
  <anchor x="397" y="0" name="bottom"/>
  <anchor x="397" y="714" name="center"/>
  <anchor x="397" y="1428" name="top"/>
  <outline>
    <contour>
      <point x="728" y="0" type="line"/>
      <point x="728" y="212" type="line"/>
      <point x="267" y="212" type="line"/>
      <point x="769" y="1223" type="line"/>
      <point x="769" y="1428" type="line"/>
      <point x="59" y="1428" type="line"/>
      <point x="59" y="1216" type="line"/>
      <point x="518" y="1216" type="line"/>
      <point x="30" y="201" type="line"/>
      <point x="30" y="0" type="line"/>
    </contour>
  </outline>
</glyph>
<glyph name="bracketleft" format="2">
  <advance width="602"/>
  <unicode hex="005B"/>
  <outline>
    <contour>
      <point x="550" y="-356" type="line"/>
      <point x="550" y="-243" type="line"/>
      <point x="305" y="-243" type="line"/>
      <point x="305" y="1314" type="line"/>
      <point x="550" y="1314" type="line"/>
      <point x="550" y="1428" type="line"/>
      <point x="71" y="1428" type="line"/>
      <point x="71" y="-356" type="line"/>
    </contour>
  </outline>
</glyph>
<glyph name="backslash" format="2">
  <advance width="909"/>
  <unicode hex="005C"/>
  <outline>
    <contour>
      <point x="856" y="-356" type="line"/>
      <point x="287" y="1428" type="line"/>
      <point x="53" y="1428" type="line"/>
      <point x="622" y="-356" type="line"/>
    </contour>
  </outline>
</glyph>
<glyph name="bracketright" format="2">
  <advance width="602"/>
  <unicode hex="005D"/>
  <outline>
    <contour>
      <point x="550" y="-356" type="line"/>
      <point x="550" y="1428" type="line"/>
      <point x="71" y="1428" type="line"/>
      <point x="71" y="1314" type="line"/>
      <point x="316" y="1314" type="line"/>
      <point x="316" y="-243" type="line"/>
      <point x="71" y="-243" type="line"/>
      <point x="71" y="-356" type="line"/>
    </contour>
  </outline>
</glyph>
<glyph name="asciicircum" format="2">
  <advance width="854"/>
  <unicode hex="005E"/>
  <outline>
    <contour>
      <point x="232" y="780" type="line"/>
      <point x="428" y="1073" type="line"/>
      <point x="625" y="780" type="line"/>
      <point x="783" y="780" type="line"/>
      <point x="508" y="1230" type="line"/>
      <point x="348" y="1230" type="line"/>
      <point x="71" y="780" type="line"/>
    </contour>
  </outline>
</glyph>
<glyph name="underscore" format="2">
  <advance width="809"/>
  <unicode hex="005F"/>
  <outline>
    <contour>
      <point x="756" y="-106" type="line"/>
      <point x="756" y="-71" type="line"/>
      <point x="53" y="-71" type="line"/>
      <point x="53" y="-106" type="line"/>
    </contour>
  </outline>
</glyph>
<glyph name="grave" format="2">
  <advance width="836"/>
  <unicode hex="0060"/>
  <outline>
    <contour>
      <point x="717" y="1142" type="line"/>
      <point x="336" y="1382" type="line"/>
      <point x="118" y="1382" type="line"/>
      <point x="504" y="1142" type="line"/>
    </contour>
  </outline>
</glyph>
<glyph name="a" format="2">
  <advance width="815"/>
  <unicode hex="0061"/>
  <anchor x="401" y="0" name="bottom"/>
  <anchor x="594" y="5" name="ogonek"/>
  <anchor x="415" y="973" name="top"/>
  <outline>
    <contour>
      <point x="299" y="-12" type="curve" smooth="yes"/>
      <point x="403" y="-12"/>
      <point x="453" y="24"/>
      <point x="494" y="105" type="curve"/>
      <point x="526" y="105" type="line"/>
      <point x="526" y="0" type="line" name=".hr01"/>
      <point x="744" y="0" type="line"/>
      <point x="745" y="670" type="line" smooth="yes"/>
      <point x="746" y="896"/>
      <point x="667" y="989"/>
      <point x="416" y="989" type="curve" smooth="yes"/>
      <point x="175" y="989"/>
      <point x="87" y="904"/>
      <point x="79" y="708" type="curve"/>
      <point x="76" y="673"/>
      <point x="79" y="611"/>
      <point x="81" y="600" type="curve"/>
      <point x="295" y="600" type="line"/>
      <point x="293" y="629"/>
      <point x="293" y="713"/>
      <point x="295" y="736" type="curve" smooth="yes"/>
      <point x="299" y="788"/>
      <point x="331" y="810"/>
      <point x="410" y="810" type="curve" smooth="yes"/>
      <point x="500" y="810"/>
      <point x="528" y="780"/>
      <point x="528" y="728" type="curve" smooth="yes"/>
      <point x="528" y="602" type="line"/>
      <point x="455" y="587"/>
      <point x="386" y="574"/>
      <point x="317" y="553" type="curve"/>
      <point x="125" y="490"/>
      <point x="61" y="425"/>
      <point x="50" y="292" type="curve"/>
      <point x="47" y="272"/>
      <point x="48" y="240"/>
      <point x="50" y="221" type="curve" smooth="yes"/>
      <point x="65" y="50"/>
      <point x="136" y="-12"/>
    </contour>
    <contour>
      <point x="383" y="161" type="curve" smooth="yes"/>
      <point x="315" y="161"/>
      <point x="274" y="188"/>
      <point x="267" y="240" type="curve"/>
      <point x="264" y="256"/>
      <point x="264" y="271"/>
      <point x="266" y="292" type="curve"/>
      <point x="270" y="344"/>
      <point x="290" y="388"/>
      <point x="370" y="415" type="curve"/>
      <point x="425" y="428"/>
      <point x="475" y="439"/>
      <point x="527" y="447" type="curve"/>
      <point x="527" y="225" type="line"/>
      <point x="499" y="187"/>
      <point x="451" y="161"/>
    </contour>
  </outline>
</glyph>
<glyph name="b" format="2">
  <advance width="838"/>
  <unicode hex="0062"/>
  <outline>
    <contour>
      <point x="530" y="-15" type="curve" smooth="yes"/>
      <point x="682" y="-15"/>
      <point x="769" y="62"/>
      <point x="777" y="258" type="curve" smooth="yes"/>
      <point x="783" y="361"/>
      <point x="783" y="613"/>
      <point x="777" y="716" type="curve" smooth="yes"/>
      <point x="769" y="913"/>
      <point x="696" y="989"/>
      <point x="544" y="989" type="curve" smooth="yes"/>
      <point x="431" y="989"/>
      <point x="384" y="947"/>
      <point x="334" y="869" type="curve"/>
      <point x="293" y="869" type="line"/>
      <point x="293" y="1298" type="line"/>
      <point x="73" y="1298" type="line"/>
      <point x="73" y="0" type="line" name=".hr01"/>
      <point x="293" y="0" type="line"/>
      <point x="293" y="105" type="line"/>
      <point x="321" y="105" type="line"/>
      <point x="370" y="28"/>
      <point x="417" y="-15"/>
    </contour>
    <contour>
      <point x="455" y="161" type="curve" smooth="yes"/>
      <point x="386" y="161"/>
      <point x="320" y="188"/>
      <point x="293" y="230" type="curve"/>
      <point x="293" y="744" type="line"/>
      <point x="320" y="786"/>
      <point x="386" y="814"/>
      <point x="455" y="814" type="curve" smooth="yes"/>
      <point x="526" y="814"/>
      <point x="554" y="789"/>
      <point x="558" y="737" type="curve" smooth="yes"/>
      <point x="567" y="595"/>
      <point x="567" y="364"/>
      <point x="558" y="237" type="curve" smooth="yes"/>
      <point x="554" y="185"/>
      <point x="526" y="161"/>
    </contour>
  </outline>
</glyph>
<glyph name="c" format="2">
  <advance width="817"/>
  <unicode hex="0063"/>
  <anchor x="407" y="0" name="bottom"/>
  <anchor x="417" y="973" name="top"/>
  <outline>
    <contour>
      <point x="764" y="600" type="line"/>
      <point x="768" y="611"/>
      <point x="768" y="673"/>
      <point x="766" y="708" type="curve" smooth="yes"/>
      <point x="759" y="909"/>
      <point x="659" y="989"/>
      <point x="417" y="989" type="curve" smooth="yes"/>
      <point x="177" y="989"/>
      <point x="75" y="908"/>
      <point x="63" y="698" type="curve"/>
      <point x="55" y="616"/>
      <point x="57" y="346"/>
      <point x="63" y="272" type="curve"/>
      <point x="74" y="67"/>
      <point x="175" y="-15"/>
      <point x="420" y="-15" type="curve" smooth="yes"/>
      <point x="659" y="-15"/>
      <point x="757" y="67"/>
      <point x="766" y="272" type="curve"/>
      <point x="769" y="308"/>
      <point x="768" y="367"/>
      <point x="764" y="378" type="curve"/>
      <point x="551" y="378" type="line"/>
      <point x="553" y="321"/>
      <point x="553" y="272"/>
      <point x="552" y="247" type="curve" smooth="yes"/>
      <point x="549" y="187"/>
      <point x="512" y="164"/>
      <point x="420" y="164" type="curve" smooth="yes"/>
      <point x="324" y="164"/>
      <point x="285" y="187"/>
      <point x="283" y="247" type="curve" smooth="yes"/>
      <point x="276" y="398"/>
      <point x="276" y="581"/>
      <point x="283" y="736" type="curve" smooth="yes"/>
      <point x="285" y="788"/>
      <point x="323" y="810"/>
      <point x="417" y="810" type="curve" smooth="yes"/>
      <point x="510" y="810"/>
      <point x="549" y="788"/>
      <point x="552" y="736" type="curve" smooth="yes"/>
      <point x="553" y="713"/>
      <point x="553" y="629"/>
      <point x="551" y="600" type="curve"/>
    </contour>
  </outline>
</glyph>
<glyph name="d" format="2">
  <advance width="836"/>
  <unicode hex="0064"/>
  <anchor x="440" y="0" name="bottom"/>
  <anchor x="412" y="487" name="center"/>
  <anchor x="369" y="1298" name="top"/>
  <anchor x="787" y="1007" name="topright"/>
  <outline>
    <contour>
      <point x="299" y="-15" type="curve" smooth="yes"/>
      <point x="411" y="-15"/>
      <point x="461" y="28"/>
      <point x="510" y="105" type="curve"/>
      <point x="545" y="105" type="line"/>
      <point x="545" y="0" type="line" name=".hr01"/>
      <point x="764" y="0" type="line"/>
      <point x="764" y="1298" type="line"/>
      <point x="545" y="1298" type="line"/>
      <point x="545" y="869" type="line"/>
      <point x="510" y="869" type="line"/>
      <point x="462" y="947"/>
      <point x="415" y="989"/>
      <point x="303" y="989" type="curve" smooth="yes"/>
      <point x="152" y="989"/>
      <point x="71" y="913"/>
      <point x="63" y="716" type="curve"/>
      <point x="56" y="613"/>
      <point x="56" y="361"/>
      <point x="63" y="258" type="curve"/>
      <point x="71" y="62"/>
      <point x="149" y="-15"/>
    </contour>
    <contour>
      <point x="384" y="161" type="curve" smooth="yes"/>
      <point x="314" y="161"/>
      <point x="286" y="185"/>
      <point x="282" y="237" type="curve" smooth="yes"/>
      <point x="274" y="364"/>
      <point x="273" y="595"/>
      <point x="282" y="737" type="curve" smooth="yes"/>
      <point x="285" y="789"/>
      <point x="315" y="814"/>
      <point x="385" y="814" type="curve" smooth="yes"/>
      <point x="453" y="814"/>
      <point x="518" y="786"/>
      <point x="545" y="744" type="curve"/>
      <point x="545" y="230" type="line"/>
      <point x="518" y="188"/>
      <point x="453" y="161"/>
    </contour>
  </outline>
</glyph>
<glyph name="e" format="2">
  <advance width="819"/>
  <unicode hex="0065"/>
  <anchor x="417" y="0" name="bottom"/>
  <anchor x="576" y="16" name="ogonek"/>
  <anchor x="417" y="973" name="top"/>
  <outline>
    <contour>
      <point x="423" y="-15" type="curve" smooth="yes"/>
      <point x="663" y="-15"/>
      <point x="757" y="67"/>
      <point x="767" y="272" type="curve"/>
      <point x="770" y="308"/>
      <point x="769" y="367"/>
      <point x="766" y="378" type="curve"/>
      <point x="553" y="378" type="line"/>
      <point x="554" y="321"/>
      <point x="554" y="272"/>
      <point x="553" y="247" type="curve"/>
      <point x="548" y="187"/>
      <point x="514" y="164"/>
      <point x="422" y="164" type="curve" smooth="yes"/>
      <point x="325" y="164"/>
      <point x="284" y="187"/>
      <point x="283" y="247" type="curve"/>
      <point x="280" y="308"/>
      <point x="279" y="376"/>
      <point x="279" y="447" type="curve"/>
      <point x="766" y="447" type="line"/>
      <point x="775" y="538"/>
      <point x="770" y="673"/>
      <point x="767" y="708" type="curve"/>
      <point x="757" y="909"/>
      <point x="658" y="989"/>
      <point x="421" y="989" type="curve" smooth="yes"/>
      <point x="179" y="989"/>
      <point x="75" y="908"/>
      <point x="63" y="698" type="curve"/>
      <point x="55" y="616"/>
      <point x="57" y="346"/>
      <point x="63" y="272" type="curve"/>
      <point x="74" y="67"/>
      <point x="175" y="-15"/>
    </contour>
    <contour>
      <point x="279" y="613" type="line"/>
      <point x="280" y="655"/>
      <point x="281" y="697"/>
      <point x="283" y="736" type="curve"/>
      <point x="285" y="788"/>
      <point x="324" y="810"/>
      <point x="421" y="810" type="curve" smooth="yes"/>
      <point x="511" y="810"/>
      <point x="548" y="788"/>
      <point x="553" y="736" type="curve"/>
      <point x="555" y="726"/>
      <point x="555" y="672"/>
      <point x="554" y="613" type="curve"/>
    </contour>
  </outline>
</glyph>
<glyph name="f" format="2">
  <advance width="528"/>
  <unicode hex="0066"/>
  <outline>
    <contour>
      <point x="328" y="0" type="line"/>
      <point x="328" y="792" type="line"/>
      <point x="507" y="792" type="line"/>
      <point x="507" y="973" type="line"/>
      <point x="328" y="973" type="line"/>
      <point x="328" y="1047" type="line" smooth="yes"/>
      <point x="328" y="1100"/>
      <point x="360" y="1129"/>
      <point x="426" y="1129" type="curve" smooth="yes"/>
      <point x="467" y="1129"/>
      <point x="509" y="1129"/>
      <point x="547" y="1129" type="curve"/>
      <point x="547" y="1304" type="line"/>
      <point x="509" y="1311"/>
      <point x="462" y="1315"/>
      <point x="424" y="1315" type="curve" smooth="yes"/>
      <point x="208" y="1315"/>
      <point x="108" y="1234"/>
      <point x="108" y="1028" type="curve" smooth="yes"/>
      <point x="108" y="973" type="line"/>
      <point x="0" y="973" type="line"/>
      <point x="0" y="792" type="line"/>
      <point x="108" y="792" type="line"/>
      <point x="108" y="0" type="line"/>
    </contour>
  </outline>
</glyph>
<glyph name="g" format="2">
  <advance width="836"/>
  <unicode hex="0067"/>
  <anchor x="392" y="-324" name="bottom"/>
  <anchor x="381" y="973" name="top"/>
  <outline>
    <contour>
      <point x="381" y="-327" type="curve" smooth="yes"/>
      <point x="600" y="-327"/>
      <point x="720" y="-259"/>
      <point x="735" y="-121" type="curve" smooth="yes"/>
      <point x="738" y="-90"/>
      <point x="738" y="-67"/>
      <point x="735" y="-44" type="curve" smooth="yes"/>
      <point x="716" y="85"/>
      <point x="611" y="158"/>
      <point x="379" y="161" type="curve" smooth="yes"/>
      <point x="248" y="163"/>
      <point x="232" y="172"/>
      <point x="231" y="204" type="curve"/>
      <point x="231" y="209" type="line" smooth="yes"/>
      <point x="231" y="240"/>
      <point x="268" y="253"/>
      <point x="380" y="253" type="curve" smooth="yes"/>
      <point x="610" y="253"/>
      <point x="695" y="333"/>
      <point x="708" y="546" type="curve"/>
      <point x="712" y="599"/>
      <point x="710" y="623"/>
      <point x="710" y="664" type="curve"/>
      <point x="710" y="710" type="line"/>
      <point x="712" y="773"/>
      <point x="746" y="792"/>
      <point x="805" y="792" type="curve" smooth="yes"/>
      <point x="835" y="792" type="line"/>
      <point x="835" y="973" type="line" name=".hr01"/>
      <point x="747" y="973"/>
      <point x="706" y="946"/>
      <point x="697" y="879" type="curve"/>
      <point x="663" y="879" type="line"/>
      <point x="615" y="955"/>
      <point x="533" y="989"/>
      <point x="381" y="989" type="curve" smooth="yes"/>
      <point x="145" y="989"/>
      <point x="61" y="900"/>
      <point x="49" y="698" type="curve"/>
      <point x="44" y="652"/>
      <point x="45" y="613"/>
      <point x="49" y="546" type="curve"/>
      <point x="58" y="409"/>
      <point x="99" y="329"/>
      <point x="193" y="287" type="curve"/>
      <point x="193" y="253" type="line"/>
      <point x="124" y="243"/>
      <point x="73" y="214"/>
      <point x="68" y="167" type="curve"/>
      <point x="66" y="147"/>
      <point x="66" y="130"/>
      <point x="68" y="115" type="curve" smooth="yes"/>
      <point x="74" y="62"/>
      <point x="113" y="29"/>
      <point x="178" y="20" type="curve"/>
      <point x="178" y="-14" type="line"/>
      <point x="106" y="-21"/>
      <point x="60" y="-69"/>
      <point x="55" y="-117" type="curve"/>
      <point x="52" y="-138"/>
      <point x="55" y="-164"/>
      <point x="57" y="-177" type="curve"/>
      <point x="75" y="-271"/>
      <point x="179" y="-327"/>
    </contour>
    <contour>
      <point x="386" y="-162" type="curve" smooth="yes"/>
      <point x="289" y="-162"/>
      <point x="240" y="-140"/>
      <point x="229" y="-103" type="curve"/>
      <point x="226" y="-89"/>
      <point x="226" y="-71"/>
      <point x="230" y="-53" type="curve"/>
      <point x="240" y="-17"/>
      <point x="289" y="3"/>
      <point x="387" y="3" type="curve" smooth="yes"/>
      <point x="485" y="3"/>
      <point x="541" y="-16"/>
      <point x="553" y="-54" type="curve" smooth="yes"/>
      <point x="558" y="-70"/>
      <point x="560" y="-86"/>
      <point x="555" y="-103" type="curve" smooth="yes"/>
      <point x="545" y="-139"/>
      <point x="487" y="-162"/>
    </contour>
    <contour>
      <point x="379" y="434" type="curve" smooth="yes"/>
      <point x="290" y="434"/>
      <point x="268" y="474"/>
      <point x="265" y="516" type="curve"/>
      <point x="259" y="564"/>
      <point x="259" y="630"/>
      <point x="265" y="728" type="curve" smooth="yes"/>
      <point x="267" y="782"/>
      <point x="297" y="810"/>
      <point x="379" y="810" type="curve" smooth="yes"/>
      <point x="460" y="810"/>
      <point x="488" y="783"/>
      <point x="493" y="731" type="curve"/>
      <point x="498" y="684"/>
      <point x="499" y="556"/>
      <point x="493" y="510" type="curve"/>
      <point x="488" y="467"/>
      <point x="464" y="434"/>
    </contour>
  </outline>
</glyph>
<glyph name="h" format="2">
  <advance width="838"/>
  <unicode hex="0068"/>
  <anchor x="416" y="0" name="bottom"/>
  <anchor x="246" y="1126" name="center"/>
  <anchor x="440" y="1298" name="top"/>
  <outline>
    <contour>
      <point x="293" y="0" type="line"/>
      <point x="293" y="744" type="line"/>
      <point x="319" y="786"/>
      <point x="383" y="814"/>
      <point x="449" y="814" type="curve" smooth="yes"/>
      <point x="516" y="814"/>
      <point x="550" y="789"/>
      <point x="550" y="737" type="curve" smooth="yes"/>
      <point x="550" y="0" type="line"/>
      <point x="769" y="0" type="line"/>
      <point x="769" y="716" type="line" smooth="yes"/>
      <point x="769" y="913"/>
      <point x="686" y="989"/>
      <point x="538" y="989" type="curve" smooth="yes"/>
      <point x="428" y="989"/>
      <point x="382" y="947"/>
      <point x="334" y="869" type="curve"/>
      <point x="293" y="869" type="line"/>
      <point x="293" y="1298" type="line"/>
      <point x="73" y="1298" type="line"/>
      <point x="73" y="0" type="line"/>
    </contour>
  </outline>
</glyph>
<glyph name="i" format="2">
  <advance width="401"/>
  <unicode hex="0069"/>
  <anchor x="202" y="0" name="bottom"/>
  <outline>
    <contour>
      <point x="330" y="1115" type="line"/>
      <point x="330" y="1298" type="line"/>
      <point x="73" y="1298" type="line"/>
      <point x="73" y="1115" type="line"/>
    </contour>
    <contour>
      <point x="312" y="0" type="line"/>
      <point x="312" y="973" type="line"/>
      <point x="91" y="973" type="line"/>
      <point x="91" y="0" type="line"/>
    </contour>
  </outline>
</glyph>
<glyph name="j" format="2">
  <advance width="401"/>
  <unicode hex="006A"/>
  <outline>
    <contour>
      <point x="328" y="1115" type="line"/>
      <point x="328" y="1298" type="line"/>
      <point x="74" y="1298" type="line"/>
      <point x="74" y="1115" type="line"/>
    </contour>
    <contour>
      <point x="-21" y="-344" type="curve" smooth="yes"/>
      <point x="206" y="-344"/>
      <point x="310" y="-263"/>
      <point x="310" y="-57" type="curve" smooth="yes"/>
      <point x="310" y="973" type="line"/>
      <point x="91" y="973" type="line"/>
      <point x="91" y="-76" type="line" smooth="yes"/>
      <point x="91" y="-129"/>
      <point x="54" y="-157"/>
      <point x="-22" y="-157" type="curve" smooth="yes"/>
      <point x="-61" y="-157"/>
      <point x="-120" y="-156"/>
      <point x="-153" y="-154" type="curve"/>
      <point x="-153" y="-333" type="line"/>
      <point x="-113" y="-340"/>
      <point x="-61" y="-344"/>
    </contour>
  </outline>
</glyph>
<glyph name="k" format="2">
  <advance width="772"/>
  <unicode hex="006B"/>
  <anchor x="402" y="0" name="bottom"/>
  <anchor x="402" y="1298" name="top"/>
  <outline>
    <contour>
      <point x="283" y="0" type="line"/>
      <point x="283" y="280" type="line"/>
      <point x="356" y="369" type="line"/>
      <point x="549" y="0" type="line"/>
      <point x="774" y="0" type="line"/>
      <point x="493" y="610" type="line"/>
      <point x="729" y="973" type="line"/>
      <point x="500" y="973" type="line"/>
      <point x="382" y="808" type="line"/>
      <point x="294" y="603" type="line"/>
      <point x="255" y="603" type="line"/>
      <point x="280" y="1050" type="line"/>
      <point x="280" y="1298" type="line"/>
      <point x="73" y="1298" type="line"/>
      <point x="73" y="0" type="line"/>
    </contour>
  </outline>
</glyph>
<glyph name="l" format="2">
  <advance width="401"/>
  <unicode hex="006C"/>
  <anchor x="202" y="0" name="bottom"/>
  <anchor x="693" y="673" name="center"/>
  <anchor x="202" y="1298" name="top"/>
  <anchor x="371" y="1007" name="topright"/>
  <outline>
    <contour>
      <point x="313" y="0" type="line"/>
      <point x="313" y="1298" type="line"/>
      <point x="90" y="1298" type="line"/>
      <point x="90" y="0" type="line"/>
    </contour>
  </outline>
</glyph>
<glyph name="m" format="2">
  <advance width="1278"/>
  <unicode hex="006D"/>
  <anchor x="644" y="0" name="bottom"/>
  <anchor x="644" y="973" name="top"/>
  <outline>
    <contour>
      <point x="293" y="0" type="line"/>
      <point x="293" y="744" type="line"/>
      <point x="317" y="786"/>
      <point x="380" y="814"/>
      <point x="441" y="814" type="curve" smooth="yes"/>
      <point x="505" y="814"/>
      <point x="535" y="789"/>
      <point x="536" y="737" type="curve"/>
      <point x="536" y="0" type="line"/>
      <point x="755" y="0" type="line"/>
      <point x="755" y="739" type="line"/>
      <point x="780" y="779"/>
      <point x="837" y="814"/>
      <point x="896" y="814" type="curve" smooth="yes"/>
      <point x="960" y="814"/>
      <point x="990" y="789"/>
      <point x="990" y="737" type="curve"/>
      <point x="990" y="0" type="line"/>
      <point x="1209" y="0" type="line"/>
      <point x="1209" y="716" type="line" smooth="yes"/>
      <point x="1209" y="913"/>
      <point x="1130" y="989"/>
      <point x="986" y="989" type="curve" smooth="yes"/>
      <point x="878" y="989"/>
      <point x="820" y="930"/>
      <point x="772" y="853" type="curve"/>
      <point x="736" y="853" type="line"/>
      <point x="705" y="950"/>
      <point x="636" y="989"/>
      <point x="532" y="989" type="curve" smooth="yes"/>
      <point x="423" y="989"/>
      <point x="379" y="947"/>
      <point x="332" y="869" type="curve"/>
      <point x="293" y="869" type="line"/>
      <point x="293" y="973" type="line" name=".hr01"/>
      <point x="73" y="973" type="line"/>
      <point x="73" y="0" type="line"/>
    </contour>
  </outline>
</glyph>
<glyph name="n" format="2">
  <advance width="838"/>
  <unicode hex="006E"/>
  <anchor x="423" y="0" name="bottom"/>
  <anchor x="423" y="973" name="top"/>
  <outline>
    <contour>
      <point x="293" y="0" type="line"/>
      <point x="293" y="744" type="line"/>
      <point x="318" y="786"/>
      <point x="386" y="814"/>
      <point x="449" y="814" type="curve" smooth="yes"/>
      <point x="516" y="814"/>
      <point x="550" y="789"/>
      <point x="550" y="737" type="curve" smooth="yes"/>
      <point x="550" y="0" type="line"/>
      <point x="769" y="0" type="line"/>
      <point x="769" y="716" type="line" smooth="yes"/>
      <point x="769" y="913"/>
      <point x="686" y="989"/>
      <point x="538" y="989" type="curve" smooth="yes"/>
      <point x="430" y="989"/>
      <point x="380" y="947"/>
      <point x="334" y="869" type="curve"/>
      <point x="293" y="869" type="line"/>
      <point x="293" y="973" type="line" name=".hr01"/>
      <point x="73" y="973" type="line"/>
      <point x="73" y="0" type="line"/>
    </contour>
  </outline>
</glyph>
<glyph name="o" format="2">
  <advance width="831"/>
  <unicode hex="006F"/>
  <anchor x="417" y="0" name="bottom"/>
  <anchor x="417" y="487" name="center"/>
  <anchor x="542" y="6" name="ogonek"/>
  <anchor x="417" y="973" name="top"/>
  <anchor x="670" y="1267" name="topright"/>
  <outline>
    <contour>
      <point x="417" y="-15" type="curve" smooth="yes"/>
      <point x="672" y="-15"/>
      <point x="756" y="78"/>
      <point x="768" y="309" type="curve"/>
      <point x="775" y="391"/>
      <point x="775" y="591"/>
      <point x="768" y="667" type="curve"/>
      <point x="757" y="896"/>
      <point x="672" y="989"/>
      <point x="417" y="989" type="curve" smooth="yes"/>
      <point x="163" y="989"/>
      <point x="76" y="898"/>
      <point x="64" y="667" type="curve"/>
      <point x="56" y="585"/>
      <point x="57" y="383"/>
      <point x="64" y="309" type="curve"/>
      <point x="75" y="75"/>
      <point x="165" y="-15"/>
    </contour>
    <contour>
      <point x="417" y="164" type="curve" smooth="yes"/>
      <point x="325" y="164"/>
      <point x="285" y="194"/>
      <point x="283" y="248" type="curve" smooth="yes"/>
      <point x="274" y="397"/>
      <point x="275" y="577"/>
      <point x="283" y="728" type="curve" smooth="yes"/>
      <point x="286" y="781"/>
      <point x="323" y="810"/>
      <point x="417" y="810" type="curve" smooth="yes"/>
      <point x="511" y="810"/>
      <point x="546" y="781"/>
      <point x="549" y="728" type="curve"/>
      <point x="556" y="577"/>
      <point x="556" y="398"/>
      <point x="549" y="248" type="curve"/>
      <point x="546" y="194"/>
      <point x="510" y="164"/>
    </contour>
  </outline>
</glyph>
<glyph name="p" format="2">
  <advance width="836"/>
  <unicode hex="0070"/>
  <outline>
    <contour>
      <point x="293" y="-324" type="line"/>
      <point x="293" y="105" type="line"/>
      <point x="328" y="105" type="line"/>
      <point x="381" y="18"/>
      <point x="437" y="-15"/>
      <point x="525" y="-15" type="curve" smooth="yes"/>
      <point x="676" y="-15"/>
      <point x="767" y="62"/>
      <point x="775" y="258" type="curve" smooth="yes"/>
      <point x="781" y="360"/>
      <point x="781" y="614"/>
      <point x="775" y="716" type="curve" smooth="yes"/>
      <point x="767" y="913"/>
      <point x="687" y="989"/>
      <point x="536" y="989" type="curve" smooth="yes"/>
      <point x="423" y="989"/>
      <point x="376" y="947"/>
      <point x="328" y="869" type="curve"/>
      <point x="293" y="869" type="line"/>
      <point x="293" y="973" type="line" name=".hr01"/>
      <point x="73" y="973" type="line"/>
      <point x="73" y="-324" type="line"/>
    </contour>
    <contour>
      <point x="440" y="161" type="curve" smooth="yes"/>
      <point x="364" y="161"/>
      <point x="322" y="180"/>
      <point x="293" y="230" type="curve"/>
      <point x="293" y="744" type="line"/>
      <point x="320" y="786"/>
      <point x="385" y="814"/>
      <point x="454" y="814" type="curve" smooth="yes"/>
      <point x="524" y="814"/>
      <point x="552" y="789"/>
      <point x="556" y="737" type="curve" smooth="yes"/>
      <point x="565" y="596"/>
      <point x="566" y="364"/>
      <point x="556" y="237" type="curve" smooth="yes"/>
      <point x="552" y="185"/>
      <point x="511" y="161"/>
    </contour>
  </outline>
</glyph>
<glyph name="q" format="2">
  <advance width="836"/>
  <unicode hex="0071"/>
  <outline>
    <contour>
      <point x="764" y="-324" type="line"/>
      <point x="764" y="973" type="line" name=".hr01"/>
      <point x="545" y="973" type="line"/>
      <point x="545" y="869" type="line"/>
      <point x="510" y="869" type="line"/>
      <point x="461" y="947"/>
      <point x="416" y="989"/>
      <point x="303" y="989" type="curve" smooth="yes"/>
      <point x="151" y="989"/>
      <point x="72" y="913"/>
      <point x="62" y="716" type="curve" smooth="yes"/>
      <point x="56" y="613"/>
      <point x="56" y="360"/>
      <point x="62" y="258" type="curve" smooth="yes"/>
      <point x="72" y="62"/>
      <point x="165" y="-15"/>
      <point x="316" y="-15" type="curve" smooth="yes"/>
      <point x="405" y="-15"/>
      <point x="460" y="18"/>
      <point x="514" y="105" type="curve"/>
      <point x="545" y="105" type="line"/>
      <point x="545" y="-324" type="line"/>
    </contour>
    <contour>
      <point x="398" y="161" type="curve" smooth="yes"/>
      <point x="328" y="161"/>
      <point x="286" y="185"/>
      <point x="282" y="237" type="curve" smooth="yes"/>
      <point x="272" y="364"/>
      <point x="273" y="595"/>
      <point x="282" y="737" type="curve" smooth="yes"/>
      <point x="285" y="789"/>
      <point x="315" y="814"/>
      <point x="384" y="814" type="curve" smooth="yes"/>
      <point x="453" y="814"/>
      <point x="518" y="786"/>
      <point x="545" y="744" type="curve"/>
      <point x="545" y="230" type="line"/>
      <point x="516" y="180"/>
      <point x="473" y="161"/>
    </contour>
  </outline>
</glyph>
<glyph name="r" format="2">
  <advance width="766"/>
  <unicode hex="0072"/>
  <anchor x="184" y="0" name="bottom"/>
  <anchor x="376" y="973" name="top"/>
  <outline>
    <contour>
      <point x="294" y="0" type="line"/>
      <point x="294" y="686" type="line"/>
      <point x="337" y="751"/>
      <point x="427" y="792"/>
      <point x="636" y="792" type="curve" smooth="yes"/>
      <point x="749" y="792" type="line"/>
      <point x="749" y="975" type="line"/>
      <point x="719" y="976"/>
      <point x="673" y="980"/>
      <point x="634" y="980" type="curve" smooth="yes"/>
      <point x="476" y="980"/>
      <point x="388" y="948"/>
      <point x="343" y="853" type="curve"/>
      <point x="294" y="853" type="line"/>
      <point x="294" y="973" type="line"/>
      <point x="73" y="973" type="line"/>
      <point x="73" y="0" type="line"/>
    </contour>
  </outline>
</glyph>
<glyph name="s" format="2">
  <advance width="795"/>
  <unicode hex="0073"/>
  <anchor x="395" y="0" name="bottom"/>
  <anchor x="395" y="973" name="top"/>
  <outline>
    <contour>
      <point x="391" y="-15" type="curve" smooth="yes"/>
      <point x="647" y="-15"/>
      <point x="743" y="65"/>
      <point x="748" y="266" type="curve"/>
      <point x="749" y="281"/>
      <point x="749" y="297"/>
      <point x="749" y="311" type="curve" smooth="yes"/>
      <point x="749" y="461"/>
      <point x="662" y="530"/>
      <point x="485" y="566" type="curve" smooth="yes"/>
      <point x="364" y="590" type="line"/>
      <point x="271" y="602"/>
      <point x="263" y="631"/>
      <point x="260" y="673" type="curve"/>
      <point x="259" y="711"/>
      <point x="261" y="711"/>
      <point x="263" y="736" type="curve"/>
      <point x="267" y="788"/>
      <point x="299" y="810"/>
      <point x="401" y="810" type="curve" smooth="yes"/>
      <point x="501" y="810"/>
      <point x="533" y="788"/>
      <point x="536" y="736" type="curve"/>
      <point x="538" y="713"/>
      <point x="539" y="629"/>
      <point x="535" y="600" type="curve"/>
      <point x="737" y="600" type="line"/>
      <point x="740" y="611"/>
      <point x="740" y="673"/>
      <point x="740" y="708" type="curve"/>
      <point x="730" y="909"/>
      <point x="645" y="989"/>
      <point x="401" y="989" type="curve" smooth="yes"/>
      <point x="140" y="989"/>
      <point x="52" y="906"/>
      <point x="49" y="697" type="curve"/>
      <point x="47" y="682"/>
      <point x="46" y="668"/>
      <point x="47" y="651" type="curve"/>
      <point x="52" y="509"/>
      <point x="129" y="439"/>
      <point x="313" y="398" type="curve" smooth="yes"/>
      <point x="446" y="366" type="line"/>
      <point x="524" y="356"/>
      <point x="543" y="332"/>
      <point x="545" y="298" type="curve"/>
      <point x="546" y="260"/>
      <point x="545" y="287"/>
      <point x="543" y="247" type="curve" smooth="yes"/>
      <point x="541" y="187"/>
      <point x="499" y="164"/>
      <point x="391" y="164" type="curve" smooth="yes"/>
      <point x="292" y="164"/>
      <point x="251" y="187"/>
      <point x="248" y="247" type="curve"/>
      <point x="246" y="272"/>
      <point x="245" y="321"/>
      <point x="248" y="378" type="curve"/>
      <point x="54" y="378" type="line"/>
      <point x="51" y="367"/>
      <point x="50" y="308"/>
      <point x="52" y="272" type="curve" smooth="yes"/>
      <point x="61" y="67"/>
      <point x="149" y="-15"/>
    </contour>
  </outline>
</glyph>
<glyph name="t" format="2">
  <advance width="563"/>
  <unicode hex="0074"/>
  <anchor x="342" y="0" name="bottom"/>
  <anchor x="271" y="552" name="center"/>
  <anchor x="254" y="1247" name="top"/>
  <anchor x="349" y="1007" name="topright"/>
  <outline>
    <contour>
      <point x="451" y="-15" type="curve" smooth="yes"/>
      <point x="483" y="-15"/>
      <point x="512" y="-14"/>
      <point x="536" y="-7" type="curve"/>
      <point x="536" y="165" type="line"/>
      <point x="504" y="164"/>
      <point x="482" y="163"/>
      <point x="453" y="163" type="curve" smooth="yes"/>
      <point x="359" y="163"/>
      <point x="339" y="187"/>
      <point x="339" y="245" type="curve" smooth="yes"/>
      <point x="339" y="792" type="line"/>
      <point x="519" y="792" type="line"/>
      <point x="519" y="973" type="line"/>
      <point x="342" y="973" type="line"/>
      <point x="342" y="1249" type="line"/>
      <point x="121" y="1249" type="line"/>
      <point x="121" y="973" type="line"/>
      <point x="26" y="973" type="line"/>
      <point x="26" y="792" type="line"/>
      <point x="120" y="792" type="line"/>
      <point x="120" y="272" type="line" smooth="yes"/>
      <point x="120" y="67"/>
      <point x="211" y="-15"/>
    </contour>
  </outline>
</glyph>
<glyph name="u" format="2">
  <advance width="838"/>
  <unicode hex="0075"/>
  <anchor x="414" y="0" name="bottom"/>
  <anchor x="606" y="1" name="ogonek"/>
  <anchor x="414" y="973" name="top"/>
  <anchor x="710" y="1265" name="topright"/>
  <outline>
    <contour>
      <point x="306" y="-15" type="curve" smooth="yes"/>
      <point x="399" y="-15"/>
      <point x="462" y="19"/>
      <point x="514" y="105" type="curve"/>
      <point x="547" y="105" type="line"/>
      <point x="547" y="0" type="line" name=".hr01"/>
      <point x="766" y="0" type="line"/>
      <point x="766" y="973" type="line"/>
      <point x="547" y="973" type="line"/>
      <point x="547" y="230" type="line"/>
      <point x="521" y="188"/>
      <point x="452" y="161"/>
      <point x="387" y="161" type="curve" smooth="yes"/>
      <point x="317" y="161"/>
      <point x="285" y="185"/>
      <point x="285" y="237" type="curve" smooth="yes"/>
      <point x="285" y="973" type="line"/>
      <point x="66" y="973" type="line"/>
      <point x="66" y="258" type="line" smooth="yes"/>
      <point x="66" y="62"/>
      <point x="157" y="-15"/>
    </contour>
  </outline>
</glyph>
<glyph name="v" format="2">
  <advance width="797"/>
  <unicode hex="0076"/>
  <outline>
    <contour>
      <point x="588" y="0" type="line"/>
      <point x="780" y="973" type="line"/>
      <point x="556" y="973" type="line"/>
      <point x="476" y="485" type="line"/>
      <point x="432" y="177" type="line"/>
      <point x="359" y="177" type="line"/>
      <point x="317" y="485" type="line"/>
      <point x="242" y="973" type="line"/>
      <point x="17" y="973" type="line"/>
      <point x="204" y="0" type="line"/>
    </contour>
  </outline>
</glyph>
<glyph name="w" format="2">
  <advance width="1112"/>
  <unicode hex="0077"/>
  <anchor x="555" y="0" name="bottom"/>
  <anchor x="555" y="973" name="top"/>
  <outline>
    <contour>
      <point x="501" y="0" type="line"/>
      <point x="526" y="380" type="line"/>
      <point x="531" y="796" type="line"/>
      <point x="580" y="796" type="line"/>
      <point x="584" y="380" type="line"/>
      <point x="610" y="0" type="line"/>
      <point x="972" y="0" type="line"/>
      <point x="1088" y="973" type="line"/>
      <point x="866" y="973" type="line"/>
      <point x="827" y="485" type="line"/>
      <point x="820" y="177" type="line"/>
      <point x="769" y="177" type="line"/>
      <point x="764" y="485" type="line"/>
      <point x="728" y="973" type="line"/>
      <point x="385" y="973" type="line"/>
      <point x="347" y="485" type="line"/>
      <point x="342" y="177" type="line"/>
      <point x="290" y="177" type="line"/>
      <point x="283" y="485" type="line"/>
      <point x="247" y="973" type="line"/>
      <point x="23" y="973" type="line"/>
      <point x="139" y="0" type="line"/>
    </contour>
  </outline>
</glyph>
<glyph name="x" format="2">
  <advance width="778"/>
  <unicode hex="0078"/>
  <outline>
    <contour>
      <point x="224" y="0" type="line"/>
      <point x="316" y="243" type="line"/>
      <point x="364" y="439" type="line"/>
      <point x="415" y="439" type="line"/>
      <point x="464" y="243" type="line"/>
      <point x="556" y="0" type="line"/>
      <point x="767" y="0" type="line"/>
      <point x="555" y="511" type="line"/>
      <point x="763" y="973" type="line"/>
      <point x="551" y="973" type="line"/>
      <point x="471" y="772" type="line"/>
      <point x="415" y="613" type="line"/>
      <point x="361" y="613" type="line"/>
      <point x="309" y="772" type="line"/>
      <point x="229" y="973" type="line"/>
      <point x="17" y="973" type="line"/>
      <point x="222" y="516" type="line"/>
      <point x="11" y="0" type="line"/>
    </contour>
  </outline>
</glyph>
<glyph name="y" format="2">
  <advance width="797"/>
  <unicode hex="0079"/>
  <anchor x="684" y="-98" name="bottom"/>
  <anchor x="412" y="973" name="top"/>
  <outline>
    <contour>
      <point x="199" y="-341" type="curve" smooth="yes"/>
      <point x="453" y="-341"/>
      <point x="540" y="-258"/>
      <point x="573" y="-54" type="curve"/>
      <point x="777" y="973" type="line"/>
      <point x="554" y="973" type="line"/>
      <point x="494" y="534" type="line"/>
      <point x="447" y="177" type="line"/>
      <point x="381" y="177" type="line"/>
      <point x="320" y="534" type="line"/>
      <point x="254" y="973" type="line"/>
      <point x="30" y="973" type="line"/>
      <point x="233" y="0" type="line"/>
      <point x="375" y="0" type="line"/>
      <point x="354" y="-73" type="line"/>
      <point x="342" y="-131"/>
      <point x="310" y="-155"/>
      <point x="197" y="-155" type="curve" smooth="yes"/>
      <point x="153" y="-155"/>
      <point x="85" y="-152"/>
      <point x="47" y="-151" type="curve"/>
      <point x="47" y="-330" type="line"/>
      <point x="91" y="-336"/>
      <point x="154" y="-341"/>
    </contour>
  </outline>
</glyph>
<glyph name="z" format="2">
  <advance width="711"/>
  <unicode hex="007A"/>
  <anchor x="358" y="0" name="bottom"/>
  <anchor x="358" y="487" name="center"/>
  <anchor x="358" y="973" name="top"/>
  <outline>
    <contour>
      <point x="670" y="0" type="line"/>
      <point x="670" y="177" type="line"/>
      <point x="266" y="177" type="line"/>
      <point x="678" y="815" type="line"/>
      <point x="678" y="973" type="line"/>
      <point x="45" y="973" type="line"/>
      <point x="45" y="797" type="line"/>
      <point x="443" y="797" type="line"/>
      <point x="35" y="154" type="line"/>
      <point x="35" y="0" type="line"/>
    </contour>
  </outline>
</glyph>
<glyph name="braceleft" format="2">
  <advance width="760"/>
  <unicode hex="007B"/>
  <outline>
    <contour>
      <point x="707" y="-243" type="line"/>
      <point x="573" y="-243"/>
      <point x="467" y="-147"/>
      <point x="467" y="-38" type="curve" smooth="yes"/>
      <point x="467" y="16"/>
      <point x="481" y="180"/>
      <point x="481" y="255" type="curve" smooth="yes"/>
      <point x="481" y="392"/>
      <point x="417" y="496"/>
      <point x="287" y="517" type="curve"/>
      <point x="287" y="551" type="line"/>
      <point x="417" y="573"/>
      <point x="481" y="676"/>
      <point x="481" y="813" type="curve" smooth="yes"/>
      <point x="481" y="888"/>
      <point x="467" y="1052"/>
      <point x="467" y="1106" type="curve" smooth="yes"/>
      <point x="467" y="1216"/>
      <point x="573" y="1311"/>
      <point x="707" y="1311" type="curve"/>
      <point x="707" y="1428" type="line"/>
      <point x="441" y="1428"/>
      <point x="236" y="1346"/>
      <point x="236" y="1106" type="curve" smooth="yes"/>
      <point x="236" y="1038"/>
      <point x="253" y="793"/>
      <point x="253" y="741" type="curve" smooth="yes"/>
      <point x="253" y="644"/>
      <point x="205" y="634"/>
      <point x="125" y="634" type="curve" smooth="yes"/>
      <point x="53" y="634" type="line"/>
      <point x="53" y="431" type="line"/>
      <point x="125" y="431" type="line" smooth="yes"/>
      <point x="205" y="431"/>
      <point x="253" y="422"/>
      <point x="253" y="325" type="curve" smooth="yes"/>
      <point x="253" y="272"/>
      <point x="235" y="30"/>
      <point x="235" y="-38" type="curve" smooth="yes"/>
      <point x="235" y="-278"/>
      <point x="441" y="-360"/>
      <point x="707" y="-360" type="curve"/>
    </contour>
  </outline>
</glyph>
<glyph name="bar" format="2">
  <advance width="430"/>
  <unicode hex="007C"/>
  <outline>
    <contour>
      <point x="98" y="-214" type="line"/>
      <point x="332" y="-214" type="line"/>
      <point x="332" y="1624" type="line"/>
      <point x="98" y="1624" type="line"/>
    </contour>
  </outline>
</glyph>
<glyph name="braceright" format="2">
  <advance width="760"/>
  <unicode hex="007D"/>
  <outline>
    <contour>
      <point x="53" y="-360" type="line"/>
      <point x="320" y="-360"/>
      <point x="526" y="-278"/>
      <point x="526" y="-38" type="curve" smooth="yes"/>
      <point x="526" y="30"/>
      <point x="509" y="272"/>
      <point x="509" y="325" type="curve" smooth="yes"/>
      <point x="509" y="422"/>
      <point x="556" y="431"/>
      <point x="636" y="431" type="curve" smooth="yes"/>
      <point x="707" y="431" type="line"/>
      <point x="707" y="634" type="line"/>
      <point x="636" y="634" type="line" smooth="yes"/>
      <point x="557" y="634"/>
      <point x="509" y="644"/>
      <point x="509" y="741" type="curve" smooth="yes"/>
      <point x="509" y="793"/>
      <point x="525" y="1038"/>
      <point x="525" y="1106" type="curve" smooth="yes"/>
      <point x="525" y="1346"/>
      <point x="320" y="1428"/>
      <point x="53" y="1428" type="curve"/>
      <point x="53" y="1311" type="line"/>
      <point x="188" y="1311"/>
      <point x="295" y="1216"/>
      <point x="295" y="1106" type="curve" smooth="yes"/>
      <point x="295" y="1052"/>
      <point x="280" y="888"/>
      <point x="280" y="813" type="curve" smooth="yes"/>
      <point x="280" y="676"/>
      <point x="344" y="573"/>
      <point x="473" y="551" type="curve"/>
      <point x="473" y="517" type="line"/>
      <point x="344" y="496"/>
      <point x="280" y="392"/>
      <point x="280" y="255" type="curve" smooth="yes"/>
      <point x="280" y="180"/>
      <point x="295" y="16"/>
      <point x="295" y="-38" type="curve" smooth="yes"/>
      <point x="295" y="-147"/>
      <point x="188" y="-243"/>
      <point x="53" y="-243" type="curve"/>
    </contour>
  </outline>
</glyph>
<glyph name="asciitilde" format="2">
  <advance width="1036"/>
  <unicode hex="007E"/>
  <outline>
    <contour>
      <point x="689" y="513" type="curve" smooth="yes"/>
      <point x="848" y="512"/>
      <point x="953" y="588"/>
      <point x="965" y="776" type="curve"/>
      <point x="833" y="776" type="line"/>
      <point x="829" y="719"/>
      <point x="777" y="686"/>
      <point x="694" y="687" type="curve" smooth="yes"/>
      <point x="578" y="688"/>
      <point x="536" y="803"/>
      <point x="353" y="806" type="curve" smooth="yes"/>
      <point x="199" y="808"/>
      <point x="87" y="728"/>
      <point x="71" y="530" type="curve"/>
      <point x="204" y="530" type="line"/>
      <point x="212" y="597"/>
      <point x="265" y="637"/>
      <point x="345" y="635" type="curve"/>
      <point x="464" y="633"/>
      <point x="523" y="515"/>
    </contour>
  </outline>
</glyph>
<glyph name="exclamdown" format="2">
  <advance width="438"/>
  <unicode hex="00A1"/>
  <outline>
    <contour>
      <point x="134" y="700" type="line"/>
      <point x="100" y="-18" type="line"/>
      <point x="100" y="-357" type="line"/>
      <point x="338" y="-357" type="line"/>
      <point x="338" y="-18" type="line"/>
      <point x="305" y="700" type="line"/>
    </contour>
    <contour>
      <point x="71" y="1071" type="line"/>
      <point x="71" y="841" type="line"/>
      <point x="367" y="841" type="line"/>
      <point x="367" y="1071" type="line"/>
    </contour>
  </outline>
</glyph>
<glyph name="cent" format="2">
  <advance width="817"/>
  <unicode hex="00A2"/>
  <outline>
    <contour>
      <point x="516" y="0" type="line"/>
      <point x="516" y="168" type="line"/>
      <point x="685" y="193"/>
      <point x="758" y="281"/>
      <point x="767" y="460" type="curve" smooth="yes"/>
      <point x="770" y="500"/>
      <point x="767" y="565"/>
      <point x="766" y="585" type="curve"/>
      <point x="536" y="585" type="line"/>
      <point x="538" y="521"/>
      <point x="538" y="467"/>
      <point x="537" y="435" type="curve"/>
      <point x="534" y="366"/>
      <point x="502" y="342"/>
      <point x="421" y="342" type="curve" smooth="yes"/>
      <point x="334" y="342"/>
      <point x="300" y="366"/>
      <point x="297" y="435" type="curve" smooth="yes"/>
      <point x="291" y="619"/>
      <point x="291" y="815"/>
      <point x="297" y="1001" type="curve" smooth="yes"/>
      <point x="299" y="1064"/>
      <point x="333" y="1087"/>
      <point x="418" y="1087" type="curve" smooth="yes"/>
      <point x="499" y="1087"/>
      <point x="534" y="1064"/>
      <point x="537" y="1001" type="curve"/>
      <point x="538" y="972"/>
      <point x="538" y="884"/>
      <point x="536" y="847" type="curve"/>
      <point x="766" y="847" type="line"/>
      <point x="767" y="867"/>
      <point x="769" y="934"/>
      <point x="767" y="974" type="curve"/>
      <point x="760" y="1148"/>
      <point x="687" y="1236"/>
      <point x="516" y="1259" type="curve"/>
      <point x="516" y="1428" type="line"/>
      <point x="311" y="1428" type="line"/>
      <point x="311" y="1257" type="line"/>
      <point x="146" y="1231"/>
      <point x="72" y="1143"/>
      <point x="63" y="965" type="curve"/>
      <point x="56" y="855"/>
      <point x="56" y="563"/>
      <point x="63" y="460" type="curve"/>
      <point x="72" y="286"/>
      <point x="144" y="198"/>
      <point x="311" y="172" type="curve"/>
      <point x="311" y="0" type="line"/>
    </contour>
  </outline>
</glyph>
<glyph name="sterling" format="2">
  <advance width="942"/>
  <unicode hex="00A3"/>
  <outline>
    <contour>
      <point x="871" y="0" type="line"/>
      <point x="871" y="211" type="line"/>
      <point x="331" y="211" type="line"/>
      <point x="331" y="248" type="line"/>
      <point x="402" y="316"/>
      <point x="449" y="433"/>
      <point x="449" y="579" type="curve" smooth="yes"/>
      <point x="449" y="614"/>
      <point x="443" y="646"/>
      <point x="436" y="678" type="curve"/>
      <point x="621" y="678" type="line"/>
      <point x="621" y="794" type="line"/>
      <point x="420" y="794" type="line"/>
      <point x="388" y="930"/>
      <point x="337" y="1036"/>
      <point x="338" y="1155" type="curve" smooth="yes"/>
      <point x="338" y="1218"/>
      <point x="386" y="1250"/>
      <point x="479" y="1250" type="curve" smooth="yes"/>
      <point x="572" y="1250"/>
      <point x="617" y="1218"/>
      <point x="619" y="1155" type="curve" smooth="yes"/>
      <point x="621" y="1084"/>
      <point x="619" y="971"/>
      <point x="617" y="900" type="curve"/>
      <point x="851" y="900" type="line"/>
      <point x="853" y="961"/>
      <point x="856" y="1051"/>
      <point x="853" y="1111" type="curve" smooth="yes"/>
      <point x="846" y="1349"/>
      <point x="737" y="1445"/>
      <point x="479" y="1445" type="curve" smooth="yes"/>
      <point x="217" y="1445"/>
      <point x="106" y="1319"/>
      <point x="104" y="1113" type="curve"/>
      <point x="102" y="977"/>
      <point x="143" y="889"/>
      <point x="176" y="794" type="curve"/>
      <point x="71" y="794" type="line"/>
      <point x="71" y="678" type="line"/>
      <point x="206" y="678" type="line"/>
      <point x="214" y="638"/>
      <point x="222" y="596"/>
      <point x="222" y="546" type="curve" smooth="yes"/>
      <point x="222" y="357"/>
      <point x="187" y="233"/>
      <point x="111" y="205" type="curve"/>
      <point x="111" y="0" type="line"/>
    </contour>
  </outline>
</glyph>
<glyph name="currency" format="2">
  <advance width="1221"/>
  <unicode hex="00A4"/>
  <anchor x="601" y="163" name="bottom"/>
  <anchor x="601" y="699" name="center"/>
  <anchor x="747" y="170" name="ogonek"/>
  <anchor x="601" y="1234" name="top"/>
  <anchor x="1050" y="1234" name="topright"/>
  <outline>
    <contour>
      <point x="350" y="191" type="line"/>
      <point x="409" y="160"/>
      <point x="491" y="147"/>
      <point x="601" y="147" type="curve" smooth="yes"/>
      <point x="714" y="147"/>
      <point x="799" y="161"/>
      <point x="859" y="195" type="curve"/>
      <point x="1033" y="44" type="line"/>
      <point x="1137" y="129" type="line"/>
      <point x="947" y="296" type="line"/>
      <point x="975" y="345"/>
      <point x="990" y="405"/>
      <point x="994" y="480" type="curve"/>
      <point x="1003" y="591"/>
      <point x="1002" y="814"/>
      <point x="994" y="918" type="curve"/>
      <point x="992" y="992"/>
      <point x="976" y="1052"/>
      <point x="946" y="1098" type="curve"/>
      <point x="1150" y="1271" type="line"/>
      <point x="1050" y="1357" type="line"/>
      <point x="860" y="1198" type="line"/>
      <point x="800" y="1234"/>
      <point x="717" y="1250"/>
      <point x="601" y="1250" type="curve" smooth="yes"/>
      <point x="495" y="1250"/>
      <point x="416" y="1237"/>
      <point x="357" y="1207" type="curve"/>
      <point x="176" y="1360" type="line"/>
      <point x="77" y="1277" type="line"/>
      <point x="263" y="1116" type="line"/>
      <point x="227" y="1066"/>
      <point x="212" y="1000"/>
      <point x="206" y="918" type="curve"/>
      <point x="197" y="808"/>
      <point x="199" y="583"/>
      <point x="206" y="480" type="curve"/>
      <point x="212" y="400"/>
      <point x="226" y="335"/>
      <point x="257" y="286" type="curve"/>
      <point x="76" y="128" type="line"/>
      <point x="181" y="44" type="line"/>
    </contour>
    <contour>
      <point x="601" y="325" type="curve" smooth="yes"/>
      <point x="491" y="325"/>
      <point x="445" y="357"/>
      <point x="441" y="421" type="curve" smooth="yes"/>
      <point x="431" y="601"/>
      <point x="431" y="796"/>
      <point x="441" y="978" type="curve" smooth="yes"/>
      <point x="445" y="1040"/>
      <point x="489" y="1072"/>
      <point x="601" y="1072" type="curve" smooth="yes"/>
      <point x="714" y="1072"/>
      <point x="755" y="1040"/>
      <point x="759" y="978" type="curve" smooth="yes"/>
      <point x="769" y="796"/>
      <point x="770" y="602"/>
      <point x="759" y="421" type="curve" smooth="yes"/>
      <point x="756" y="357"/>
      <point x="713" y="325"/>
    </contour>
  </outline>
</glyph>
<glyph name="yen" format="2">
  <advance width="907"/>
  <unicode hex="00A5"/>
  <anchor x="457" y="0" name="bottom"/>
  <anchor x="447" y="1428" name="top"/>
  <anchor x="13" y="1428" name="topleft"/>
  <outline>
    <contour>
      <point x="573" y="0" type="line"/>
      <point x="573" y="99" type="line"/>
      <point x="801" y="99" type="line"/>
      <point x="801" y="185" type="line"/>
      <point x="573" y="185" type="line"/>
      <point x="573" y="237" type="line"/>
      <point x="801" y="237" type="line"/>
      <point x="801" y="323" type="line"/>
      <point x="573" y="323" type="line"/>
      <point x="573" y="346" type="line"/>
      <point x="573" y="348" type="line"/>
      <point x="894" y="1428" type="line"/>
      <point x="654" y="1428" type="line"/>
      <point x="546" y="1070" type="line"/>
      <point x="482" y="654" type="line"/>
      <point x="427" y="654" type="line"/>
      <point x="363" y="1070" type="line"/>
      <point x="256" y="1428" type="line"/>
      <point x="13" y="1428" type="line"/>
      <point x="338" y="348" type="line"/>
      <point x="338" y="346" type="line"/>
      <point x="338" y="323" type="line"/>
      <point x="110" y="323" type="line"/>
      <point x="110" y="237" type="line"/>
      <point x="338" y="237" type="line"/>
      <point x="338" y="185" type="line"/>
      <point x="110" y="185" type="line"/>
      <point x="110" y="99" type="line"/>
      <point x="338" y="99" type="line"/>
      <point x="338" y="0" type="line"/>
    </contour>
  </outline>
</glyph>
<glyph name="brokenbar" format="2">
  <advance width="397"/>
  <unicode hex="00A6"/>
  <outline>
    <contour>
      <point x="82" y="907" type="line"/>
      <point x="316" y="907" type="line"/>
      <point x="316" y="1624" type="line"/>
      <point x="82" y="1624" type="line"/>
    </contour>
    <contour>
      <point x="82" y="-214" type="line"/>
      <point x="316" y="-214" type="line"/>
      <point x="316" y="479" type="line"/>
      <point x="82" y="479" type="line"/>
    </contour>
  </outline>
</glyph>
<glyph name="section" format="2">
  <advance width="913"/>
  <unicode hex="00A7"/>
  <outline>
    <contour>
      <point x="447" y="-373" type="curve" smooth="yes"/>
      <point x="728" y="-373"/>
      <point x="820" y="-306"/>
      <point x="837" y="-100" type="curve"/>
      <point x="841" y="-69"/>
      <point x="843" y="-22"/>
      <point x="841" y="16" type="curve"/>
      <point x="837" y="105"/>
      <point x="788" y="169"/>
      <point x="685" y="196" type="curve"/>
      <point x="685" y="224" type="line"/>
      <point x="775" y="252"/>
      <point x="830" y="313"/>
      <point x="837" y="408" type="curve"/>
      <point x="845" y="473"/>
      <point x="848" y="506"/>
      <point x="838" y="587" type="curve"/>
      <point x="827" y="743"/>
      <point x="725" y="846"/>
      <point x="549" y="883" type="curve"/>
      <point x="417" y="908" type="line"/>
      <point x="313" y="922"/>
      <point x="305" y="956"/>
      <point x="301" y="1009" type="curve" smooth="yes"/>
      <point x="297" y="1052"/>
      <point x="301" y="1134"/>
      <point x="305" y="1164" type="curve" smooth="yes"/>
      <point x="313" y="1226"/>
      <point x="345" y="1235"/>
      <point x="460" y="1235" type="curve" smooth="yes"/>
      <point x="570" y="1235"/>
      <point x="605" y="1226"/>
      <point x="611" y="1164" type="curve"/>
      <point x="613" y="1135"/>
      <point x="613" y="1047"/>
      <point x="609" y="993" type="curve"/>
      <point x="824" y="993" type="line"/>
      <point x="829" y="1045"/>
      <point x="829" y="1097"/>
      <point x="827" y="1137" type="curve" smooth="yes"/>
      <point x="820" y="1346"/>
      <point x="725" y="1429"/>
      <point x="460" y="1429" type="curve" smooth="yes"/>
      <point x="176" y="1429"/>
      <point x="96" y="1379"/>
      <point x="76" y="1164" type="curve" smooth="yes"/>
      <point x="72" y="1125"/>
      <point x="70" y="1058"/>
      <point x="74" y="1009" type="curve"/>
      <point x="85" y="908"/>
      <point x="134" y="864"/>
      <point x="229" y="841" type="curve"/>
      <point x="229" y="808" type="line"/>
      <point x="144" y="778"/>
      <point x="79" y="709"/>
      <point x="75" y="595" type="curve" smooth="yes"/>
      <point x="71" y="519"/>
      <point x="71" y="476"/>
      <point x="75" y="408" type="curve" smooth="yes"/>
      <point x="82" y="257"/>
      <point x="193" y="188"/>
      <point x="387" y="145" type="curve"/>
      <point x="510" y="112" type="line"/>
      <point x="605" y="98"/>
      <point x="617" y="70"/>
      <point x="620" y="24" type="curve"/>
      <point x="621" y="-16"/>
      <point x="620" y="-59"/>
      <point x="619" y="-100" type="curve"/>
      <point x="617" y="-169"/>
      <point x="570" y="-194"/>
      <point x="447" y="-194" type="curve" smooth="yes"/>
      <point x="337" y="-194"/>
      <point x="294" y="-169"/>
      <point x="288" y="-100" type="curve"/>
      <point x="286" y="-68"/>
      <point x="286" y="-14"/>
      <point x="290" y="50" type="curve"/>
      <point x="82" y="50" type="line"/>
      <point x="79" y="29"/>
      <point x="75" y="-59"/>
      <point x="79" y="-100" type="curve"/>
      <point x="88" y="-313"/>
      <point x="183" y="-373"/>
    </contour>
    <contour>
      <point x="465" y="320" type="curve" smooth="yes"/>
      <point x="345" y="320"/>
      <point x="306" y="356"/>
      <point x="297" y="415" type="curve"/>
      <point x="291" y="464"/>
      <point x="289" y="545"/>
      <point x="297" y="595" type="curve"/>
      <point x="302" y="652"/>
      <point x="346" y="688"/>
      <point x="465" y="688" type="curve" smooth="yes"/>
      <point x="587" y="688"/>
      <point x="618" y="652"/>
      <point x="625" y="595" type="curve"/>
      <point x="635" y="545"/>
      <point x="635" y="465"/>
      <point x="625" y="415" type="curve"/>
      <point x="618" y="356"/>
      <point x="584" y="320"/>
    </contour>
  </outline>
</glyph>
<glyph name="dieresis" format="2">
  <advance width="836"/>
  <unicode hex="00A8"/>
  <outline>
    <contour>
      <point x="769" y="1169" type="line"/>
      <point x="769" y="1330" type="line"/>
      <point x="533" y="1330" type="line"/>
      <point x="533" y="1169" type="line"/>
    </contour>
    <contour>
      <point x="336" y="1169" type="line"/>
      <point x="336" y="1330" type="line"/>
      <point x="103" y="1330" type="line"/>
      <point x="103" y="1169" type="line"/>
    </contour>
  </outline>
</glyph>
<glyph name="copyright" format="2">
  <advance width="1194"/>
  <unicode hex="00A9"/>
  <outline>
    <contour>
      <point x="598" y="-8" type="curve" smooth="yes"/>
      <point x="942" y="-8"/>
      <point x="1123" y="181"/>
      <point x="1123" y="536" type="curve" smooth="yes"/>
      <point x="1123" y="891"/>
      <point x="942" y="1080"/>
      <point x="598" y="1080" type="curve" smooth="yes"/>
      <point x="254" y="1080"/>
      <point x="71" y="891"/>
      <point x="71" y="536" type="curve" smooth="yes"/>
      <point x="71" y="181"/>
      <point x="254" y="-8"/>
    </contour>
    <contour>
      <point x="598" y="105" type="curve" smooth="yes"/>
      <point x="337" y="105"/>
      <point x="200" y="255"/>
      <point x="200" y="536" type="curve" smooth="yes"/>
      <point x="200" y="818"/>
      <point x="337" y="967"/>
      <point x="598" y="967" type="curve" smooth="yes"/>
      <point x="858" y="967"/>
      <point x="995" y="817"/>
      <point x="995" y="536" type="curve" smooth="yes"/>
      <point x="995" y="255"/>
      <point x="858" y="105"/>
    </contour>
    <contour>
      <point x="601" y="201" type="curve" smooth="yes"/>
      <point x="748" y="201"/>
      <point x="803" y="256"/>
      <point x="813" y="393" type="curve"/>
      <point x="814" y="417"/>
      <point x="813" y="436"/>
      <point x="810" y="450" type="curve"/>
      <point x="669" y="450" type="line"/>
      <point x="670" y="412"/>
      <point x="670" y="397"/>
      <point x="669" y="377" type="curve"/>
      <point x="666" y="330"/>
      <point x="648" y="314"/>
      <point x="601" y="314" type="curve"/>
      <point x="552" y="314"/>
      <point x="529" y="330"/>
      <point x="528" y="377" type="curve" smooth="yes"/>
      <point x="527" y="488"/>
      <point x="524" y="580"/>
      <point x="528" y="694" type="curve"/>
      <point x="531" y="738"/>
      <point x="550" y="754"/>
      <point x="599" y="754" type="curve" smooth="yes"/>
      <point x="648" y="754"/>
      <point x="669" y="738"/>
      <point x="669" y="694" type="curve" smooth="yes"/>
      <point x="669" y="678"/>
      <point x="670" y="642"/>
      <point x="669" y="622" type="curve"/>
      <point x="810" y="622" type="line"/>
      <point x="813" y="632"/>
      <point x="814" y="655"/>
      <point x="813" y="678" type="curve"/>
      <point x="804" y="812"/>
      <point x="748" y="866"/>
      <point x="599" y="866" type="curve" smooth="yes"/>
      <point x="452" y="866"/>
      <point x="390" y="812"/>
      <point x="382" y="672" type="curve"/>
      <point x="379" y="606"/>
      <point x="379" y="453"/>
      <point x="382" y="393" type="curve"/>
      <point x="392" y="256"/>
      <point x="452" y="201"/>
    </contour>
  </outline>
</glyph>
<glyph name="ordfeminine" format="2">
  <advance width="707"/>
  <unicode hex="00AA"/>
  <outline>
    <contour>
      <point x="275" y="611" type="curve" smooth="yes"/>
      <point x="362" y="611"/>
      <point x="402" y="641"/>
      <point x="435" y="697" type="curve"/>
      <point x="461" y="697" type="line"/>
      <point x="458" y="672"/>
      <point x="458" y="647"/>
      <point x="458" y="621" type="curve"/>
      <point x="633" y="621" type="line"/>
      <point x="633" y="782"/>
      <point x="637" y="975"/>
      <point x="633" y="1076" type="curve" smooth="yes"/>
      <point x="629" y="1245"/>
      <point x="572" y="1314"/>
      <point x="369" y="1314" type="curve" smooth="yes"/>
      <point x="170" y="1314"/>
      <point x="107" y="1252"/>
      <point x="98" y="1107" type="curve" smooth="yes"/>
      <point x="97" y="1083"/>
      <point x="98" y="1041"/>
      <point x="100" y="1036" type="curve"/>
      <point x="270" y="1036" type="line"/>
      <point x="268" y="1039"/>
      <point x="267" y="1115"/>
      <point x="268" y="1127" type="curve"/>
      <point x="275" y="1161"/>
      <point x="301" y="1175"/>
      <point x="364" y="1175" type="curve" smooth="yes"/>
      <point x="442" y="1175"/>
      <point x="457" y="1153"/>
      <point x="460" y="1122" type="curve" smooth="yes"/>
      <point x="462" y="1096"/>
      <point x="464" y="1070"/>
      <point x="464" y="1045" type="curve"/>
      <point x="400" y="1035"/>
      <point x="345" y="1028"/>
      <point x="291" y="1014" type="curve" smooth="yes"/>
      <point x="135" y="972"/>
      <point x="84" y="928"/>
      <point x="74" y="830" type="curve"/>
      <point x="73" y="816"/>
      <point x="73" y="793"/>
      <point x="75" y="782" type="curve"/>
      <point x="93" y="655"/>
      <point x="147" y="611"/>
    </contour>
    <contour>
      <point x="343" y="746" type="curve" smooth="yes"/>
      <point x="289" y="746"/>
      <point x="249" y="761"/>
      <point x="247" y="798" type="curve"/>
      <point x="245" y="803"/>
      <point x="244" y="817"/>
      <point x="245" y="830" type="curve"/>
      <point x="250" y="865"/>
      <point x="266" y="894"/>
      <point x="331" y="908" type="curve"/>
      <point x="375" y="914"/>
      <point x="421" y="922"/>
      <point x="464" y="927" type="curve"/>
      <point x="464" y="880"/>
      <point x="464" y="835"/>
      <point x="463" y="790" type="curve"/>
      <point x="440" y="764"/>
      <point x="396" y="746"/>
    </contour>
  </outline>
</glyph>
<glyph name="guillemetleft" format="2">
  <advance width="1036"/>
  <unicode hex="00AB"/>
  <outline>
    <contour>
      <point x="537" y="969" type="line"/>
      <point x="18" y="671" type="line"/>
      <point x="18" y="451" type="line"/>
      <point x="537" y="750" type="line"/>
    </contour>
    <contour>
      <point x="537" y="372" type="line"/>
      <point x="18" y="671" type="line"/>
      <point x="18" y="451" type="line"/>
      <point x="537" y="153" type="line"/>
    </contour>
    <contour>
      <point x="965" y="969" type="line"/>
      <point x="448" y="671" type="line"/>
      <point x="448" y="451" type="line"/>
      <point x="965" y="750" type="line"/>
    </contour>
    <contour>
      <point x="965" y="372" type="line"/>
      <point x="448" y="671" type="line"/>
      <point x="448" y="451" type="line"/>
      <point x="965" y="153" type="line"/>
    </contour>
  </outline>
</glyph>
<glyph name="logicalnot" format="2">
  <advance width="942"/>
  <unicode hex="00AC"/>
  <outline>
    <contour>
      <point x="871" y="388" type="line"/>
      <point x="871" y="898" type="line"/>
      <point x="71" y="898" type="line"/>
      <point x="71" y="719" type="line"/>
      <point x="693" y="719" type="line"/>
      <point x="693" y="388" type="line"/>
    </contour>
  </outline>
</glyph>
<glyph name="softhyphen" format="2">
  <advance width="617"/>
  <unicode hex="00AD"/>
  <outline>
    <contour>
      <point x="565" y="537" type="line"/>
      <point x="565" y="747" type="line"/>
      <point x="53" y="747" type="line"/>
      <point x="53" y="537" type="line"/>
    </contour>
  </outline>
</glyph>
<glyph name="registered" format="2">
  <advance width="1194"/>
  <unicode hex="00AE"/>
  <outline>
    <contour>
      <point x="603" y="872" type="curve" smooth="yes"/>
      <point x="958" y="872"/>
      <point x="1123" y="997"/>
      <point x="1123" y="1226" type="curve" smooth="yes"/>
      <point x="1123" y="1456"/>
      <point x="958" y="1579"/>
      <point x="603" y="1579" type="curve" smooth="yes"/>
      <point x="240" y="1579"/>
      <point x="71" y="1456"/>
      <point x="71" y="1226" type="curve" smooth="yes"/>
      <point x="71" y="997"/>
      <point x="240" y="872"/>
    </contour>
    <contour>
      <point x="603" y="945" type="curve" smooth="yes"/>
      <point x="291" y="945"/>
      <point x="157" y="1036"/>
      <point x="157" y="1226" type="curve" smooth="yes"/>
      <point x="157" y="1417"/>
      <point x="289" y="1506"/>
      <point x="603" y="1506" type="curve" smooth="yes"/>
      <point x="908" y="1506"/>
      <point x="1040" y="1417"/>
      <point x="1040" y="1226" type="curve" smooth="yes"/>
      <point x="1040" y="1036"/>
      <point x="908" y="945"/>
    </contour>
    <contour>
      <point x="545" y="1050" type="line"/>
      <point x="545" y="1191" type="line"/>
      <point x="609" y="1191" type="line" smooth="yes"/>
      <point x="650" y="1191"/>
      <point x="675" y="1178"/>
      <point x="679" y="1155" type="curve"/>
      <point x="682" y="1123"/>
      <point x="682" y="1083"/>
      <point x="680" y="1050" type="curve"/>
      <point x="779" y="1050" type="line"/>
      <point x="780" y="1087"/>
      <point x="780" y="1116"/>
      <point x="776" y="1144" type="curve"/>
      <point x="772" y="1186"/>
      <point x="749" y="1208"/>
      <point x="692" y="1217" type="curve"/>
      <point x="692" y="1229" type="line"/>
      <point x="747" y="1239"/>
      <point x="774" y="1261"/>
      <point x="779" y="1302" type="curve"/>
      <point x="780" y="1313"/>
      <point x="780" y="1318"/>
      <point x="779" y="1327" type="curve"/>
      <point x="772" y="1400"/>
      <point x="718" y="1428"/>
      <point x="609" y="1428" type="curve" smooth="yes"/>
      <point x="449" y="1428" type="line"/>
      <point x="449" y="1050" type="line"/>
    </contour>
    <contour>
      <point x="545" y="1356" type="line"/>
      <point x="609" y="1356" type="line" smooth="yes"/>
      <point x="650" y="1356"/>
      <point x="676" y="1348"/>
      <point x="678" y="1332" type="curve"/>
      <point x="680" y="1318"/>
      <point x="680" y="1305"/>
      <point x="678" y="1294" type="curve"/>
      <point x="676" y="1273"/>
      <point x="650" y="1263"/>
      <point x="607" y="1263" type="curve" smooth="yes"/>
      <point x="545" y="1263" type="line"/>
    </contour>
  </outline>
</glyph>
<glyph name="macron" format="2">
  <advance width="836"/>
  <unicode hex="00AF"/>
  <outline>
    <contour>
      <point x="97" y="1128" type="line"/>
      <point x="702" y="1128" type="line"/>
      <point x="702" y="1237" type="line"/>
      <point x="97" y="1237" type="line"/>
    </contour>
  </outline>
</glyph>
<glyph name="degree" format="2">
  <advance width="657"/>
  <unicode hex="00B0"/>
  <outline>
    <contour>
      <point x="330" y="1055" type="curve" smooth="yes"/>
      <point x="469" y="1055"/>
      <point x="586" y="1144"/>
      <point x="586" y="1249" type="curve" smooth="yes"/>
      <point x="586" y="1357"/>
      <point x="469" y="1446"/>
      <point x="330" y="1446" type="curve" smooth="yes"/>
      <point x="189" y="1446"/>
      <point x="71" y="1357"/>
      <point x="71" y="1249" type="curve" smooth="yes"/>
      <point x="71" y="1144"/>
      <point x="189" y="1055"/>
    </contour>
    <contour>
      <point x="330" y="1151" type="curve" smooth="yes"/>
      <point x="243" y="1151"/>
      <point x="175" y="1195"/>
      <point x="175" y="1249" type="curve" smooth="yes"/>
      <point x="175" y="1305"/>
      <point x="243" y="1349"/>
      <point x="330" y="1349" type="curve" smooth="yes"/>
      <point x="414" y="1349"/>
      <point x="484" y="1305"/>
      <point x="484" y="1249" type="curve" smooth="yes"/>
      <point x="484" y="1195"/>
      <point x="414" y="1151"/>
    </contour>
  </outline>
</glyph>
<glyph name="plusminus" format="2">
  <advance width="838"/>
  <unicode hex="00B1"/>
  <outline>
    <contour>
      <point x="507" y="417" type="line"/>
      <point x="507" y="559" type="line"/>
      <point x="768" y="559" type="line"/>
      <point x="768" y="738" type="line"/>
      <point x="507" y="738" type="line"/>
      <point x="507" y="927" type="line"/>
      <point x="333" y="927" type="line"/>
      <point x="333" y="738" type="line"/>
      <point x="71" y="738" type="line"/>
      <point x="71" y="559" type="line"/>
      <point x="333" y="559" type="line"/>
      <point x="333" y="417" type="line"/>
    </contour>
    <contour>
      <point x="768" y="195" type="line"/>
      <point x="768" y="340" type="line"/>
      <point x="71" y="340" type="line"/>
      <point x="71" y="195" type="line"/>
    </contour>
  </outline>
</glyph>
<glyph name="twosuperior" format="2">
  <advance width="627"/>
  <unicode hex="00B2"/>
  <outline>
    <contour>
      <point x="568" y="784" type="line"/>
      <point x="568" y="934" type="line"/>
      <point x="234" y="934" type="line"/>
      <point x="234" y="947" type="line" smooth="yes"/>
      <point x="234" y="963"/>
      <point x="261" y="977"/>
      <point x="303" y="984" type="curve"/>
      <point x="400" y="1020" type="line"/>
      <point x="515" y="1060"/>
      <point x="579" y="1115"/>
      <point x="583" y="1205" type="curve"/>
      <point x="584" y="1220"/>
      <point x="583" y="1231"/>
      <point x="579" y="1243" type="curve"/>
      <point x="578" y="1368"/>
      <point x="492" y="1437"/>
      <point x="315" y="1437" type="curve" smooth="yes"/>
      <point x="154" y="1437"/>
      <point x="61" y="1369"/>
      <point x="54" y="1243" type="curve"/>
      <point x="52" y="1219"/>
      <point x="54" y="1190"/>
      <point x="58" y="1171" type="curve"/>
      <point x="230" y="1171" type="line"/>
      <point x="226" y="1190"/>
      <point x="225" y="1228"/>
      <point x="227" y="1266" type="curve" smooth="yes"/>
      <point x="228" y="1286"/>
      <point x="259" y="1299"/>
      <point x="314" y="1299" type="curve" smooth="yes"/>
      <point x="382" y="1299"/>
      <point x="404" y="1283"/>
      <point x="407" y="1264" type="curve"/>
      <point x="410" y="1243"/>
      <point x="410" y="1226"/>
      <point x="407" y="1205" type="curve"/>
      <point x="402" y="1175"/>
      <point x="391" y="1159"/>
      <point x="334" y="1142" type="curve"/>
      <point x="250" y="1111" type="line" smooth="yes"/>
      <point x="141" y="1070"/>
      <point x="58" y="1007"/>
      <point x="55" y="926" type="curve"/>
      <point x="55" y="869"/>
      <point x="54" y="844"/>
      <point x="55" y="784" type="curve"/>
    </contour>
  </outline>
</glyph>
<glyph name="threesuperior" format="2">
  <advance width="636"/>
  <unicode hex="00B3"/>
  <outline>
    <contour>
      <point x="320" y="776" type="curve" smooth="yes"/>
      <point x="497" y="776"/>
      <point x="580" y="841"/>
      <point x="583" y="955" type="curve"/>
      <point x="584" y="969"/>
      <point x="584" y="988"/>
      <point x="583" y="1004" type="curve"/>
      <point x="581" y="1103"/>
      <point x="499" y="1162"/>
      <point x="375" y="1178" type="curve"/>
      <point x="575" y="1282" type="line"/>
      <point x="577" y="1428" type="line"/>
      <point x="59" y="1428" type="line"/>
      <point x="59" y="1278" type="line"/>
      <point x="366" y="1278" type="line"/>
      <point x="182" y="1172" type="line"/>
      <point x="189" y="1048" type="line"/>
      <point x="306" y="1048" type="line" smooth="yes"/>
      <point x="376" y="1048"/>
      <point x="405" y="1031"/>
      <point x="408" y="1001" type="curve"/>
      <point x="411" y="985"/>
      <point x="408" y="969"/>
      <point x="408" y="954" type="curve"/>
      <point x="405" y="929"/>
      <point x="377" y="914"/>
      <point x="314" y="914" type="curve" smooth="yes"/>
      <point x="247" y="914"/>
      <point x="222" y="932"/>
      <point x="220" y="958" type="curve" smooth="yes"/>
      <point x="219" y="968"/>
      <point x="219" y="980"/>
      <point x="221" y="992" type="curve"/>
      <point x="49" y="992" type="line"/>
      <point x="46" y="977"/>
      <point x="46" y="966"/>
      <point x="46" y="957" type="curve"/>
      <point x="50" y="840"/>
      <point x="147" y="776"/>
    </contour>
  </outline>
</glyph>
<glyph name="acute" format="2">
  <advance width="836"/>
  <unicode hex="00B4"/>
  <outline>
    <contour>
      <point x="329" y="1142" type="line"/>
      <point x="722" y="1382" type="line"/>
      <point x="504" y="1382" type="line"/>
      <point x="114" y="1142" type="line"/>
    </contour>
  </outline>
</glyph>
<glyph name="micro" format="2">
  <advance width="711"/>
  <unicode hex="00B5"/>
  <outline>
    <contour>
      <point x="293" y="-324" type="line"/>
      <point x="293" y="-15" type="line"/>
      <point x="311" y="-14"/>
      <point x="323" y="-8"/>
      <point x="329" y="3" type="curve"/>
      <point x="344" y="23"/>
      <point x="359" y="55"/>
      <point x="379" y="105" type="curve"/>
      <point x="408" y="105" type="line"/>
      <point x="411" y="62"/>
      <point x="415" y="26"/>
      <point x="421" y="0" type="curve" name=".hr01"/>
      <point x="640" y="0" type="line"/>
      <point x="630" y="42"/>
      <point x="625" y="115"/>
      <point x="625" y="201" type="curve" smooth="yes"/>
      <point x="625" y="973" type="line"/>
      <point x="406" y="973" type="line"/>
      <point x="406" y="230" type="line"/>
      <point x="394" y="188"/>
      <point x="353" y="161"/>
      <point x="333" y="161" type="curve" smooth="yes"/>
      <point x="308" y="161"/>
      <point x="292" y="185"/>
      <point x="292" y="237" type="curve" smooth="yes"/>
      <point x="290" y="973" type="line"/>
      <point x="71" y="973" type="line"/>
      <point x="74" y="-324" type="line"/>
    </contour>
  </outline>
</glyph>
<glyph name="paragraph" format="2">
  <advance width="1040"/>
  <unicode hex="00B6"/>
  <outline>
    <contour>
      <point x="660" y="-178" type="line"/>
      <point x="660" y="1299" type="line"/>
      <point x="733" y="1299" type="line"/>
      <point x="733" y="-178" type="line"/>
      <point x="880" y="-178" type="line"/>
      <point x="880" y="1299" type="line"/>
      <point x="969" y="1299" type="line"/>
      <point x="969" y="1428" type="line"/>
      <point x="441" y="1428" type="line" smooth="yes"/>
      <point x="179" y="1428"/>
      <point x="89" y="1335"/>
      <point x="75" y="1097" type="curve"/>
      <point x="72" y="1055"/>
      <point x="72" y="989"/>
      <point x="75" y="951" type="curve"/>
      <point x="89" y="710"/>
      <point x="180" y="617"/>
      <point x="441" y="617" type="curve" smooth="yes"/>
      <point x="515" y="617" type="line"/>
      <point x="515" y="-178" type="line"/>
    </contour>
  </outline>
</glyph>
<glyph name="periodcentered" format="2">
  <advance width="399"/>
  <unicode hex="00B7"/>
  <anchor x="202" y="747" name="_center"/>
  <outline>
    <contour>
      <point x="328" y="658" type="line"/>
      <point x="328" y="835" type="line"/>
      <point x="71" y="835" type="line"/>
      <point x="71" y="658" type="line"/>
    </contour>
  </outline>
</glyph>
<glyph name="cedilla" format="2">
  <advance width="836"/>
  <unicode hex="00B8"/>
  <outline>
    <contour>
      <point x="321" y="-285" type="line" smooth="yes"/>
      <point x="622" y="-285"/>
      <point x="746" y="-224"/>
      <point x="698" y="-80" type="curve"/>
      <point x="626" y="0" type="line"/>
      <point x="451" y="0" type="line"/>
      <point x="524" y="-80" type="line"/>
      <point x="560" y="-146"/>
      <point x="495" y="-172"/>
      <point x="321" y="-172" type="curve" smooth="yes"/>
      <point x="146" y="-172" type="line"/>
      <point x="146" y="-285" type="line"/>
    </contour>
  </outline>
</glyph>
<glyph name="onesuperior" format="2">
  <advance width="397"/>
  <unicode hex="00B9"/>
  <outline>
    <contour>
      <point x="326" y="789" type="line"/>
      <point x="326" y="1431" type="line"/>
      <point x="189" y="1431" type="line"/>
      <point x="35" y="1348" type="line"/>
      <point x="40" y="1290" type="line"/>
      <point x="151" y="1290" type="line"/>
      <point x="151" y="789" type="line"/>
    </contour>
  </outline>
</glyph>
<glyph name="ordmasculine" format="2">
  <advance width="715"/>
  <unicode hex="00BA"/>
  <outline>
    <contour>
      <point x="356" y="611" type="curve" smooth="yes"/>
      <point x="568" y="611"/>
      <point x="626" y="684"/>
      <point x="640" y="853" type="curve"/>
      <point x="645" y="892"/>
      <point x="644" y="1013"/>
      <point x="640" y="1073" type="curve" smooth="yes"/>
      <point x="630" y="1242"/>
      <point x="563" y="1314"/>
      <point x="353" y="1314" type="curve" smooth="yes"/>
      <point x="156" y="1314"/>
      <point x="92" y="1252"/>
      <point x="76" y="1073" type="curve"/>
      <point x="69" y="1013"/>
      <point x="72" y="892"/>
      <point x="76" y="853" type="curve"/>
      <point x="85" y="675"/>
      <point x="160" y="611"/>
    </contour>
    <contour>
      <point x="358" y="749" type="curve" smooth="yes"/>
      <point x="286" y="749"/>
      <point x="253" y="770"/>
      <point x="251" y="805" type="curve" smooth="yes"/>
      <point x="243" y="926"/>
      <point x="244" y="1014"/>
      <point x="251" y="1122" type="curve" smooth="yes"/>
      <point x="253" y="1154"/>
      <point x="285" y="1175"/>
      <point x="358" y="1175" type="curve" smooth="yes"/>
      <point x="436" y="1175"/>
      <point x="463" y="1154"/>
      <point x="465" y="1122" type="curve"/>
      <point x="473" y="1014"/>
      <point x="474" y="926"/>
      <point x="465" y="805" type="curve"/>
      <point x="463" y="770"/>
      <point x="436" y="749"/>
    </contour>
  </outline>
</glyph>
<glyph name="guillemetright" format="2">
  <advance width="1036"/>
  <unicode hex="00BB"/>
  <outline>
    <contour>
      <point x="501" y="750" type="line"/>
      <point x="1018" y="451" type="line"/>
      <point x="1018" y="671" type="line"/>
      <point x="501" y="969" type="line"/>
    </contour>
    <contour>
      <point x="501" y="153" type="line"/>
      <point x="1018" y="451" type="line"/>
      <point x="1018" y="671" type="line"/>
      <point x="501" y="372" type="line"/>
    </contour>
    <contour>
      <point x="71" y="750" type="line"/>
      <point x="589" y="451" type="line"/>
      <point x="589" y="671" type="line"/>
      <point x="71" y="969" type="line"/>
    </contour>
    <contour>
      <point x="71" y="153" type="line"/>
      <point x="589" y="451" type="line"/>
      <point x="589" y="671" type="line"/>
      <point x="71" y="372" type="line"/>
    </contour>
  </outline>
</glyph>
<glyph name="onequarter" format="2">
  <advance width="1170"/>
  <unicode hex="00BC"/>
  <outline>
    <contour>
      <point x="336" y="787" type="line"/>
      <point x="336" y="1429" type="line"/>
      <point x="199" y="1429" type="line"/>
      <point x="49" y="1346" type="line"/>
      <point x="53" y="1288" type="line"/>
      <point x="161" y="1288" type="line"/>
      <point x="161" y="787" type="line"/>
    </contour>
    <contour>
      <point x="8" y="0" type="line"/>
      <point x="1160" y="1428" type="line"/>
      <point x="977" y="1428" type="line"/>
      <point x="-173" y="0" type="line"/>
    </contour>
    <contour>
      <point x="808" y="643" type="line"/>
      <point x="565" y="280" type="line"/>
      <point x="565" y="136" type="line"/>
      <point x="876" y="136" type="line"/>
      <point x="876" y="0" type="line"/>
      <point x="1037" y="0" type="line"/>
      <point x="1037" y="136" type="line"/>
      <point x="1149" y="136" type="line"/>
      <point x="1149" y="284" type="line"/>
      <point x="1037" y="284" type="line"/>
      <point x="1037" y="643" type="line"/>
    </contour>
    <contour>
      <point x="737" y="284" type="line"/>
      <point x="815" y="412" type="line"/>
      <point x="881" y="492" type="line"/>
      <point x="916" y="492" type="line"/>
      <point x="897" y="412" type="line"/>
      <point x="876" y="284" type="line"/>
    </contour>
  </outline>
</glyph>
<glyph name="onehalf" format="2">
  <advance width="1180"/>
  <unicode hex="00BD"/>
  <outline>
    <contour>
      <point x="334" y="787" type="line"/>
      <point x="334" y="1429" type="line"/>
      <point x="198" y="1429" type="line"/>
      <point x="49" y="1346" type="line"/>
      <point x="52" y="1288" type="line"/>
      <point x="160" y="1288" type="line"/>
      <point x="160" y="787" type="line"/>
    </contour>
    <contour>
      <point x="8" y="0" type="line"/>
      <point x="1155" y="1428" type="line"/>
      <point x="972" y="1428" type="line"/>
      <point x="-173" y="0" type="line"/>
    </contour>
    <contour>
      <point x="1132" y="0" type="line"/>
      <point x="1132" y="150" type="line"/>
      <point x="810" y="150" type="line"/>
      <point x="810" y="163" type="line" smooth="yes"/>
      <point x="810" y="180"/>
      <point x="835" y="194"/>
      <point x="874" y="200" type="curve"/>
      <point x="968" y="236" type="line" smooth="yes"/>
      <point x="1081" y="276"/>
      <point x="1144" y="331"/>
      <point x="1147" y="421" type="curve"/>
      <point x="1148" y="436"/>
      <point x="1147" y="447"/>
      <point x="1144" y="460" type="curve"/>
      <point x="1143" y="584"/>
      <point x="1058" y="653"/>
      <point x="886" y="653" type="curve" smooth="yes"/>
      <point x="728" y="653"/>
      <point x="637" y="585"/>
      <point x="630" y="460" type="curve" smooth="yes"/>
      <point x="628" y="435"/>
      <point x="630" y="407"/>
      <point x="634" y="388" type="curve"/>
      <point x="805" y="388" type="line"/>
      <point x="801" y="406"/>
      <point x="801" y="445"/>
      <point x="802" y="482" type="curve"/>
      <point x="804" y="502"/>
      <point x="833" y="515"/>
      <point x="885" y="515" type="curve" smooth="yes"/>
      <point x="948" y="515"/>
      <point x="969" y="500"/>
      <point x="972" y="480" type="curve"/>
      <point x="975" y="459"/>
      <point x="975" y="442"/>
      <point x="972" y="421" type="curve"/>
      <point x="967" y="391"/>
      <point x="957" y="375"/>
      <point x="903" y="359" type="curve"/>
      <point x="821" y="328" type="line" smooth="yes"/>
      <point x="714" y="286"/>
      <point x="633" y="223"/>
      <point x="631" y="143" type="curve" smooth="yes"/>
      <point x="630" y="85"/>
      <point x="630" y="60"/>
      <point x="631" y="0" type="curve"/>
    </contour>
  </outline>
</glyph>
<glyph name="threequarters" format="2">
  <advance width="1300"/>
  <unicode hex="00BE"/>
  <outline>
    <contour>
      <point x="297" y="776" type="curve" smooth="yes"/>
      <point x="457" y="776"/>
      <point x="537" y="841"/>
      <point x="539" y="955" type="curve"/>
      <point x="539" y="969"/>
      <point x="539" y="988"/>
      <point x="539" y="1004" type="curve"/>
      <point x="538" y="1103"/>
      <point x="470" y="1162"/>
      <point x="362" y="1178" type="curve"/>
      <point x="527" y="1282" type="line"/>
      <point x="529" y="1428" type="line"/>
      <point x="61" y="1428" type="line"/>
      <point x="61" y="1278" type="line"/>
      <point x="320" y="1278" type="line"/>
      <point x="172" y="1172" type="line"/>
      <point x="178" y="1048" type="line"/>
      <point x="287" y="1048" type="line" smooth="yes"/>
      <point x="341" y="1048"/>
      <point x="365" y="1031"/>
      <point x="366" y="1001" type="curve"/>
      <point x="368" y="985"/>
      <point x="366" y="969"/>
      <point x="366" y="954" type="curve"/>
      <point x="365" y="929"/>
      <point x="342" y="914"/>
      <point x="292" y="914" type="curve" smooth="yes"/>
      <point x="240" y="914"/>
      <point x="219" y="932"/>
      <point x="218" y="958" type="curve"/>
      <point x="217" y="968"/>
      <point x="217" y="980"/>
      <point x="219" y="992" type="curve"/>
      <point x="49" y="992" type="line"/>
      <point x="46" y="977"/>
      <point x="46" y="966"/>
      <point x="46" y="957" type="curve" smooth="yes"/>
      <point x="48" y="840"/>
      <point x="138" y="776"/>
    </contour>
    <contour>
      <point x="262" y="0" type="line"/>
      <point x="1295" y="1428" type="line"/>
      <point x="1113" y="1428" type="line"/>
      <point x="82" y="0" type="line"/>
    </contour>
    <contour>
      <point x="958" y="643" type="line"/>
      <point x="741" y="280" type="line"/>
      <point x="741" y="136" type="line"/>
      <point x="1020" y="136" type="line"/>
      <point x="1020" y="0" type="line"/>
      <point x="1179" y="0" type="line"/>
      <point x="1179" y="136" type="line"/>
      <point x="1276" y="136" type="line"/>
      <point x="1276" y="284" type="line"/>
      <point x="1179" y="284" type="line"/>
      <point x="1179" y="643" type="line"/>
    </contour>
    <contour>
      <point x="909" y="284" type="line"/>
      <point x="975" y="412" type="line"/>
      <point x="1029" y="492" type="line"/>
      <point x="1060" y="492" type="line"/>
      <point x="1041" y="412" type="line"/>
      <point x="1020" y="284" type="line"/>
    </contour>
  </outline>
</glyph>
<glyph name="questiondown" format="2">
  <advance width="868"/>
  <unicode hex="00BF"/>
  <outline>
    <contour>
      <point x="440" y="-374" type="curve" smooth="yes"/>
      <point x="696" y="-374"/>
      <point x="803" y="-280"/>
      <point x="812" y="-42" type="curve" smooth="yes"/>
      <point x="816" y="38"/>
      <point x="813" y="111"/>
      <point x="811" y="170" type="curve"/>
      <point x="583" y="170" type="line"/>
      <point x="588" y="89"/>
      <point x="588" y="5"/>
      <point x="582" y="-85" type="curve" smooth="yes"/>
      <point x="577" y="-147"/>
      <point x="532" y="-180"/>
      <point x="438" y="-180" type="curve" smooth="yes"/>
      <point x="338" y="-180"/>
      <point x="289" y="-147"/>
      <point x="289" y="-85" type="curve" smooth="yes"/>
      <point x="289" y="122" type="line" smooth="yes"/>
      <point x="289" y="193"/>
      <point x="296" y="251"/>
      <point x="360" y="276" type="curve"/>
      <point x="404" y="295" type="line"/>
      <point x="532" y="370"/>
      <point x="568" y="437"/>
      <point x="560" y="585" type="curve"/>
      <point x="554" y="699" type="line"/>
      <point x="377" y="699" type="line"/>
      <point x="369" y="586" type="line"/>
      <point x="364" y="539"/>
      <point x="363" y="490"/>
      <point x="299" y="465" type="curve"/>
      <point x="248" y="443" type="line"/>
      <point x="145" y="409"/>
      <point x="57" y="373"/>
      <point x="54" y="122" type="curve" smooth="yes"/>
      <point x="53" y="71"/>
      <point x="54" y="32"/>
      <point x="54" y="-42" type="curve" smooth="yes"/>
      <point x="54" y="-280"/>
      <point x="167" y="-374"/>
    </contour>
    <contour>
      <point x="627" y="841" type="line"/>
      <point x="627" y="1071" type="line"/>
      <point x="305" y="1071" type="line"/>
      <point x="305" y="841" type="line"/>
    </contour>
  </outline>
</glyph>
<glyph name="AE" format="2">
  <advance width="1276"/>
  <unicode hex="00C6"/>
  <anchor x="637" y="0" name="bottom"/>
  <anchor x="1024" y="0" name="ogonek"/>
  <anchor x="741" y="1428" name="top"/>
  <anchor x="547" y="1428" name="topleft"/>
  <outline>
    <contour>
      <point x="272" y="0" type="line"/>
      <point x="359" y="320" type="line"/>
      <point x="594" y="320" type="line"/>
      <point x="594" y="0" type="line"/>
      <point x="1238" y="0" type="line"/>
      <point x="1238" y="212" type="line"/>
      <point x="828" y="212" type="line"/>
      <point x="828" y="619" type="line"/>
      <point x="1215" y="619" type="line"/>
      <point x="1215" y="831" type="line"/>
      <point x="828" y="831" type="line"/>
      <point x="828" y="1216" type="line"/>
      <point x="1238" y="1216" type="line"/>
      <point x="1238" y="1428" type="line"/>
      <point x="359" y="1428" type="line"/>
      <point x="17" y="0" type="line"/>
    </contour>
    <contour>
      <point x="466" y="784" type="line"/>
      <point x="538" y="1216" type="line"/>
      <point x="594" y="1216" type="line"/>
      <point x="594" y="532" type="line"/>
      <point x="400" y="532" type="line"/>
    </contour>
  </outline>
</glyph>
<glyph name="Eth" format="2">
  <advance width="961"/>
  <unicode hex="00D0"/>
  <outline>
    <contour>
      <point x="45" y="727" type="line"/>
      <point x="546" y="727" type="line"/>
      <point x="546" y="844" type="line"/>
      <point x="45" y="844" type="line"/>
    </contour>
    <contour>
      <point x="523" y="0" type="line" smooth="yes"/>
      <point x="783" y="0"/>
      <point x="891" y="99"/>
      <point x="895" y="344" type="curve" smooth="yes"/>
      <point x="902" y="610"/>
      <point x="902" y="821"/>
      <point x="895" y="1086" type="curve" smooth="yes"/>
      <point x="891" y="1329"/>
      <point x="783" y="1428"/>
      <point x="524" y="1428" type="curve" smooth="yes"/>
      <point x="170" y="1428" type="line"/>
      <point x="170" y="0" type="line"/>
    </contour>
    <contour>
      <point x="404" y="1216" type="line"/>
      <point x="524" y="1216" type="line" smooth="yes"/>
      <point x="615" y="1216"/>
      <point x="660" y="1180"/>
      <point x="661" y="1114" type="curve" smooth="yes"/>
      <point x="669" y="847"/>
      <point x="669" y="582"/>
      <point x="661" y="316" type="curve" smooth="yes"/>
      <point x="660" y="249"/>
      <point x="615" y="212"/>
      <point x="523" y="212" type="curve" smooth="yes"/>
      <point x="404" y="212" type="line"/>
    </contour>
  </outline>
</glyph>
<glyph name="multiply" format="2">
  <advance width="942"/>
  <unicode hex="00D7"/>
  <outline>
    <contour>
      <point x="472" y="522" type="line"/>
      <point x="745" y="312" type="line"/>
      <point x="871" y="439" type="line"/>
      <point x="599" y="648" type="line"/>
      <point x="871" y="858" type="line"/>
      <point x="745" y="984" type="line"/>
      <point x="472" y="774" type="line"/>
      <point x="199" y="984" type="line"/>
      <point x="71" y="858" type="line"/>
      <point x="344" y="648" type="line"/>
      <point x="71" y="439" type="line"/>
      <point x="199" y="312" type="line"/>
    </contour>
  </outline>
</glyph>
<glyph name="Oslash" format="2">
  <advance width="977"/>
  <unicode hex="00D8"/>
  <anchor x="492" y="0" name="bottom"/>
  <anchor x="492" y="714" name="center"/>
  <anchor x="644" y="8" name="ogonek"/>
  <anchor x="492" y="1428" name="top"/>
  <anchor x="6" y="1428" name="topleft"/>
  <anchor x="975" y="1428" name="topright"/>
  <outline>
    <contour>
      <point x="489" y="-16" type="curve" smooth="yes"/>
      <point x="785" y="-16"/>
      <point x="902" y="79"/>
      <point x="909" y="319" type="curve" smooth="yes"/>
      <point x="918" y="572"/>
      <point x="918" y="854"/>
      <point x="909" y="1110" type="curve" smooth="yes"/>
      <point x="902" y="1349"/>
      <point x="785" y="1445"/>
      <point x="489" y="1445" type="curve" smooth="yes"/>
      <point x="194" y="1445"/>
      <point x="76" y="1349"/>
      <point x="69" y="1110" type="curve" smooth="yes"/>
      <point x="59" y="857"/>
      <point x="59" y="572"/>
      <point x="69" y="319" type="curve" smooth="yes"/>
      <point x="76" y="79"/>
      <point x="194" y="-16"/>
    </contour>
    <contour>
      <point x="489" y="180" type="curve" smooth="yes"/>
      <point x="362" y="180"/>
      <point x="307" y="212"/>
      <point x="303" y="274" type="curve" smooth="yes"/>
      <point x="300" y="318"/>
      <point x="298" y="362"/>
      <point x="298" y="408" type="curve"/>
      <point x="684" y="713" type="line"/>
      <point x="687" y="558"/>
      <point x="685" y="408"/>
      <point x="675" y="274" type="curve" smooth="yes"/>
      <point x="672" y="212"/>
      <point x="620" y="180"/>
    </contour>
    <contour>
      <point x="292" y="665" type="line"/>
      <point x="290" y="837"/>
      <point x="294" y="1008"/>
      <point x="303" y="1155" type="curve" smooth="yes"/>
      <point x="307" y="1217"/>
      <point x="362" y="1249"/>
      <point x="489" y="1249" type="curve" smooth="yes"/>
      <point x="617" y="1249"/>
      <point x="672" y="1217"/>
      <point x="675" y="1155" type="curve" smooth="yes"/>
      <point x="677" y="1093"/>
      <point x="681" y="1032"/>
      <point x="683" y="972" type="curve"/>
    </contour>
  </outline>
</glyph>
<glyph name="Thorn" format="2">
  <advance width="821"/>
  <unicode hex="00DE"/>
  <outline>
    <contour>
      <point x="305" y="0" type="line"/>
      <point x="305" y="250" type="line"/>
      <point x="409" y="250" type="line" smooth="yes"/>
      <point x="668" y="250"/>
      <point x="773" y="344"/>
      <point x="783" y="577" type="curve"/>
      <point x="788" y="682"/>
      <point x="788" y="768"/>
      <point x="783" y="879" type="curve" smooth="yes"/>
      <point x="774" y="1111"/>
      <point x="668" y="1205"/>
      <point x="410" y="1205" type="curve" smooth="yes"/>
      <point x="305" y="1205" type="line"/>
      <point x="305" y="1428" type="line"/>
      <point x="71" y="1428" type="line"/>
      <point x="71" y="0" type="line"/>
    </contour>
    <contour>
      <point x="305" y="993" type="line"/>
      <point x="410" y="993" type="line" smooth="yes"/>
      <point x="502" y="993"/>
      <point x="544" y="957"/>
      <point x="548" y="892" type="curve" smooth="yes"/>
      <point x="555" y="794"/>
      <point x="555" y="661"/>
      <point x="548" y="565" type="curve" smooth="yes"/>
      <point x="544" y="498"/>
      <point x="502" y="462"/>
      <point x="409" y="462" type="curve" smooth="yes"/>
      <point x="305" y="462" type="line"/>
    </contour>
  </outline>
</glyph>
<glyph name="germandbls" format="2">
  <advance width="844"/>
  <unicode hex="00DF"/>
  <outline>
    <contour>
      <point x="290" y="0" type="line"/>
      <point x="293" y="1012" type="line" smooth="yes"/>
      <point x="293" y="1064"/>
      <point x="330" y="1102"/>
      <point x="423" y="1102" type="curve" smooth="yes"/>
      <point x="516" y="1102"/>
      <point x="555" y="1069"/>
      <point x="556" y="1012" type="curve" smooth="yes"/>
      <point x="558" y="960"/>
      <point x="560" y="954"/>
      <point x="558" y="902" type="curve"/>
      <point x="555" y="816"/>
      <point x="510" y="767"/>
      <point x="414" y="767" type="curve"/>
      <point x="393" y="767" type="line"/>
      <point x="393" y="554" type="line"/>
      <point x="422" y="554" type="line" smooth="yes"/>
      <point x="524" y="554"/>
      <point x="566" y="514"/>
      <point x="569" y="407" type="curve"/>
      <point x="571" y="377"/>
      <point x="571" y="349"/>
      <point x="569" y="319" type="curve"/>
      <point x="566" y="250"/>
      <point x="520" y="213"/>
      <point x="428" y="213" type="curve" smooth="yes"/>
      <point x="383" y="213" type="line"/>
      <point x="383" y="0" type="line"/>
      <point x="428" y="0" type="line" smooth="yes"/>
      <point x="677" y="0"/>
      <point x="777" y="91"/>
      <point x="788" y="315" type="curve"/>
      <point x="791" y="354"/>
      <point x="791" y="381"/>
      <point x="788" y="418" type="curve"/>
      <point x="783" y="543"/>
      <point x="732" y="611"/>
      <point x="619" y="641" type="curve"/>
      <point x="619" y="680" type="line"/>
      <point x="722" y="712"/>
      <point x="768" y="777"/>
      <point x="775" y="895" type="curve"/>
      <point x="778" y="923"/>
      <point x="778" y="951"/>
      <point x="777" y="983" type="curve"/>
      <point x="774" y="1208"/>
      <point x="677" y="1298"/>
      <point x="428" y="1298" type="curve" smooth="yes"/>
      <point x="177" y="1298"/>
      <point x="71" y="1206"/>
      <point x="71" y="975" type="curve" smooth="yes"/>
      <point x="71" y="0" type="line"/>
    </contour>
  </outline>
</glyph>
<glyph name="ae" format="2">
  <advance width="1219"/>
  <unicode hex="00E6"/>
  <anchor x="627" y="973" name="top"/>
  <outline>
    <contour>
      <point x="288" y="-12" type="curve" smooth="yes"/>
      <point x="396" y="-12"/>
      <point x="483" y="22"/>
      <point x="524" y="105" type="curve"/>
      <point x="543" y="105" type="line"/>
      <point x="589" y="21"/>
      <point x="686" y="-15"/>
      <point x="845" y="-15" type="curve" smooth="yes"/>
      <point x="1068" y="-15"/>
      <point x="1161" y="67"/>
      <point x="1169" y="272" type="curve" smooth="yes"/>
      <point x="1171" y="308"/>
      <point x="1169" y="367"/>
      <point x="1166" y="378" type="curve"/>
      <point x="952" y="378" type="line"/>
      <point x="955" y="321"/>
      <point x="955" y="272"/>
      <point x="954" y="247" type="curve"/>
      <point x="950" y="187"/>
      <point x="919" y="164"/>
      <point x="845" y="164" type="curve" smooth="yes"/>
      <point x="764" y="164"/>
      <point x="724" y="187"/>
      <point x="724" y="247" type="curve" smooth="yes"/>
      <point x="724" y="313"/>
      <point x="724" y="380"/>
      <point x="724" y="447" type="curve"/>
      <point x="1166" y="447" type="line"/>
      <point x="1173" y="538"/>
      <point x="1171" y="673"/>
      <point x="1169" y="708" type="curve" smooth="yes"/>
      <point x="1161" y="909"/>
      <point x="1067" y="989"/>
      <point x="843" y="989" type="curve" smooth="yes"/>
      <point x="747" y="989"/>
      <point x="674" y="978"/>
      <point x="621" y="950" type="curve"/>
      <point x="573" y="978"/>
      <point x="504" y="989"/>
      <point x="405" y="989" type="curve" smooth="yes"/>
      <point x="170" y="989"/>
      <point x="86" y="904"/>
      <point x="78" y="708" type="curve" smooth="yes"/>
      <point x="76" y="673"/>
      <point x="78" y="611"/>
      <point x="81" y="600" type="curve"/>
      <point x="295" y="600" type="line"/>
      <point x="292" y="629"/>
      <point x="292" y="713"/>
      <point x="295" y="736" type="curve"/>
      <point x="298" y="788"/>
      <point x="326" y="810"/>
      <point x="399" y="810" type="curve" smooth="yes"/>
      <point x="482" y="810"/>
      <point x="506" y="780"/>
      <point x="506" y="728" type="curve" smooth="yes"/>
      <point x="506" y="685"/>
      <point x="506" y="644"/>
      <point x="506" y="602" type="curve"/>
      <point x="438" y="587"/>
      <point x="374" y="574"/>
      <point x="308" y="553" type="curve"/>
      <point x="136" y="493"/>
      <point x="60" y="425"/>
      <point x="50" y="292" type="curve"/>
      <point x="47" y="272"/>
      <point x="48" y="240"/>
      <point x="50" y="221" type="curve"/>
      <point x="61" y="50"/>
      <point x="147" y="-12"/>
    </contour>
    <contour>
      <point x="374" y="161" type="curve" smooth="yes"/>
      <point x="310" y="161"/>
      <point x="273" y="188"/>
      <point x="267" y="240" type="curve"/>
      <point x="264" y="256"/>
      <point x="264" y="272"/>
      <point x="266" y="292" type="curve" smooth="yes"/>
      <point x="271" y="349"/>
      <point x="294" y="388"/>
      <point x="362" y="414" type="curve"/>
      <point x="414" y="428"/>
      <point x="464" y="439"/>
      <point x="506" y="447" type="curve"/>
      <point x="506" y="402"/>
      <point x="509" y="360"/>
      <point x="509" y="325" type="curve" smooth="yes"/>
      <point x="508" y="177"/>
      <point x="434" y="161"/>
    </contour>
    <contour>
      <point x="724" y="613" type="line"/>
      <point x="724" y="654"/>
      <point x="724" y="695"/>
      <point x="724" y="736" type="curve" smooth="yes"/>
      <point x="724" y="788"/>
      <point x="763" y="810"/>
      <point x="843" y="810" type="curve" smooth="yes"/>
      <point x="917" y="810"/>
      <point x="951" y="788"/>
      <point x="954" y="736" type="curve"/>
      <point x="954" y="708"/>
      <point x="955" y="655"/>
      <point x="955" y="613" type="curve"/>
    </contour>
  </outline>
</glyph>
<glyph name="eth" format="2">
  <advance width="803"/>
  <unicode hex="00F0"/>
  <outline>
    <contour>
      <point x="414" y="-15" type="curve" smooth="yes"/>
      <point x="647" y="-15"/>
      <point x="735" y="76"/>
      <point x="744" y="309" type="curve" smooth="yes"/>
      <point x="747" y="373"/>
      <point x="747" y="500"/>
      <point x="744" y="565" type="curve" smooth="yes"/>
      <point x="736" y="768"/>
      <point x="693" y="940"/>
      <point x="597" y="1082" type="curve"/>
      <point x="701" y="1127" type="line"/>
      <point x="663" y="1205" type="line"/>
      <point x="546" y="1152" type="line"/>
      <point x="487" y="1212"/>
      <point x="415" y="1265"/>
      <point x="327" y="1314" type="curve"/>
      <point x="209" y="1110" type="line"/>
      <point x="263" y="1084"/>
      <point x="310" y="1057"/>
      <point x="349" y="1026" type="curve"/>
      <point x="256" y="992" type="line"/>
      <point x="293" y="914" type="line"/>
      <point x="406" y="958" type="line"/>
      <point x="451" y="903"/>
      <point x="484" y="840"/>
      <point x="502" y="773" type="curve"/>
      <point x="481" y="773" type="line"/>
      <point x="454" y="827"/>
      <point x="392" y="862"/>
      <point x="305" y="862" type="curve" smooth="yes"/>
      <point x="174" y="862"/>
      <point x="78" y="754"/>
      <point x="75" y="589" type="curve" smooth="yes"/>
      <point x="72" y="500"/>
      <point x="72" y="375"/>
      <point x="76" y="309" type="curve" smooth="yes"/>
      <point x="86" y="76"/>
      <point x="180" y="-15"/>
    </contour>
    <contour>
      <point x="412" y="181" type="curve" smooth="yes"/>
      <point x="337" y="181"/>
      <point x="297" y="210"/>
      <point x="295" y="264" type="curve" smooth="yes"/>
      <point x="291" y="367"/>
      <point x="291" y="509"/>
      <point x="294" y="584" type="curve" smooth="yes"/>
      <point x="296" y="638"/>
      <point x="335" y="667"/>
      <point x="404" y="667" type="curve" smooth="yes"/>
      <point x="476" y="667"/>
      <point x="523" y="641"/>
      <point x="525" y="594" type="curve" smooth="yes"/>
      <point x="531" y="496"/>
      <point x="530" y="360"/>
      <point x="525" y="264" type="curve" smooth="yes"/>
      <point x="523" y="210"/>
      <point x="485" y="181"/>
    </contour>
  </outline>
</glyph>
<glyph name="divide" format="2">
  <advance width="838"/>
  <unicode hex="00F7"/>
  <outline>
    <contour>
      <point x="768" y="559" type="line"/>
      <point x="768" y="738" type="line"/>
      <point x="71" y="738" type="line"/>
      <point x="71" y="559" type="line"/>
    </contour>
    <contour>
      <point x="504" y="842" type="line"/>
      <point x="504" y="1024" type="line"/>
      <point x="336" y="1024" type="line"/>
      <point x="336" y="842" type="line"/>
    </contour>
    <contour>
      <point x="504" y="273" type="line"/>
      <point x="504" y="454" type="line"/>
      <point x="336" y="454" type="line"/>
      <point x="336" y="273" type="line"/>
    </contour>
  </outline>
</glyph>
<glyph name="oslash" format="2">
  <advance width="831"/>
  <unicode hex="00F8"/>
  <outline>
    <contour>
      <point x="196" y="212" type="line"/>
      <point x="733" y="679" type="line"/>
      <point x="663" y="764" type="line"/>
      <point x="118" y="295" type="line"/>
    </contour>
    <contour>
      <point x="417" y="-15" type="curve" smooth="yes"/>
      <point x="672" y="-15"/>
      <point x="756" y="78"/>
      <point x="768" y="309" type="curve"/>
      <point x="775" y="391"/>
      <point x="775" y="591"/>
      <point x="768" y="667" type="curve"/>
      <point x="757" y="896"/>
      <point x="672" y="989"/>
      <point x="417" y="989" type="curve" smooth="yes"/>
      <point x="163" y="989"/>
      <point x="76" y="898"/>
      <point x="64" y="667" type="curve"/>
      <point x="56" y="585"/>
      <point x="57" y="383"/>
      <point x="64" y="309" type="curve"/>
      <point x="75" y="75"/>
      <point x="165" y="-15"/>
    </contour>
    <contour>
      <point x="417" y="164" type="curve" smooth="yes"/>
      <point x="325" y="164"/>
      <point x="285" y="194"/>
      <point x="283" y="248" type="curve" smooth="yes"/>
      <point x="274" y="397"/>
      <point x="275" y="577"/>
      <point x="283" y="728" type="curve" smooth="yes"/>
      <point x="286" y="781"/>
      <point x="323" y="810"/>
      <point x="417" y="810" type="curve" smooth="yes"/>
      <point x="511" y="810"/>
      <point x="546" y="781"/>
      <point x="549" y="728" type="curve"/>
      <point x="556" y="577"/>
      <point x="556" y="398"/>
      <point x="549" y="248" type="curve"/>
      <point x="546" y="194"/>
      <point x="510" y="164"/>
    </contour>
  </outline>
</glyph>
<glyph name="thorn" format="2">
  <advance width="735"/>
  <unicode hex="00FE"/>
  <outline>
    <contour>
      <point x="290" y="-324" type="line"/>
      <point x="290" y="105" type="line"/>
      <point x="320" y="105" type="line"/>
      <point x="364" y="18"/>
      <point x="406" y="-15"/>
      <point x="463" y="-15" type="curve" smooth="yes"/>
      <point x="575" y="-15"/>
      <point x="652" y="62"/>
      <point x="662" y="258" type="curve" smooth="yes"/>
      <point x="666" y="360"/>
      <point x="666" y="614"/>
      <point x="662" y="716" type="curve" smooth="yes"/>
      <point x="652" y="913"/>
      <point x="587" y="989"/>
      <point x="474" y="989" type="curve" smooth="yes"/>
      <point x="389" y="989"/>
      <point x="359" y="947"/>
      <point x="320" y="869" type="curve"/>
      <point x="290" y="869" type="line"/>
      <point x="290" y="1298" type="line"/>
      <point x="71" y="1298" type="line"/>
      <point x="71" y="-324" type="line"/>
    </contour>
    <contour>
      <point x="371" y="161" type="curve" smooth="yes"/>
      <point x="332" y="161"/>
      <point x="309" y="180"/>
      <point x="290" y="230" type="curve"/>
      <point x="290" y="744" type="line"/>
      <point x="306" y="786"/>
      <point x="354" y="814"/>
      <point x="385" y="814" type="curve" smooth="yes"/>
      <point x="423" y="814"/>
      <point x="439" y="789"/>
      <point x="442" y="737" type="curve" smooth="yes"/>
      <point x="449" y="596"/>
      <point x="448" y="364"/>
      <point x="442" y="237" type="curve"/>
      <point x="438" y="185"/>
      <point x="408" y="161"/>
    </contour>
  </outline>
</glyph>
<glyph name="Lslash" format="2">
  <advance width="754"/>
  <unicode hex="0141"/>
  <anchor x="457" y="0" name="bottom"/>
  <anchor x="465" y="714" name="center"/>
  <anchor x="465" y="1428" name="top"/>
  <anchor x="774" y="1428" name="topright"/>
  <outline>
    <contour>
      <point x="727" y="0" type="line"/>
      <point x="727" y="212" type="line"/>
      <point x="420" y="212" type="line"/>
      <point x="420" y="698" type="line"/>
      <point x="625" y="1071" type="line"/>
      <point x="450" y="1071" type="line"/>
      <point x="420" y="991" type="line"/>
      <point x="420" y="1428" type="line"/>
      <point x="185" y="1428" type="line"/>
      <point x="185" y="667" type="line"/>
      <point x="0" y="326" type="line"/>
      <point x="161" y="326" type="line"/>
      <point x="185" y="399" type="line"/>
      <point x="185" y="0" type="line"/>
    </contour>
  </outline>
</glyph>
<glyph name="lslash" format="2">
  <advance width="401"/>
  <unicode hex="0142"/>
  <anchor x="274" y="0" name="bottom"/>
  <anchor x="274" y="649" name="center"/>
  <anchor x="274" y="1298" name="top"/>
  <anchor x="378" y="1007" name="topright"/>
  <outline>
    <contour>
      <point x="383" y="0" type="line"/>
      <point x="383" y="640" type="line"/>
      <point x="559" y="973" type="line"/>
      <point x="397" y="973" type="line"/>
      <point x="383" y="921" type="line"/>
      <point x="383" y="1298" type="line"/>
      <point x="163" y="1298" type="line"/>
      <point x="163" y="608" type="line"/>
      <point x="0" y="293" type="line"/>
      <point x="147" y="293" type="line"/>
      <point x="163" y="355" type="line"/>
      <point x="163" y="0" type="line"/>
    </contour>
  </outline>
</glyph>
<glyph name="OE" format="2">
  <advance width="1323"/>
  <unicode hex="0152"/>
  <anchor x="958" y="0" name="bottom"/>
  <anchor x="461" y="714" name="center"/>
  <anchor x="1065" y="0" name="ogonek"/>
  <anchor x="953" y="1428" name="top"/>
  <anchor x="576" y="1428" name="topleft"/>
  <anchor x="907" y="1428" name="topright"/>
  <outline>
    <contour>
      <point x="459" y="-16" type="curve" smooth="yes"/>
      <point x="545" y="-16"/>
      <point x="612" y="-10"/>
      <point x="661" y="5" type="curve"/>
      <point x="663" y="0" type="line" name=".hr01"/>
      <point x="1284" y="0" type="line"/>
      <point x="1284" y="212" type="line"/>
      <point x="860" y="212" type="line"/>
      <point x="860" y="619" type="line"/>
      <point x="1260" y="619" type="line"/>
      <point x="1260" y="831" type="line"/>
      <point x="860" y="831" type="line"/>
      <point x="860" y="1216" type="line"/>
      <point x="1284" y="1216" type="line"/>
      <point x="1284" y="1428" type="line"/>
      <point x="663" y="1428" type="line"/>
      <point x="661" y="1424" type="line"/>
      <point x="612" y="1438"/>
      <point x="545" y="1445"/>
      <point x="459" y="1445" type="curve" smooth="yes"/>
      <point x="185" y="1445"/>
      <point x="74" y="1349"/>
      <point x="68" y="1110" type="curve" smooth="yes"/>
      <point x="60" y="857"/>
      <point x="60" y="572"/>
      <point x="68" y="319" type="curve" smooth="yes"/>
      <point x="74" y="79"/>
      <point x="185" y="-16"/>
    </contour>
    <contour>
      <point x="459" y="180" type="curve" smooth="yes"/>
      <point x="353" y="180"/>
      <point x="305" y="212"/>
      <point x="302" y="274" type="curve" smooth="yes"/>
      <point x="290" y="537"/>
      <point x="288" y="894"/>
      <point x="302" y="1155" type="curve" smooth="yes"/>
      <point x="305" y="1217"/>
      <point x="353" y="1249"/>
      <point x="459" y="1249" type="curve" smooth="yes"/>
      <point x="565" y="1249"/>
      <point x="613" y="1217"/>
      <point x="616" y="1155" type="curve" smooth="yes"/>
      <point x="627" y="903"/>
      <point x="627" y="524"/>
      <point x="616" y="274" type="curve" smooth="yes"/>
      <point x="613" y="212"/>
      <point x="567" y="180"/>
    </contour>
  </outline>
</glyph>
<glyph name="oe" format="2">
  <advance width="1235"/>
  <unicode hex="0153"/>
  <outline>
    <contour>
      <point x="402" y="-15" type="curve" smooth="yes"/>
      <point x="647" y="-15"/>
      <point x="727" y="78"/>
      <point x="739" y="309" type="curve"/>
      <point x="745" y="391"/>
      <point x="745" y="591"/>
      <point x="739" y="667" type="curve"/>
      <point x="728" y="896"/>
      <point x="647" y="989"/>
      <point x="402" y="989" type="curve" smooth="yes"/>
      <point x="158" y="989"/>
      <point x="75" y="898"/>
      <point x="63" y="667" type="curve"/>
      <point x="56" y="585"/>
      <point x="57" y="383"/>
      <point x="63" y="309" type="curve"/>
      <point x="74" y="75"/>
      <point x="160" y="-15"/>
    </contour>
    <contour>
      <point x="402" y="164" type="curve" smooth="yes"/>
      <point x="320" y="164"/>
      <point x="284" y="194"/>
      <point x="282" y="248" type="curve" smooth="yes"/>
      <point x="275" y="397"/>
      <point x="275" y="577"/>
      <point x="282" y="728" type="curve" smooth="yes"/>
      <point x="285" y="781"/>
      <point x="318" y="810"/>
      <point x="402" y="810" type="curve" smooth="yes"/>
      <point x="485" y="810"/>
      <point x="517" y="781"/>
      <point x="519" y="728" type="curve"/>
      <point x="526" y="577"/>
      <point x="526" y="398"/>
      <point x="519" y="248" type="curve"/>
      <point x="517" y="194"/>
      <point x="484" y="164"/>
    </contour>
    <contour>
      <point x="863" y="-15" type="curve" smooth="yes"/>
      <point x="1084" y="-15"/>
      <point x="1173" y="67"/>
      <point x="1183" y="272" type="curve" smooth="yes"/>
      <point x="1185" y="308"/>
      <point x="1184" y="367"/>
      <point x="1182" y="378" type="curve"/>
      <point x="968" y="378" type="line"/>
      <point x="969" y="321"/>
      <point x="969" y="272"/>
      <point x="968" y="247" type="curve"/>
      <point x="964" y="187"/>
      <point x="936" y="164"/>
      <point x="862" y="164" type="curve" smooth="yes"/>
      <point x="782" y="164"/>
      <point x="749" y="187"/>
      <point x="748" y="247" type="curve"/>
      <point x="745" y="308"/>
      <point x="744" y="376"/>
      <point x="744" y="447" type="curve"/>
      <point x="1182" y="447" type="line"/>
      <point x="1188" y="538"/>
      <point x="1185" y="673"/>
      <point x="1183" y="708" type="curve" smooth="yes"/>
      <point x="1173" y="909"/>
      <point x="1081" y="989"/>
      <point x="859" y="989" type="curve" smooth="yes"/>
      <point x="635" y="989"/>
      <point x="540" y="908"/>
      <point x="528" y="698" type="curve"/>
      <point x="521" y="616"/>
      <point x="522" y="346"/>
      <point x="528" y="272" type="curve"/>
      <point x="538" y="67"/>
      <point x="633" y="-15"/>
    </contour>
    <contour>
      <point x="744" y="613" type="line"/>
      <point x="745" y="655"/>
      <point x="746" y="697"/>
      <point x="748" y="736" type="curve"/>
      <point x="750" y="788"/>
      <point x="782" y="810"/>
      <point x="859" y="810" type="curve" smooth="yes"/>
      <point x="934" y="810"/>
      <point x="964" y="788"/>
      <point x="968" y="736" type="curve"/>
      <point x="970" y="726"/>
      <point x="970" y="672"/>
      <point x="969" y="613" type="curve"/>
    </contour>
  </outline>
</glyph>
<glyph name="florin" format="2">
  <advance width="725"/>
  <unicode hex="0192"/>
  <outline>
    <contour>
      <point x="159" y="-15" type="curve" smooth="yes"/>
      <point x="330" y="-15"/>
      <point x="426" y="54"/>
      <point x="468" y="260" type="curve"/>
      <point x="510" y="614" type="line"/>
      <point x="689" y="614" type="line"/>
      <point x="689" y="730" type="line"/>
      <point x="538" y="730" type="line"/>
      <point x="568" y="1034" type="line" smooth="yes"/>
      <point x="573" y="1087"/>
      <point x="614" y="1129"/>
      <point x="647" y="1129" type="curve" smooth="yes"/>
      <point x="670" y="1129"/>
      <point x="697" y="1129"/>
      <point x="723" y="1129" type="curve"/>
      <point x="749" y="1302" type="line"/>
      <point x="720" y="1309"/>
      <point x="697" y="1315"/>
      <point x="662" y="1315" type="curve" smooth="yes"/>
      <point x="492" y="1315"/>
      <point x="393" y="1247"/>
      <point x="351" y="1041" type="curve"/>
      <point x="319" y="730" type="line"/>
      <point x="163" y="730" type="line"/>
      <point x="163" y="614" type="line"/>
      <point x="293" y="614" type="line"/>
      <point x="252" y="266" type="line" smooth="yes"/>
      <point x="247" y="213"/>
      <point x="207" y="171"/>
      <point x="174" y="171" type="curve" smooth="yes"/>
      <point x="164" y="171"/>
      <point x="117" y="173"/>
      <point x="99" y="174" type="curve"/>
      <point x="71" y="-2" type="line"/>
      <point x="99" y="-9"/>
      <point x="125" y="-15"/>
    </contour>
  </outline>
</glyph>
<glyph name="circumflex" format="2">
  <advance width="836"/>
  <unicode hex="02C6"/>
  <outline>
    <contour>
      <point x="249" y="1040" type="line"/>
      <point x="423" y="1132" type="line"/>
      <point x="591" y="1040" type="line"/>
      <point x="765" y="1040" type="line"/>
      <point x="498" y="1265" type="line"/>
      <point x="341" y="1265" type="line"/>
      <point x="71" y="1040" type="line"/>
    </contour>
  </outline>
</glyph>
<glyph name="caron" format="2">
  <advance width="836"/>
  <unicode hex="02C7"/>
  <outline>
    <contour>
      <point x="494" y="1040" type="line"/>
      <point x="765" y="1265" type="line"/>
      <point x="605" y="1265" type="line"/>
      <point x="420" y="1158" type="line"/>
      <point x="232" y="1265" type="line"/>
      <point x="71" y="1265" type="line"/>
      <point x="346" y="1040" type="line"/>
    </contour>
  </outline>
</glyph>
<glyph name="breve" format="2">
  <advance width="836"/>
  <unicode hex="02D8"/>
  <outline>
    <contour>
      <point x="419" y="1134" type="curve" smooth="yes"/>
      <point x="656" y="1134"/>
      <point x="754" y="1205"/>
      <point x="765" y="1383" type="curve"/>
      <point x="616" y="1383" type="line"/>
      <point x="613" y="1292"/>
      <point x="560" y="1255"/>
      <point x="419" y="1255" type="curve" smooth="yes"/>
      <point x="277" y="1255"/>
      <point x="223" y="1292"/>
      <point x="223" y="1383" type="curve"/>
      <point x="71" y="1383" type="line"/>
      <point x="82" y="1205"/>
      <point x="181" y="1134"/>
    </contour>
  </outline>
</glyph>
<glyph name="dotaccent" format="2">
  <advance width="836"/>
  <unicode hex="02D9"/>
  <outline>
    <contour>
      <point x="562" y="1142" type="line"/>
      <point x="562" y="1304" type="line"/>
      <point x="310" y="1304" type="line"/>
      <point x="310" y="1142" type="line"/>
    </contour>
  </outline>
</glyph>
<glyph name="ring" format="2">
  <advance width="836"/>
  <unicode hex="02DA"/>
  <outline>
    <contour>
      <point x="343" y="1134" type="curve" smooth="yes"/>
      <point x="500" y="1134"/>
      <point x="634" y="1214"/>
      <point x="634" y="1312" type="curve" smooth="yes"/>
      <point x="634" y="1409"/>
      <point x="500" y="1489"/>
      <point x="343" y="1489" type="curve" smooth="yes"/>
      <point x="187" y="1489"/>
      <point x="55" y="1409"/>
      <point x="55" y="1312" type="curve" smooth="yes"/>
      <point x="55" y="1214"/>
      <point x="187" y="1134"/>
    </contour>
    <contour>
      <point x="343" y="1259" type="curve" smooth="yes"/>
      <point x="268" y="1259"/>
      <point x="208" y="1281"/>
      <point x="208" y="1312" type="curve" smooth="yes"/>
      <point x="208" y="1341"/>
      <point x="268" y="1364"/>
      <point x="343" y="1364" type="curve" smooth="yes"/>
      <point x="418" y="1364"/>
      <point x="478" y="1341"/>
      <point x="478" y="1312" type="curve" smooth="yes"/>
      <point x="478" y="1281"/>
      <point x="418" y="1259"/>
    </contour>
  </outline>
</glyph>
<glyph name="ogonek" format="2">
  <advance width="836"/>
  <unicode hex="02DB"/>
  <outline>
    <contour>
      <point x="711" y="-172" type="line"/>
      <point x="531" y="-172" type="line" smooth="yes"/>
      <point x="362" y="-172"/>
      <point x="296" y="-146"/>
      <point x="333" y="-80" type="curve"/>
      <point x="406" y="0" type="line"/>
      <point x="232" y="0" type="line"/>
      <point x="159" y="-80" type="line"/>
      <point x="112" y="-224"/>
      <point x="235" y="-285"/>
      <point x="531" y="-285" type="curve" smooth="yes"/>
      <point x="711" y="-285" type="line"/>
    </contour>
  </outline>
</glyph>
<glyph name="tilde" format="2">
  <advance width="836"/>
  <unicode hex="02DC"/>
  <outline>
    <contour>
      <point x="574" y="1316" type="line"/>
      <point x="573" y="1277"/>
      <point x="554" y="1256"/>
      <point x="511" y="1256" type="curve" smooth="yes"/>
      <point x="422" y="1256"/>
      <point x="424" y="1335"/>
      <point x="277" y="1335" type="curve" smooth="yes"/>
      <point x="171" y="1335"/>
      <point x="108" y="1280"/>
      <point x="94" y="1144" type="curve"/>
      <point x="202" y="1144" type="line"/>
      <point x="209" y="1188"/>
      <point x="229" y="1215"/>
      <point x="275" y="1215" type="curve" smooth="yes"/>
      <point x="374" y="1215"/>
      <point x="374" y="1134"/>
      <point x="514" y="1134" type="curve" smooth="yes"/>
      <point x="619" y="1134"/>
      <point x="678" y="1190"/>
      <point x="680" y="1316" type="curve"/>
    </contour>
  </outline>
</glyph>
<glyph name="hungarumlaut" format="2">
  <advance width="836"/>
  <unicode hex="02DD"/>
  <outline>
    <contour>
      <point x="228" y="1144" type="line"/>
      <point x="490" y="1383" type="line"/>
      <point x="317" y="1383" type="line"/>
      <point x="53" y="1144" type="line"/>
    </contour>
    <contour>
      <point x="544" y="1144" type="line"/>
      <point x="805" y="1383" type="line"/>
      <point x="631" y="1383" type="line"/>
      <point x="369" y="1144" type="line"/>
    </contour>
  </outline>
</glyph>
<glyph name="gravecomb" format="2">
  <advance width="354"/>
  <unicode hex="0300"/>
  <anchor x="280" y="1071" name="_top"/>
  <anchor x="165" y="1383" name="top"/>
  <outline>
    <contour>
      <point x="323" y="1142" type="line"/>
      <point x="216" y="1382" type="line"/>
      <point x="74" y="1382" type="line"/>
      <point x="189" y="1142" type="line"/>
    </contour>
  </outline>
</glyph>
<glyph name="acutecomb" format="2">
  <advance width="371"/>
  <unicode hex="0301"/>
  <anchor x="120" y="1071" name="_top"/>
  <anchor x="120" y="1383" name="top"/>
  <outline>
    <contour>
      <point x="195" y="1142" type="line"/>
      <point x="327" y="1382" type="line"/>
      <point x="185" y="1382" type="line"/>
      <point x="62" y="1142" type="line"/>
    </contour>
  </outline>
</glyph>
<glyph name="circumflexcomb" format="2">
  <advance width="465"/>
  <unicode hex="0302"/>
  <anchor x="234" y="1071" name="_top"/>
  <anchor x="234" y="1383" name="top"/>
  <outline>
    <contour>
      <point x="214" y="1144" type="line"/>
      <point x="233" y="1249" type="line"/>
      <point x="252" y="1144" type="line"/>
      <point x="394" y="1144" type="line"/>
      <point x="296" y="1383" type="line"/>
      <point x="169" y="1383" type="line"/>
      <point x="71" y="1144" type="line"/>
    </contour>
  </outline>
</glyph>
<glyph name="tildecomb" format="2">
  <advance width="577"/>
  <unicode hex="0303"/>
  <anchor x="258" y="1063" name="_top"/>
  <anchor x="261" y="1340" name="top"/>
  <outline>
    <contour>
      <point x="343" y="1316" type="line"/>
      <point x="339" y="1277"/>
      <point x="340" y="1256"/>
      <point x="318" y="1256" type="curve" smooth="yes"/>
      <point x="277" y="1256"/>
      <point x="265" y="1335"/>
      <point x="197" y="1335" type="curve" smooth="yes"/>
      <point x="135" y="1335"/>
      <point x="99" y="1280"/>
      <point x="94" y="1144" type="curve"/>
      <point x="174" y="1144" type="line"/>
      <point x="175" y="1188"/>
      <point x="173" y="1215"/>
      <point x="202" y="1215" type="curve" smooth="yes"/>
      <point x="246" y="1215"/>
      <point x="247" y="1134"/>
      <point x="317" y="1134" type="curve" smooth="yes"/>
      <point x="381" y="1134"/>
      <point x="414" y="1190"/>
      <point x="421" y="1316" type="curve"/>
    </contour>
  </outline>
</glyph>
<glyph name="macroncomb" format="2">
  <advance width="654"/>
  <unicode hex="0304"/>
  <anchor x="330" y="1071" name="_top"/>
  <anchor x="330" y="1259" name="top"/>
  <outline>
    <contour>
      <point x="97" y="1128" type="line"/>
      <point x="547" y="1128" type="line"/>
      <point x="547" y="1237" type="line"/>
      <point x="97" y="1237" type="line"/>
    </contour>
  </outline>
</glyph>
<glyph name="brevecomb" format="2">
  <advance width="533"/>
  <unicode hex="0306"/>
  <anchor x="266" y="1071" name="_top"/>
  <anchor x="266" y="1372" name="top"/>
  <outline>
    <contour>
      <point x="266" y="1134" type="curve" smooth="yes"/>
      <point x="395" y="1134"/>
      <point x="450" y="1205"/>
      <point x="462" y="1383" type="curve"/>
      <point x="326" y="1383" type="line"/>
      <point x="327" y="1292"/>
      <point x="308" y="1255"/>
      <point x="266" y="1255" type="curve" smooth="yes"/>
      <point x="223" y="1255"/>
      <point x="205" y="1292"/>
      <point x="205" y="1383" type="curve"/>
      <point x="71" y="1383" type="line"/>
      <point x="80" y="1205"/>
      <point x="135" y="1134"/>
    </contour>
  </outline>
</glyph>
<glyph name="dotaccentcomb" format="2">
  <advance width="302"/>
  <unicode hex="0307"/>
  <anchor x="170" y="1071" name="_top"/>
  <anchor x="170" y="1305" name="top"/>
  <outline>
    <contour>
      <point x="240" y="1142" type="line"/>
      <point x="240" y="1304" type="line"/>
      <point x="97" y="1304" type="line"/>
      <point x="97" y="1142" type="line"/>
    </contour>
  </outline>
</glyph>
<glyph name="dieresiscomb" format="2">
  <advance width="526"/>
  <unicode hex="0308"/>
  <anchor x="280" y="1071" name="_top"/>
  <anchor x="280" y="1305" name="top"/>
  <outline>
    <contour>
      <point x="459" y="1169" type="line"/>
      <point x="459" y="1330" type="line"/>
      <point x="315" y="1330" type="line"/>
      <point x="315" y="1169" type="line"/>
    </contour>
    <contour>
      <point x="247" y="1169" type="line"/>
      <point x="247" y="1330" type="line"/>
      <point x="103" y="1330" type="line"/>
      <point x="103" y="1169" type="line"/>
    </contour>
  </outline>
</glyph>
